SplineFontDB: 3.0
FontName: GabrielaDevanagari
FullName: Gabriela Devanagari
FamilyName: Gabriela Devanagari
Weight: Book
Copyright: Copyright (c) 2014 by . All rights reserved.
Version: 
FONDName: Gabriela Devanagari
ItalicAngle: 0
UnderlinePosition: -399
UnderlineWidth: 26
Ascent: 819
Descent: 205
UFOAscent: 819
UFODescent: -205
LayerCount: 2
Layer: 0 0 "Back"  1
Layer: 1 0 "Fore"  0
FSType: 0
OS2Version: 0
OS2_WeightWidthSlopeOnly: 0
OS2_UseTypoMetrics: 0
CreationTime: 1405015961
ModificationTime: 1405374946
PfmFamily: 17
TTFWeight: 400
TTFWidth: 5
LineGap: 266
VLineGap: 0
Panose: 2 11 6 0 0 0 0 0 0 0
OS2TypoAscent: 999
OS2TypoAOffset: 0
OS2TypoDescent: -365
OS2TypoDOffset: 0
OS2TypoLinegap: 0
OS2WinAscent: 1121
OS2WinAOffset: 0
OS2WinDescent: 515
OS2WinDOffset: 0
HheadAscent: 1121
HheadAOffset: 0
HheadDescent: -515
HheadDOffset: 0
OS2SubXSize: 954
OS2SubYSize: 887
OS2SubXOff: 0
OS2SubYOff: 272
OS2SupXSize: 954
OS2SupYSize: 887
OS2SupXOff: 0
OS2SupYOff: 682
OS2StrikeYSize: 69
OS2StrikeYPos: 341
OS2Vendor: 'ACEd'
OS2CodePages: 00000001.00000000
OS2UnicodeRanges: 80008023.00002042.00000000.00000000
Lookup: 4 0 0 "halnHalantFormslookup29"  {"halnHalantFormslookup29 subtable"  } ['haln' ('deva' <'dflt' 'MAR ' 'NEP ' > 'dev2' <'dflt' 'MAR ' 'NEP ' > 'DFLT' <'dflt' > ) ]
Lookup: 1 0 0 "LocalizedMrForms_lookup0"  {"LocalizedMrForms_lookup0 subtable"  } ['locl' ('deva' <'MAR ' > 'dev2' <'MAR ' > ) ]
Lookup: 4 0 0 "LocalizedMrHalfFormslookup1"  {"LocalizedMrHalfFormslookup1 subtable"  } ['locl' ('deva' <'MAR ' > 'dev2' <'MAR ' > ) ]
Lookup: 1 0 0 "LocalizedNpFormslookup2"  {"LocalizedNpFormslookup2 subtable"  } ['locl' ('deva' <'NEP ' > 'dev2' <'NEP ' > ) ]
Lookup: 4 0 0 "LocalizedNpFormslookup3"  {"LocalizedNpFormslookup3 subtable"  } ['locl' ('deva' <'NEP ' > 'dev2' <'NEP ' > ) ]
Lookup: 4 0 0 "NuktaFormslookup5"  {"NuktaFormslookup5 subtable"  } ['nukt' ('deva' <'dflt' 'MAR ' 'NEP ' > 'dev2' <'dflt' 'MAR ' 'NEP ' > ) ]

StartChar: .notdef
Encoding: 65536 -1 0
Width: 1065
VWidth: 0
GlyphClass: 2
Flags: W
PickledData: "(dp1
S'com.typemytype.robofont.layerData'
p2
(dp3
S'original'
p4
(dp5
S'name'
p6
S'.notdef'
p7
sS'lib'
p8
(dp9
sS'unicodes'
p10
(tsS'width'
p11
I1065
sS'contours'
p12
(tsS'components'
p13
(tsS'anchors'
p14
(tsssS'com.typemytype.robofont.mark'
p15
(I1
I1
I1
I0
tp16
s."
LayerCount: 2
Fore
SplineSet
200 67 m 257
 866 67 l 257
 866 866 l 257
 200 866 l 257
 200 67 l 257
133 0 m 257
 133 932 l 257
 932 932 l 257
 932 0 l 257
 133 0 l 257
EndSplineSet
Validated: 1
EndChar

StartChar: aadeva
Encoding: 2310 2310 1
Width: 1044
VWidth: 0
GlyphClass: 2
Flags: W
PickledData: "(dp1
S'com.typemytype.robofont.layerData'
p2
(dp3
S'original'
p4
(dp5
S'name'
p6
S'aadeva'
p7
sS'lib'
p8
(dp9
sS'unicodes'
p10
(tsS'width'
p11
I1043
sS'contours'
p12
((dp13
S'points'
p14
((dp15
S'segmentType'
p16
S'qcurve'
p17
sS'x'
I311
sS'smooth'
p18
I01
sS'y'
I47
s(dp19
S'y'
I47
sS'x'
I231
sg18
I00
s(dp20
S'y'
I180
sS'x'
I81
sg18
I00
s(dp21
g16
S'qcurve'
p22
sS'x'
I25
sg18
I00
sS'y'
I300
s(dp23
g16
S'line'
p24
sS'x'
I72
sg18
I00
sS'y'
I340
s(dp25
S'y'
I232
sS'x'
I122
sg18
I00
s(dp26
S'y'
I113
sS'x'
I247
sg18
I00
s(dp27
g16
S'qcurve'
p28
sS'x'
I311
sg18
I01
sS'y'
I113
s(dp29
S'y'
I113
sS'x'
I353
sg18
I00
s(dp30
S'y'
I184
sS'x'
I411
sg18
I00
s(dp31
g16
S'qcurve'
p32
sS'x'
I411
sg18
I01
sS'y'
I233
s(dp33
S'y'
I280
sS'x'
I411
sg18
I00
s(dp34
S'y'
I346
sS'x'
I345
sg18
I00
s(dp35
g16
S'qcurve'
p36
sS'x'
I298
sg18
I01
sS'y'
I346
s(dp37
S'y'
I346
sS'x'
I283
sg18
I00
s(dp38
S'y'
I340
sS'x'
I250
sg18
I00
s(dp39
g16
S'qcurve'
p40
sS'x'
I231
sg18
I00
sS'y'
I333
s(dp41
g16
S'line'
p42
sS'x'
I205
sg18
I00
sS'y'
I393
s(dp43
S'y'
I398
sS'x'
I265
sg18
I00
s(dp44
S'y'
I475
sS'x'
I358
sg18
I00
s(dp45
g16
S'qcurve'
p46
sS'x'
I358
sg18
I01
sS'y'
I519
s(dp47
S'y'
I555
sS'x'
I358
sg18
I00
s(dp48
S'y'
I606
sS'x'
I303
sg18
I00
s(dp49
g16
S'qcurve'
p50
sS'x'
I265
sg18
I01
sS'y'
I606
s(dp51
S'y'
I606
sS'x'
I233
sg18
I00
s(dp52
S'y'
I557
sS'x'
I155
sg18
I00
s(dp53
g16
S'qcurve'
p54
sS'x'
I118
sg18
I00
sS'y'
I513
s(dp55
g16
S'line'
p56
sS'x'
I72
sg18
I00
sS'y'
I559
s(dp57
S'y'
I610
sS'x'
I106
sg18
I00
s(dp58
S'y'
I666
sS'x'
I209
sg18
I00
s(dp59
g16
S'qcurve'
p60
sS'x'
I265
sg18
I01
sS'y'
I666
s(dp61
S'y'
I666
sS'x'
I331
sg18
I00
s(dp62
S'y'
I581
sS'x'
I424
sg18
I00
s(dp63
g16
S'qcurve'
p64
sS'x'
I424
sg18
I01
sS'y'
I519
s(dp65
S'y'
I483
sS'x'
I424
sg18
I00
s(dp66
S'y'
I417
sS'x'
I392
sg18
I00
s(dp67
g16
S'qcurve'
p68
sS'x'
I365
sg18
I00
sS'y'
I393
s(dp69
S'y'
I366
sS'x'
I410
sg18
I00
s(dp70
S'y'
I340
sS'x'
I498
sg18
I00
s(dp71
g16
S'qcurve'
p72
sS'x'
I538
sg18
I01
sS'y'
I340
s(dp73
S'y'
I340
sS'x'
I548
sg18
I00
s(dp74
S'y'
I353
sS'x'
I582
sg18
I00
s(dp75
g16
S'qcurve'
p76
sS'x'
I604
sg18
I00
sS'y'
I366
s(dp77
g16
S'line'
p78
sS'x'
I604
sg18
I00
sS'y'
I606
s(dp79
g16
S'line'
p80
sS'x'
I484
sg18
I00
sS'y'
I606
s(dp81
g16
S'line'
p82
sS'x'
I484
sg18
I00
sS'y'
I666
s(dp83
g16
S'line'
p84
sS'x'
I1057
sg18
I00
sS'y'
I666
s(dp85
g16
S'line'
p86
sS'x'
I1057
sg18
I00
sS'y'
I606
s(dp87
g16
S'line'
p88
sS'x'
I944
sg18
I00
sS'y'
I606
s(dp89
g16
S'line'
p90
sS'x'
I944
sg18
I00
sS'y'
I0
s(dp91
g16
S'line'
p92
sS'x'
I877
sg18
I00
sS'y'
I0
s(dp93
g16
S'line'
p94
sS'x'
I877
sg18
I00
sS'y'
I606
s(dp95
g16
S'line'
p96
sS'x'
I671
sg18
I00
sS'y'
I606
s(dp97
g16
S'line'
p98
sS'x'
I671
sg18
I00
sS'y'
I0
s(dp99
g16
S'line'
p100
sS'x'
I604
sg18
I00
sS'y'
I0
s(dp101
g16
S'line'
p102
sS'x'
I604
sg18
I00
sS'y'
I300
s(dp103
S'y'
I286
sS'x'
I588
sg18
I00
s(dp104
S'y'
I273
sS'x'
I555
sg18
I00
s(dp105
g16
S'qcurve'
p106
sS'x'
I538
sg18
I01
sS'y'
I273
s(dp107
S'y'
I273
sS'x'
I510
sg18
I00
s(dp108
S'y'
I284
sS'x'
I464
sg18
I00
s(dp109
g16
S'qcurve'
p110
sS'x'
I451
sg18
I00
sS'y'
I293
s(dp111
S'y'
I282
sS'x'
I464
sg18
I00
s(dp112
S'y'
I244
sS'x'
I478
sg18
I00
s(dp113
g16
S'qcurve'
p114
sS'x'
I478
sg18
I01
sS'y'
I220
s(dp115
S'y'
I148
sS'x'
I478
sg18
I00
s(dp116
S'y'
I47
sS'x'
I381
sg18
I00
stp117
stp118
sS'components'
p119
(tsS'anchors'
p120
(tsssS'com.typemytype.robofont.mark'
p121
(F0.75
F1
F1
F1
tp122
s."
HStem: 85 63<213.34 358.575> 316 53<443.966 554.182> 365 42<232.399 305.199> 637 40<223.511 339.149>
VStem: 11.4609 48.5391<341.335 400.352> 127 70<524.887 613.062> 373 84<451.196 606.678> 384 85<174.531 308.961>
AnchorPoint: "DVAnchor3" 793 664 basechar 0
LayerCount: 2
Fore
SplineSet
300 85 m 256xbd
 394 85 469 134 469 234 c 256xbd
 469 259 460 288 443 316 c 257
 448 316 l 258
 508 316 558 330 594 361 c 257
 594 0 l 257
 681 0 l 257
 681 621 l 257
 867 621 l 257
 867 0 l 257
 954 0 l 257
 954 621 l 257
 1057 621 l 257
 1057 666 l 257
 484 666 l 257
 484 621 l 257
 594 621 l 257
 594 421 l 257
 555 383 514 369 466 369 c 256
 428 369 399 378 380 398 c 257
 432 427 457 474 457 530 c 256
 457 613 395 677 285 677 c 256
 183 677 127 636 127 582 c 256
 127 536 156 509 192 509 c 256
 200 509 204 511 204 516 c 256
 204 523 197 529 197 561 c 256
 197 604 227 637 286 637 c 256
 333 637 373 605 373 529 c 256xde
 373 447 328 410 242 407 c 256
 235 407 232 399 232 391 c 256
 232 378 239 365 247 365 c 256
 266 365 289 368 306 371 c 257
 361 329 384 289 384 243 c 256
 384 180 351 148 293 148 c 256
 190 148 113.754882812 241.059570312 60 396 c 256
 58.7490234375 399.604492188 53.236328125 401.650390625 43.744140625 401.650390625 c 0
 27.455078125 401.650390625 11.4609375 390.95703125 11.4609375 378.307617188 c 0
 11.4609375 376.518554688 11.771484375 374.661132812 12.435546875 372.747070312 c 256
 71.7626953125 201.74609375 171 85 300 85 c 256xbd
EndSplineSet
Colour: ffff
EndChar

StartChar: aasigndeva
Encoding: 2366 2366 2
Width: 266
VWidth: 0
GlyphClass: 2
Flags: W
PickledData: "(dp1
S'com.typemytype.robofont.layerData'
p2
(dp3
S'original'
p4
(dp5
S'name'
p6
S'aasigndeva'
p7
sS'lib'
p8
(dp9
sS'unicodes'
p10
(tsS'width'
p11
I267
sS'contours'
p12
((dp13
S'points'
p14
((dp15
S'segmentType'
p16
S'line'
p17
sS'x'
I-13
sS'smooth'
p18
I00
sS'y'
I606
s(dp19
g16
S'line'
p20
sS'x'
I-13
sg18
I00
sS'y'
I666
s(dp21
g16
S'line'
p22
sS'x'
I280
sg18
I00
sS'y'
I666
s(dp23
g16
S'line'
p24
sS'x'
I280
sg18
I00
sS'y'
I606
s(dp25
g16
S'line'
p26
sS'x'
I166
sg18
I00
sS'y'
I606
s(dp27
g16
S'line'
p28
sS'x'
I166
sg18
I00
sS'y'
I0
s(dp29
g16
S'line'
p30
sS'x'
I100
sg18
I00
sS'y'
I0
s(dp31
g16
S'line'
p32
sS'x'
I100
sg18
I00
sS'y'
I606
stp33
stp34
sS'components'
p35
(tsS'anchors'
p36
(tsssS'com.typemytype.robofont.mark'
p37
(F0.75
F1
F1
F1
tp38
s."
LayerCount: 2
Fore
SplineSet
-13 621 m 257
 90 621 l 257
 90 0 l 257
 176 0 l 257
 176 621 l 257
 279 621 l 257
 279 666 l 257
 -13 666 l 257
 -13 621 l 257
EndSplineSet
Validated: 9
EndChar

StartChar: abbreviationsigndeva
Encoding: 2416 2416 3
Width: 545
VWidth: 0
GlyphClass: 2
Flags: W
PickledData: "(dp1
S'com.typemytype.robofont.layerData'
p2
(dp3
S'original'
p4
(dp5
S'name'
p6
S'abbreviationsigndeva'
p7
sS'lib'
p8
(dp9
sS'unicodes'
p10
(tsS'width'
p11
I545
sS'contours'
p12
(tsS'components'
p13
(tsS'anchors'
p14
(tsssS'com.typemytype.robofont.mark'
p15
(I1
I1
I1
I0
tp16
s."
LayerCount: 2
Fore
SplineSet
274 381 m 256
 336 381 385 432 385 496 c 256
 385 560 336 610 274 610 c 256
 214 610 164 560 164 496 c 256
 164 432 214 381 274 381 c 256
446 496 m 256
 446 401 369 325 273 325 c 256
 177 325 100 401 100 496 c 256
 100 590 177 666 273 666 c 256
 369 666 446 590 446 496 c 256
EndSplineSet
Validated: 1
EndChar

StartChar: acombiningletterdeva
Encoding: 43242 43242 5
Width: 0
VWidth: 0
GlyphClass: 4
Flags: W
PickledData: "(dp1
S'com.typemytype.robofont.layerData'
p2
(dp3
S'original'
p4
(dp5
S'name'
p6
S'acombiningletterdeva'
p7
sS'lib'
p8
(dp9
sS'unicodes'
p10
(tsS'width'
p11
I0
sS'contours'
p12
(tsS'components'
p13
(tsS'anchors'
p14
(tsssS'com.typemytype.robofont.mark'
p15
(I1
I1
I1
I0
tp16
s."
AnchorPoint: "DVAnchor3" -137 681 mark 0
LayerCount: 2
Fore
SplineSet
-215 750 m 256
 -246 750 -275 760 -303 780 c 256
 -332 800 -356 828 -377 865 c 257
 -379 868 l 257
 -345 884 l 257
 -343 881 l 257
 -326 851 -306 828 -283 811 c 256
 -261 795 -238 787 -215 787 c 256
 -200 787 -188 791 -178 800 c 256
 -168 808 -163 818 -163 830 c 256
 -163 859 -190 883 -222 883 c 256
 -233 883 -245 882 -258 878 c 258
 -261 877 l 257
 -280 911 l 257
 -275 911 l 257
 -253 913 -234 919 -217 929 c 257
 -202 940 -194 950 -194 961 c 256
 -194 981 -212 999 -233 999 c 256
 -261 999 -292 985 -320 958 c 258
 -322 956 l 257
 -354 981 l 257
 -351 984 l 257
 -324 1015 -281 1033 -233 1033 c 256
 -210 1033 -190 1026 -173 1012 c 256
 -156 998 -148 981 -148 961 c 256
 -148 950 -151 940 -158 930 c 256
 -163 922 -169 915 -178 909 c 257
 -161 902 -147 896 -134 892 c 256
 -120 887 -109 885 -100 885 c 256
 -95 885 -89 886 -81 888 c 257
 -74 891 -65 894 -56 898 c 257
 -56 999 l 257
 -122 999 l 257
 -122 1033 l 257
 52 1033 l 257
 52 999 l 257
 -12 999 l 257
 -12 729 l 257
 -56 729 l 257
 -56 860 l 257
 -60 857 -64 855 -69 854 c 256
 -76 852 -82 851 -89 851 c 256
 -100 851 -109 852 -118 853 c 258
 -124 855 l 258
 -123 854 -123 852 -123 851 c 256
 -120 845 -119 838 -119 831 c 256
 -119 808 -128 789 -147 774 c 256
 -166 758 -188 750 -215 750 c 256
EndSplineSet
Validated: 1
EndChar

StartChar: acutedeva
Encoding: 2388 2388 6
Width: 0
VWidth: 0
GlyphClass: 4
Flags: W
PickledData: "(dp1
S'com.typemytype.robofont.layerData'
p2
(dp3
S'original'
p4
(dp5
S'name'
p6
S'acutedeva'
p7
sS'lib'
p8
(dp9
sS'unicodes'
p10
(tsS'width'
p11
I0
sS'contours'
p12
(tsS'components'
p13
(tsS'anchors'
p14
(tsssS'com.typemytype.robofont.mark'
p15
(I1
I1
I1
I0
tp16
s."
AnchorPoint: "DVAnchor3" -143 665 mark 0
LayerCount: 2
Fore
SplineSet
-219 740 m 257
 -188 704 l 257
 -70 762 l 258
 -27 783 -12 807 -12 838 c 256
 -12 868 -29 891 -56 903 c 257
 -219 740 l 257
EndSplineSet
Validated: 9
EndChar

StartChar: adeva
Encoding: 2309 2309 7
Width: 768
VWidth: 0
GlyphClass: 2
Flags: W
PickledData: "(dp1
S'com.typemytype.robofont.layerData'
p2
(dp3
S'original'
p4
(dp5
S'name'
p6
S'adeva'
p7
sS'lib'
p8
(dp9
sS'unicodes'
p10
(tsS'width'
p11
I768
sS'contours'
p12
((dp13
S'points'
p14
((dp15
S'y'
I47
sS'x'
I229
sS'smooth'
p16
I00
s(dp17
S'y'
I180
sS'x'
I79
sg16
I00
s(dp18
S'segmentType'
p19
S'qcurve'
p20
sS'x'
I23
sg16
I00
sS'y'
I300
s(dp21
g19
S'line'
p22
sS'x'
I72
sg16
I00
sS'y'
I328
s(dp23
S'y'
I226
sS'x'
I120
sg16
I00
s(dp24
S'y'
I113
sS'x'
I244
sg16
I00
s(dp25
g19
S'qcurve'
p26
sS'x'
I309
sg16
I01
sS'y'
I113
s(dp27
S'y'
I113
sS'x'
I350
sg16
I00
s(dp28
S'y'
I174
sS'x'
I409
sg16
I00
s(dp29
g19
S'qcurve'
p30
sS'x'
I409
sg16
I01
sS'y'
I218
s(dp31
S'y'
I272
sS'x'
I409
sg16
I00
s(dp32
S'y'
I346
sS'x'
I342
sg16
I00
s(dp33
g19
S'qcurve'
p34
sS'x'
I296
sg16
I01
sS'y'
I346
s(dp35
S'y'
I346
sS'x'
I281
sg16
I00
s(dp36
S'y'
I340
sS'x'
I248
sg16
I00
s(dp37
g19
S'qcurve'
p38
sS'x'
I229
sg16
I00
sS'y'
I333
s(dp39
g19
S'line'
p40
sS'x'
I202
sg16
I00
sS'y'
I393
s(dp41
S'y'
I398
sS'x'
I262
sg16
I00
s(dp42
S'y'
I471
sS'x'
I354
sg16
I00
s(dp43
g19
S'qcurve'
p44
sS'x'
I354
sg16
I01
sS'y'
I513
s(dp45
S'y'
I551
sS'x'
I354
sg16
I00
s(dp46
S'y'
I606
sS'x'
I308
sg16
I00
s(dp47
g19
S'qcurve'
p48
sS'x'
I276
sg16
I01
sS'y'
I606
s(dp49
S'y'
I606
sS'x'
I237
sg16
I00
s(dp50
S'y'
I557
sS'x'
I153
sg16
I00
s(dp51
g19
S'qcurve'
p52
sS'x'
I116
sg16
I00
sS'y'
I513
s(dp53
g19
S'line'
p54
sS'x'
I69
sg16
I00
sS'y'
I559
s(dp55
S'y'
I610
sS'x'
I104
sg16
I00
s(dp56
S'y'
I666
sS'x'
I213
sg16
I00
s(dp57
g19
S'qcurve'
p58
sS'x'
I276
sg16
I01
sS'y'
I666
s(dp59
S'y'
I666
sS'x'
I337
sg16
I00
s(dp60
S'y'
I577
sS'x'
I422
sg16
I00
s(dp61
g19
S'qcurve'
p62
sS'x'
I422
sg16
I01
sS'y'
I513
s(dp63
S'y'
I479
sS'x'
I422
sg16
I00
s(dp64
S'y'
I417
sS'x'
I390
sg16
I00
s(dp65
g19
S'qcurve'
p66
sS'x'
I362
sg16
I00
sS'y'
I393
s(dp67
S'y'
I364
sS'x'
I413
sg16
I00
s(dp68
S'y'
I333
sS'x'
I491
sg16
I00
s(dp69
g19
S'qcurve'
p70
sS'x'
I515
sg16
I01
sS'y'
I333
s(dp71
S'y'
I333
sS'x'
I530
sg16
I00
s(dp72
S'y'
I350
sS'x'
I574
sg16
I00
s(dp73
g19
S'qcurve'
p74
sS'x'
I602
sg16
I00
sS'y'
I366
s(dp75
g19
S'line'
p76
sS'x'
I602
sg16
I00
sS'y'
I606
s(dp77
g19
S'line'
p78
sS'x'
I482
sg16
I00
sS'y'
I606
s(dp79
g19
S'line'
p80
sS'x'
I482
sg16
I00
sS'y'
I666
s(dp81
g19
S'line'
p82
sS'x'
I782
sg16
I00
sS'y'
I666
s(dp83
g19
S'line'
p84
sS'x'
I782
sg16
I00
sS'y'
I606
s(dp85
g19
S'line'
p86
sS'x'
I668
sg16
I00
sS'y'
I606
s(dp87
g19
S'line'
p88
sS'x'
I668
sg16
I00
sS'y'
I0
s(dp89
g19
S'line'
p90
sS'x'
I602
sg16
I00
sS'y'
I0
s(dp91
g19
S'line'
p92
sS'x'
I602
sg16
I00
sS'y'
I300
s(dp93
S'y'
I286
sS'x'
I586
sg16
I00
s(dp94
S'y'
I273
sS'x'
I553
sg16
I00
s(dp95
g19
S'qcurve'
p96
sS'x'
I535
sg16
I01
sS'y'
I273
s(dp97
S'y'
I273
sS'x'
I507
sg16
I00
s(dp98
S'y'
I284
sS'x'
I462
sg16
I00
s(dp99
g19
S'qcurve'
p100
sS'x'
I449
sg16
I00
sS'y'
I293
s(dp101
S'y'
I282
sS'x'
I462
sg16
I00
s(dp102
S'y'
I244
sS'x'
I475
sg16
I00
s(dp103
g19
S'qcurve'
p104
sS'x'
I475
sg16
I01
sS'y'
I220
s(dp105
S'y'
I148
sS'x'
I475
sg16
I00
s(dp106
S'y'
I47
sS'x'
I378
sg16
I00
s(dp107
g19
S'qcurve'
p108
sS'x'
I309
sg16
I01
sS'y'
I47
stp109
stp110
sS'components'
p111
(tsS'anchors'
p112
(tsssS'com.typemytype.robofont.mark'
p113
(F0.75
F1
F1
F1
tp114
s."
HStem: 85 63<203.919 358.181> 316 53<443.966 552.771> 365 42<232.399 305.199> 637 40<223.511 339.149>
VStem: 11.4609 48.5391<321.718 380.352> 127 70<524.887 613.062> 373 84<451.196 606.678> 384 85<175.31 308.961>
AnchorPoint: "DVAnchor3" 634 664 basechar 0
LayerCount: 2
Back
SplineSet
242 407 m 256
 235 407 232 399 232 391 c 256
 232 378 239 365 247 365 c 256
 266 365 289 368 306 371 c 257
 361 329 384 289 384 243 c 256
 384 180 351 148 293 148 c 256
 178 148 67 265 67 407 c 256
 67 414 60 417 49 417 c 256
 36 417 22 411 22 398 c 256
 22 237 159 85 300 85 c 256
 394 85 469 134 469 234 c 256
 469 259 460 288 443 316 c 257
 507 316 555 330 591 361 c 257
 591 0 l 257
 678 0 l 257
 678 621 l 257
 781 621 l 257
 781 666 l 257
 482 666 l 257
 482 621 l 257
 591 621 l 257
 591 421 l 257
 553 383 513 369 466 369 c 256
 428 369 399 378 380 398 c 257
 432 427 457 474 457 530 c 256
 457 613 395 677 285 677 c 256
 183 677 127 636 127 582 c 256
 127 536 156 509 192 509 c 256
 200 509 204 511 204 516 c 256
 204 523 197 529 197 561 c 256
 197 604 227 637 286 637 c 256
 333 637 373 605 373 529 c 256
 373 447 328 410 242 407 c 256
EndSplineSet
Fore
SplineSet
300 85 m 260xbd
 393 85 469 134 469 234 c 256xbd
 469 259 460 288 443 316 c 257
 507 316 555 330 591 361 c 257
 591 0 l 257
 678 0 l 257
 678 621 l 257
 781 621 l 257
 781 666 l 257
 482 666 l 257
 482 621 l 257
 591 621 l 257
 591 421 l 257
 553 383 513 369 466 369 c 256
 428 369 399 378 380 398 c 257
 432 427 457 474 457 530 c 256
 457 613 395 677 285 677 c 256
 183 677 127 636 127 582 c 256
 127 536 156 509 192 509 c 256
 200 509 204 511 204 516 c 256
 204 523 197 529 197 561 c 256
 197 604 227 637 286 637 c 256
 333 637 373 605 373 529 c 256xde
 373 447 328 410 242 407 c 256
 235 407 232 399 232 391 c 256
 232 378 239 365 247 365 c 256
 266 365 289 368 306 371 c 257
 361 329 384 289 384 243 c 256
 384 180 350 148 293 148 c 260
 190 148 113.754882812 221.059570312 60 376 c 260
 58.7490234375 379.604492188 53.236328125 381.650390625 43.744140625 381.650390625 c 4
 27.455078125 381.650390625 11.4609375 370.95703125 11.4609375 358.307617188 c 4
 11.4609375 356.518554688 11.771484375 354.661132812 12.435546875 352.747070312 c 260
 71.7626953125 181.74609375 171 85 300 85 c 260xbd
EndSplineSet
Colour: ffff
EndChar

StartChar: aisign_ra_virama.alt1
Encoding: 65537 -1 9
Width: 0
VWidth: 0
GlyphClass: 4
Flags: W
PickledData: "(dp1
S'com.typemytype.robofont.layerData'
p2
(dp3
S'original'
p4
(dp5
S'name'
p6
S'aisign_ra_virama.alt1'
p7
sS'lib'
p8
(dp9
sS'unicodes'
p10
(tsS'width'
p11
I0
sS'contours'
p12
((dp13
S'points'
p14
((dp15
S'segmentType'
p16
S'line'
p17
sS'x'
I-172
sS'smooth'
p18
I00
sS'y'
I666
s(dp19
g16
S'line'
p20
sS'x'
I-465
sg18
I00
sS'y'
I799
s(dp21
g16
S'line'
p22
sS'x'
I-431
sg18
I00
sS'y'
I866
s(dp23
g16
S'line'
p24
sS'x'
I-125
sg18
I00
sS'y'
I672
s(dp25
g16
S'line'
p26
sS'x'
I-292
sg18
I00
sS'y'
I959
s(dp27
g16
S'line'
p28
sS'x'
I-225
sg18
I00
sS'y'
I999
s(dp29
g16
S'line'
p30
sS'x'
I-165
sg18
I00
sS'y'
I859
s(dp31
S'y'
F912.60000000000002
sS'x'
F-138.19999999999999
sg18
I00
s(dp32
S'y'
F945
sS'x'
F-83.319999999999993
sg18
I00
s(dp33
g16
S'curve'
p34
sS'x'
I-19
sg18
I01
sS'y'
I945
s(dp35
S'y'
F945
sS'x'
F6.46
sg18
I00
s(dp36
S'y'
F941.38
sS'x'
F29.539999999999999
sg18
I00
s(dp37
g16
S'curve'
p38
sS'x'
I55
sg18
I00
sS'y'
I932
s(dp39
g16
S'line'
p40
sS'x'
I55
sg18
I00
sS'y'
I872
s(dp41
S'y'
F886.74000000000001
sS'x'
F17.48
sg18
I00
s(dp42
S'y'
F892
sS'x'
F-5.5999999999999996
sg18
I00
s(dp43
g16
S'curve'
p44
sS'x'
I-19
sg18
I01
sS'y'
I892
s(dp45
S'y'
F892
sS'x'
F-80.640000000000001
sg18
I00
s(dp46
S'y'
F848.27999999999997
sS'x'
F-132
sg18
I00
s(dp47
g16
S'curve'
p48
sS'x'
I-132
sg18
I01
sS'y'
I792
s(dp49
S'y'
F781.27999999999997
sS'x'
F-132
sg18
I00
s(dp50
S'y'
F762.82000000000005
sS'x'
F-126.73999999999999
sg18
I00
s(dp51
g16
S'curve'
p52
sS'x'
I-112
sg18
I00
sS'y'
I732
s(dp53
g16
S'line'
p54
sS'x'
I-85
sg18
I00
sS'y'
I666
stp55
stp56
sS'components'
p57
(tsS'anchors'
p58
(tsssS'com.typemytype.robofont.mark'
p59
(F0.1508399248
F0.30573034290000001
F0.19466084240000001
F1
tp60
s."
AnchorPoint: "DVAnchor3" -111 671 mark 0
LayerCount: 2
Fore
SplineSet
-168 799 m 256
 -168 791 -167 784 -166 776 c 257
 -132 761 l 257
 -135 771 -136 780 -136 789 c 256
 -136 858 -84 886 -43 886 c 256
 14 886 23 861 42 861 c 256
 51 861 55 870 55 886 c 256
 55 922 21 945 -33 945 c 256
 -88 945 -168 908 -168 799 c 256
-86 666 m 257
 -210 988 l 258
 -213 996 -216 998 -224 998 c 256
 -248 998 -303 975 -303 958 c 256
 -303 955 -301 952 -300 949 c 258
 -145 694 l 257
 -408 868 l 258
 -411 868 -414 873 -418 873 c 256
 -428 873 -459 830 -459 802 c 256
 -459 797 -455 793 -450 790 c 258
 -172 666 l 257
 -86 666 l 257
EndSplineSet
Validated: 5
Ligature2: "AboveBaseSubstitutionslookup subtable" aisigndeva radeva_viramadeva
EndChar

StartChar: aisign_ra_virama_anusvara
Encoding: 65538 -1 10
Width: 0
VWidth: 0
GlyphClass: 4
Flags: W
PickledData: "(dp1
S'com.typemytype.robofont.layerData'
p2
(dp3
S'original'
p4
(dp5
S'name'
p6
S'aisign_ra_virama_anusvara'
p7
sS'lib'
p8
(dp9
sS'unicodes'
p10
(tsS'width'
p11
I0
sS'contours'
p12
((dp13
S'points'
p14
((dp15
S'segmentType'
p16
S'line'
p17
sS'x'
I-458
sS'smooth'
p18
I00
sS'y'
I806
s(dp19
g16
S'line'
p20
sS'x'
I-431
sg18
I00
sS'y'
I866
s(dp21
g16
S'line'
p22
sS'x'
I-125
sg18
I00
sS'y'
I672
s(dp23
g16
S'line'
p24
sS'x'
I-292
sg18
I00
sS'y'
I959
s(dp25
g16
S'line'
p26
sS'x'
I-225
sg18
I00
sS'y'
I999
s(dp27
g16
S'line'
p28
sS'x'
I-165
sg18
I00
sS'y'
I859
s(dp29
S'y'
I913
sS'x'
I-138
sg18
I00
s(dp30
S'y'
I945
sS'x'
I-83
sg18
I00
s(dp31
g16
S'curve'
p32
sS'x'
I-19
sg18
I01
sS'y'
I945
s(dp33
S'y'
I945
sS'x'
I6
sg18
I00
s(dp34
S'y'
I941
sS'x'
I30
sg18
I00
s(dp35
g16
S'curve'
p36
sS'x'
I55
sg18
I00
sS'y'
I932
s(dp37
g16
S'line'
p38
sS'x'
I55
sg18
I00
sS'y'
I872
s(dp39
S'y'
I887
sS'x'
I17
sg18
I00
s(dp40
S'y'
I892
sS'x'
I-6
sg18
I00
s(dp41
g16
S'curve'
p42
sS'x'
I-19
sg18
I01
sS'y'
I892
s(dp43
S'y'
I892
sS'x'
I-81
sg18
I00
s(dp44
S'y'
I848
sS'x'
I-132
sg18
I00
s(dp45
g16
S'curve'
p46
sS'x'
I-132
sg18
I01
sS'y'
I792
s(dp47
S'y'
I781
sS'x'
I-132
sg18
I00
s(dp48
S'y'
I763
sS'x'
I-127
sg18
I00
s(dp49
g16
S'curve'
p50
sS'x'
I-112
sg18
I00
sS'y'
I732
s(dp51
g16
S'line'
p52
sS'x'
I-85
sg18
I00
sS'y'
I666
s(dp53
g16
S'line'
p54
sS'x'
I-172
sg18
I00
sS'y'
I666
stp55
s(dp56
g14
((dp57
g16
S'line'
p58
sS'x'
I-52
sg18
I00
sS'y'
I739
s(dp59
g16
S'line'
p60
sS'x'
I-52
sg18
I00
sS'y'
I812
s(dp61
g16
S'line'
p62
sS'x'
I21
sg18
I00
sS'y'
I812
s(dp63
g16
S'line'
p64
sS'x'
I21
sg18
I00
sS'y'
I739
stp65
stp66
sS'components'
p67
(tsS'anchors'
p68
(tsssS'com.typemytype.robofont.mark'
p69
(F0.1508399248
F0.30573034290000001
F0.19466084240000001
F1
tp70
s."
AnchorPoint: "DVAnchor3" -143 665 mark 0
LayerCount: 2
Fore
SplineSet
-79 786 m 256
 -79 766 -51 737 -34 737 c 256
 -15 737 13 766 13 786 c 256
 13 805 -15 835 -34 835 c 256
 -52 835 -79 805 -79 786 c 256
-174 776 m 257
 -140 761 l 257
 -143 771 -144 780 -144 789 c 256
 -144 858 -92 886 -51 886 c 256
 6 886 15 861 34 861 c 256
 43 861 47 870 47 886 c 256
 47 922 13 945 -41 945 c 256
 -96 945 -176 908 -176 799 c 256
 -176 791 -175 784 -174 776 c 257
-110 666 m 257
 -209 988 l 258
 -212 996 -215 998 -223 998 c 256
 -247 998 -302 975 -302 958 c 256
 -302 955 -300 952 -299 949 c 258
 -165 703 l 257
 -407 903 l 258
 -410 906 -413 908 -417 908 c 256
 -430 908 -473 865 -473 837 c 256
 -473 832 -469 828 -464 825 c 258
 -176 666 l 257
 -110 666 l 257
EndSplineSet
Validated: 5
Ligature2: "AboveBaseSubstitutionslookup subtable" aisigndeva radeva_viramadeva anusvaradeva
EndChar

StartChar: aisigndeva
Encoding: 2376 2376 11
Width: 0
VWidth: 0
GlyphClass: 4
Flags: HW
PickledData: "(dp1
S'com.typemytype.robofont.layerData'
p2
(dp3
S'original'
p4
(dp5
S'name'
p6
S'aisigndeva'
p7
sS'lib'
p8
(dp9
sS'unicodes'
p10
(tsS'width'
p11
I0
sS'contours'
p12
((dp13
S'points'
p14
((dp15
S'segmentType'
p16
S'line'
p17
sS'x'
I-192
sS'smooth'
p18
I00
sS'y'
I666
s(dp19
g16
S'line'
p20
sS'x'
I-478
sg18
I00
sS'y'
I846
s(dp21
g16
S'line'
p22
sS'x'
I-438
sg18
I00
sS'y'
I905
s(dp23
g16
S'line'
p24
sS'x'
I-145
sg18
I00
sS'y'
I672
s(dp25
g16
S'line'
p26
sS'x'
I-285
sg18
I00
sS'y'
I959
s(dp27
g16
S'line'
p28
sS'x'
I-218
sg18
I00
sS'y'
I999
s(dp29
g16
S'line'
p30
sS'x'
I-105
sg18
I00
sS'y'
I666
stp31
stp32
sS'components'
p33
(tsS'anchors'
p34
(tsssS'com.typemytype.robofont.mark'
p35
(F0.75
F1
F1
F1
tp36
s."
AnchorPoint: "DVAnchor3" -148 665 mark 0
LayerCount: 2
Back
SplineSet
-316 935 m 260
 -243 935 -200 800 -183 666 c 261
 -183 666 l 261
 -106 666 l 261
 -146 914 -220 975 -326 975 c 260
 -397 975 -440 940 -440 896 c 260
 -440 847 -399 822 -361 822 c 260
 -353 822 -345 824 -345 831 c 260
 -345 839 -362 854 -362 891 c 260
 -362 914 -348 935 -316 935 c 260
-102 666 m 17
 -181 666 l 257
 -223 720 -286 767 -366 767 c 256
 -406 767 -412 754 -429 754 c 256
 -442 754 -446 763 -446 775 c 256
 -446 802 -422 838 -360 838 c 256
 -286 838 -210 801 -168 720 c 257
 -163 721 l 257
 -102 666 l 17
-335 904 m 256
 -375 904 -381 890 -398 890 c 256
 -411 890 -415 900 -415 912 c 256
 -415 939 -372 975 -320 975 c 256
 -214 975 -120 914 -102 666 c 257
 -156 666 l 257
 -156 666 l 257
 -161 800 -233 904 -335 904 c 256
EndSplineSet
Fore
SplineSet
-356 838 m 260
 -428 838 -456 790 -456 763 c 260
 -456 755 -453 748 -443 748 c 260
 -426 748 -406 767 -361 767 c 260
 -281 767 -224 720 -182 666 c 261
 -107 666 l 13
 -168 721 l 261
 -173 720 l 261
 -215 801 -282 838 -356 838 c 260
-330 904 m 260
 -228 904 -166 800 -161 666 c 261
 -161 666 l 261
 -107 666 l 261
 -125 914 -219 975 -325 975 c 260
 -397 975 -425 927 -425 900 c 260
 -425 892 -422 885 -412 885 c 260
 -395 885 -375 904 -330 904 c 260
EndSplineSet
Colour: ff00
EndChar

StartChar: aisigndeva_anusvaradeva
Encoding: 65539 -1 12
Width: 0
VWidth: 0
GlyphClass: 4
Flags: HW
PickledData: "(dp1
S'com.typemytype.robofont.layerData'
p2
(dp3
S'original'
p4
(dp5
S'name'
p6
S'aisigndeva_anusvaradeva'
p7
sS'lib'
p8
(dp9
sS'unicodes'
p10
(tsS'width'
p11
I0
sS'contours'
p12
((dp13
S'points'
p14
((dp15
S'segmentType'
p16
S'line'
p17
sS'x'
I-112
sS'smooth'
p18
I00
sS'y'
I832
s(dp19
g16
S'line'
p20
sS'x'
I-112
sg18
I00
sS'y'
I925
s(dp21
g16
S'line'
p22
sS'x'
I-12
sg18
I00
sS'y'
I925
s(dp23
g16
S'line'
p24
sS'x'
I-12
sg18
I00
sS'y'
I832
stp25
s(dp26
g14
((dp27
g16
S'line'
p28
sS'x'
I-192
sg18
I00
sS'y'
I666
s(dp29
g16
S'line'
p30
sS'x'
I-478
sg18
I00
sS'y'
I806
s(dp31
g16
S'line'
p32
sS'x'
I-445
sg18
I00
sS'y'
I866
s(dp33
g16
S'line'
p34
sS'x'
I-145
sg18
I00
sS'y'
I672
s(dp35
g16
S'line'
p36
sS'x'
I-292
sg18
I00
sS'y'
I959
s(dp37
g16
S'line'
p38
sS'x'
I-225
sg18
I00
sS'y'
I999
s(dp39
g16
S'line'
p40
sS'x'
I-105
sg18
I00
sS'y'
I666
stp41
stp42
sS'components'
p43
(tsS'anchors'
p44
(tsssS'com.typemytype.robofont.mark'
p45
(F0.75
F1
F1
F1
tp46
s."
AnchorPoint: "DVAnchor3" -143 665 mark 0
LayerCount: 2
Back
SplineSet
-113 878 m 256
 -113 856 -82 824 -63 824 c 256
 -42 824 -11 856 -11 878 c 256
 -11 899 -42 932 -63 932 c 256
 -83 932 -113 899 -113 878 c 256
-110 666 m 257
 -209 988 l 258
 -212 996 -215 998 -223 998 c 256
 -247 998 -302 975 -302 958 c 256
 -302 955 -300 952 -299 949 c 258
 -165 703 l 257
 -407 903 l 258
 -410 906 -413 908 -417 908 c 256
 -430 908 -473 865 -473 837 c 256
 -473 832 -469 828 -464 825 c 258
 -176 666 l 257
 -110 666 l 257
EndSplineSet
Fore
SplineSet
-356 838 m 256
 -428 838 -456 790 -456 763 c 256
 -456 755 -453 748 -443 748 c 256
 -426 748 -406 767 -361 767 c 256
 -281 767 -224 720 -182 666 c 257
 -107 666 l 9
 -168 721 l 257
 -173 720 l 257
 -215 801 -282 838 -356 838 c 256
-330 904 m 256
 -228 904 -166 800 -161 666 c 257
 -161 666 l 257
 -107 666 l 257
 -125 914 -219 975 -325 975 c 256
 -397 975 -425 927 -425 900 c 256
 -425 892 -422 885 -412 885 c 256
 -395 885 -375 904 -330 904 c 256
-83 878 m 256
 -83 856 -52 824 -33 824 c 256
 -12 824 19 856 19 878 c 256
 19 899 -12 932 -33 932 c 256
 -53 932 -83 899 -83 878 c 256
EndSplineSet
LCarets2: 1 0 
Ligature2: "AboveBaseSubstitutionslookup subtable" aisigndeva anusvaradeva
Colour: ff0000
EndChar

StartChar: ampersand
Encoding: 38 38 13
Width: 684
VWidth: 0
GlyphClass: 2
Flags: W
PickledData: "(dp1
S'com.typemytype.robofont.layerData'
p2
(dp3
S'original'
p4
(dp5
S'name'
p6
S'ampersand'
p7
sS'lib'
p8
(dp9
sS'unicodes'
p10
(tsS'width'
p11
I761
sS'contours'
p12
(tsS'components'
p13
(tsS'anchors'
p14
(tsssS'com.typemytype.robofont.mark'
p15
(I1
I1
I1
I0
tp16
s."
LayerCount: 2
Fore
SplineSet
310 385 m 257
 319 385 324 397 324 406 c 256
 324 415 318 428 309 428 c 256
 243 428 184 475 184 571 c 256
 184 637 228 702 313 702 c 256
 373 702 408 668 408 616 c 256
 408 570 386 556 386 548 c 256
 386 541 393 538 408 538 c 256
 463 538 497 574 497 627 c 256
 497 699 420 750 325 750 c 256
 156 750 72 657 72 565 c 256
 72 471 130 417 217 395 c 257
 94 364 31 288 31 197 c 256
 31 61 135 -14 292 -14 c 256
 469 -14 530 83 530 162 c 256
 530 204 511 242 481 268 c 257
 572 275 684 301 684 403 c 256
 684 468 633 509 575 509 c 256
 557 509 530 504 530 494 c 256
 530 479 585 462 585 396 c 256
 585 249 250 360 250 243 c 256
 250 227 261 210 272 210 c 256
 286 210 294 255 392 263 c 256
 402 263 416 264 431 264 c 257
 444 246 456 219 456 180 c 256
 456 89 388 40 298 40 c 256
 203 40 147 119 147 198 c 256
 147 276 197 356 310 385 c 257
EndSplineSet
Validated: 9
EndChar

StartChar: anudattadeva
Encoding: 2386 2386 14
Width: 0
VWidth: 0
GlyphClass: 4
Flags: W
PickledData: "(dp1
S'com.typemytype.robofont.layerData'
p2
(dp3
S'original'
p4
(dp5
S'name'
p6
S'anudattadeva'
p7
sS'lib'
p8
(dp9
sS'unicodes'
p10
(tsS'width'
p11
I0
sS'contours'
p12
(tsS'components'
p13
(tsS'anchors'
p14
(tsssS'com.typemytype.robofont.mark'
p15
(I1
I1
I1
I0
tp16
s."
LayerCount: 2
Fore
SplineSet
-637 -159 m 257
 -637 -99 l 257
 -111 -99 l 257
 -111 -159 l 257
 -637 -159 l 257
EndSplineSet
Validated: 1
EndChar

StartChar: anusvaradeva
Encoding: 2306 2306 15
Width: 0
VWidth: 0
GlyphClass: 4
Flags: HW
PickledData: "(dp1
S'com.typemytype.robofont.layerData'
p2
(dp3
S'original'
p4
(dp5
S'name'
p6
S'anusvaradeva'
p7
sS'lib'
p8
(dp9
sS'unicodes'
p10
(tsS'width'
p11
I0
sS'contours'
p12
((dp13
S'points'
p14
((dp15
S'segmentType'
p16
S'line'
p17
sS'x'
I-177
sS'smooth'
p18
I00
sS'y'
I832
s(dp19
g16
S'line'
p20
sS'x'
I-177
sg18
I00
sS'y'
I925
s(dp21
g16
S'line'
p22
sS'x'
I-77
sg18
I00
sS'y'
I925
s(dp23
g16
S'line'
p24
sS'x'
I-77
sg18
I00
sS'y'
I832
stp25
stp26
sS'components'
p27
(tsS'anchors'
p28
(tsssS'com.typemytype.robofont.mark'
p29
(F0.75
F1
F1
F1
tp30
s."
AnchorPoint: "DVAnchor3" -143 666 mark 0
LayerCount: 2
Back
SplineSet
-193 878 m 260
 -193 856 -162 824 -143 824 c 260
 -122 824 -91 856 -91 878 c 260
 -91 899 -122 932 -143 932 c 260
 -163 932 -193 899 -193 878 c 260
EndSplineSet
Fore
SplineSet
-201 878 m 260
 -201 853 -165 816 -143 816 c 260
 -119 816 -83 853 -83 878 c 260
 -83 902 -119 940 -143 940 c 260
 -166 940 -201 902 -201 878 c 260
EndSplineSet
Colour: ff00
EndChar

StartChar: apostrophe
Encoding: 700 700 16
Width: 314
VWidth: 0
GlyphClass: 2
Flags: W
PickledData: "(dp1
S'com.typemytype.robofont.layerData'
p2
(dp3
S'original'
p4
(dp5
S'name'
p6
S'apostrophe'
p7
sS'lib'
p8
(dp9
sS'unicodes'
p10
(tsS'width'
p11
I314
sS'contours'
p12
(tsS'components'
p13
(tsS'anchors'
p14
(tsssS'com.typemytype.robofont.mark'
p15
(I1
I1
I1
I0
tp16
s."
LayerCount: 2
Fore
SplineSet
218 771 m 258
 218 728 214 695 206 665 c 256
 198 634 187 610 171 583 c 257
 97 583 l 257
 133 635 154 689 154 739 c 257
 101 739 l 257
 101 858 l 257
 218 858 l 257
 218 771 l 258
EndSplineSet
Validated: 1
EndChar

StartChar: asciicircum
Encoding: 94 94 17
Width: 636
VWidth: 0
GlyphClass: 2
Flags: W
PickledData: "(dp1
S'com.typemytype.robofont.layerData'
p2
(dp3
S'original'
p4
(dp5
S'name'
p6
S'asciicircum'
p7
sS'lib'
p8
(dp9
sS'unicodes'
p10
(tsS'width'
p11
I671
sS'contours'
p12
(tsS'components'
p13
(tsS'anchors'
p14
(tsssS'com.typemytype.robofont.mark'
p15
(I1
I1
I1
I0
tp16
s."
LayerCount: 2
Fore
SplineSet
273 735 m 257
 98 408 l 257
 181 408 l 257
 316 669 l 257
 454 408 l 257
 537 408 l 257
 361 735 l 257
 273 735 l 257
EndSplineSet
Validated: 9
EndChar

StartChar: asciitilde
Encoding: 126 126 18
Width: 636
VWidth: 0
GlyphClass: 2
Flags: W
PickledData: "(dp1
S'com.typemytype.robofont.layerData'
p2
(dp3
S'original'
p4
(dp5
S'name'
p6
S'asciitilde'
p7
sS'lib'
p8
(dp9
sS'unicodes'
p10
(tsS'width'
p11
I721
sS'contours'
p12
(tsS'components'
p13
(tsS'anchors'
p14
(tsssS'com.typemytype.robofont.mark'
p15
(I1
I1
I1
I0
tp16
s."
LayerCount: 2
Fore
SplineSet
535 408 m 257
 507 431 471 440 435 440 c 256
 348 440 290 375 205 375 c 256
 168 375 132 386 101 408 c 257
 101 330 l 257
 129 307 165 297 201 297 c 256
 288 297 346 364 431 364 c 256
 468 364 504 351 535 330 c 257
 535 408 l 257
EndSplineSet
Validated: 9
EndChar

StartChar: asterisk
Encoding: 42 42 20
Width: 588
VWidth: 0
GlyphClass: 2
Flags: W
PickledData: "(dp1
S'com.typemytype.robofont.layerData'
p2
(dp3
S'original'
p4
(dp5
S'name'
p6
S'asterisk'
p7
sS'lib'
p8
(dp9
sS'unicodes'
p10
(tsS'width'
p11
I559
sS'contours'
p12
(tsS'components'
p13
(tsS'anchors'
p14
(tsssS'com.typemytype.robofont.mark'
p15
(I1
I1
I1
I0
tp16
s."
LayerCount: 2
Fore
SplineSet
516 673 m 256
 516 701 498 723 468 730 c 257
 398 692 347 666 314 648 c 257
 322 685 331 741 346 819 c 257
 334 840 315 850 294 850 c 256
 271 850 254 840 242 819 c 257
 257 741 266 685 273 648 c 257
 240 667 188 692 120 731 c 257
 91 725 72 701 72 671 c 256
 72 657 77 644 88 632 c 257
 166 623 222 613 260 608 c 257
 232 583 193 542 134 488 c 257
 134 457 153 422 191 422 c 256
 200 422 209 424 218 428 c 257
 251 500 278 550 294 585 c 257
 309 550 336 500 370 427 c 257
 378 423 386 421 395 421 c 256
 427 421 453 449 453 488 c 257
 394 543 354 583 327 608 c 257
 365 613 421 623 501 632 c 257
 511 644 516 657 516 673 c 256
EndSplineSet
Validated: 9
EndChar

StartChar: at
Encoding: 64 64 21
Width: 913
VWidth: 0
GlyphClass: 2
Flags: W
PickledData: "(dp1
S'com.typemytype.robofont.layerData'
p2
(dp3
S'original'
p4
(dp5
S'name'
p6
S'at'
p7
sS'lib'
p8
(dp9
sS'unicodes'
p10
(tsS'width'
p11
I1043
sS'contours'
p12
(tsS'components'
p13
(tsS'anchors'
p14
(tsssS'com.typemytype.robofont.mark'
p15
(I1
I1
I1
I0
tp16
s."
LayerCount: 2
Fore
SplineSet
463 463 m 256
 485 463 506 457 528 439 c 257
 511 234 l 257
 480 190 445 171 418 171 c 256
 374 171 339 217 339 288 c 256
 339 371 379 463 463 463 c 256
857 323 m 256
 857 528 714 691 490 691 c 256
 248 691 56 493 56 256 c 256
 56 50 200 -113 424 -113 c 256
 506 -113 571 -91 638 -51 c 257
 613 -8 l 257
 556 -43 499 -54 429 -54 c 256
 255 -54 155 77 155 254 c 256
 155 464 290 633 485 633 c 256
 658 633 758 502 758 326 c 256
 758 164 692 90 651 90 c 256
 623 90 598 119 598 174 c 256
 598 180 598 186 621 443 c 256
 622 457 628 466 633 473 c 258
 642 489 l 257
 634 502 l 257
 583 507 514 522 464 522 c 256
 331 522 239 422 239 262 c 256
 239 151 296 93 366 93 c 256
 413 93 469 121 512 172 c 257
 512 83 565 37 636 37 c 256
 782 37 857 197 857 323 c 256
EndSplineSet
Validated: 9
EndChar

StartChar: avagrahacombiningsigndeva
Encoding: 43249 43249 27
Width: 0
VWidth: 0
GlyphClass: 4
Flags: W
PickledData: "(dp1
S'com.typemytype.robofont.layerData'
p2
(dp3
S'original'
p4
(dp5
S'name'
p6
S'avagrahacombiningsigndeva'
p7
sS'lib'
p8
(dp9
sS'unicodes'
p10
(tsS'width'
p11
I0
sS'contours'
p12
(tsS'components'
p13
(tsS'anchors'
p14
(tsssS'com.typemytype.robofont.mark'
p15
(I1
I1
I1
I0
tp16
s."
AnchorPoint: "DVAnchor3" -137 681 mark 0
LayerCount: 2
Fore
SplineSet
-125 736 m 256
 -179 736 -230 774 -251 832 c 257
 -252 835 l 257
 -212 852 l 257
 -211 849 l 257
 -202 827 -190 809 -174 796 c 256
 -159 783 -142 776 -125 776 c 256
 -101 776 -81 796 -81 823 c 256
 -81 835 -87 848 -100 862 c 256
 -114 876 -133 889 -156 902 c 257
 -173 910 -187 921 -196 934 c 256
 -205 947 -210 960 -210 975 c 256
 -210 991 -202 1005 -186 1016 c 256
 -170 1027 -151 1032 -129 1032 c 258
 -36 1032 l 257
 -36 995 l 257
 -129 995 l 258
 -140 995 -149 993 -156 988 c 256
 -163 984 -166 979 -166 974 c 256
 -166 965 -160 955 -148 944 c 256
 -136 932 -119 920 -97 909 c 256
 -78 899 -64 887 -53 872 c 256
 -42 857 -36 840 -36 823 c 256
 -36 775 -75 736 -125 736 c 256
EndSplineSet
Validated: 1
EndChar

StartChar: avagrahadeva
Encoding: 2365 2365 28
Width: 442
VWidth: 0
GlyphClass: 2
Flags: W
PickledData: "(dp1
S'com.typemytype.robofont.layerData'
p2
(dp3
S'original'
p4
(dp5
S'name'
p6
S'avagrahadeva'
p7
sS'lib'
p8
(dp9
sS'unicodes'
p10
(tsS'width'
p11
I442
sS'contours'
p12
((dp13
S'points'
p14
((dp15
S'segmentType'
p16
S'curve'
p17
sS'x'
I245
sS'smooth'
p18
I01
sS'y'
I5
s(dp19
S'y'
F5
sS'x'
F152.53999999999999
sg18
I00
s(dp20
S'y'
F89.379999999999995
sS'x'
F62.520000000000003
sg18
I00
s(dp21
g16
S'curve'
p22
sS'x'
I25
sg18
I00
sS'y'
I214
s(dp23
g16
S'line'
p24
sS'x'
I85
sg18
I00
sS'y'
I246
s(dp25
S'y'
F144.16
sS'x'
F115.81999999999999
sg18
I00
s(dp26
S'y'
F77
sS'x'
F180.68000000000001
sg18
I00
s(dp27
g16
S'curve'
p28
sS'x'
I245
sg18
I01
sS'y'
I77
s(dp29
S'y'
F77
sS'x'
F293.24000000000001
sg18
I00
s(dp30
S'y'
F127.68000000000001
sS'x'
F332
sg18
I00
s(dp31
g16
S'curve'
p32
sS'x'
I332
sg18
I01
sS'y'
I192
s(dp33
S'y'
F250.96000000000001
sS'x'
F332
sg18
I00
s(dp34
S'y'
F318.38
sS'x'
F279.10000000000002
sg18
I00
s(dp35
g16
S'curve'
p36
sS'x'
I192
sg18
I00
sS'y'
I376
s(dp37
S'y'
F412.18000000000001
sS'x'
F133.03999999999999
sg18
I00
s(dp38
S'y'
F471.36000000000001
sS'x'
F99
sg18
I00
s(dp39
g16
S'curve'
p40
sS'x'
I99
sg18
I01
sS'y'
I533
s(dp41
S'y'
F598.65999999999997
sS'x'
F99
sg18
I00
s(dp42
S'y'
F652
sS'x'
F161.62
sg18
I00
s(dp43
g16
S'curve'
p44
sS'x'
I238
sg18
I01
sS'y'
I652
s(dp45
g16
S'line'
p46
sS'x'
I398
sg18
I00
sS'y'
I652
s(dp47
g16
S'line'
p48
sS'x'
I398
sg18
I00
sS'y'
I585
s(dp49
g16
S'line'
p50
sS'x'
I238
sg18
I01
sS'y'
I585
s(dp51
S'y'
F585
sS'x'
F197.80000000000001
sg18
I00
s(dp52
S'y'
F560.82000000000005
sS'x'
F165
sg18
I00
s(dp53
g16
S'curve'
p54
sS'x'
I165
sg18
I01
sS'y'
I530
s(dp55
S'y'
F487.12
sS'x'
F165
sg18
I00
s(dp56
S'y'
F430.25999999999999
sS'x'
F212.94
sg18
I00
s(dp57
g16
S'curve'
p58
sS'x'
I292
sg18
I01
sS'y'
I378
s(dp59
S'y'
F355.88999999999999
sS'x'
F324.82999999999998
sg18
I00
sg6
S'inserted'
p60
s(dp61
S'y'
F328.82999999999998
sS'x'
F350.56999999999999
sg18
I00
s(dp62
g16
S'curve'
p63
sS'x'
I370
sg18
I00
sS'y'
I296
s(dp64
S'y'
F262.5
sS'x'
F388.75999999999999
sg18
I00
sg6
S'inserted'
p65
s(dp66
S'y'
F228.18000000000001
sS'x'
F398
sg18
I00
s(dp67
g16
S'curve'
p68
sS'x'
I398
sg18
I01
sS'y'
I192
s(dp69
S'y'
F88.819999999999993
sS'x'
F398
sg18
I00
s(dp70
S'y'
F5
sS'x'
F330.75999999999999
sg18
I00
stp71
stp72
sS'components'
p73
(tsS'anchors'
p74
(tsssS'com.typemytype.robofont.mark'
p75
(F0.75
F1
F1
F1
tp76
s."
LayerCount: 2
Fore
SplineSet
223 11 m 256
 322 11 388 68 388 152 c 256
 388 216 362 255 263 364 c 256
 183 452 167 493 167 530 c 256
 167 580 197 621 254 621 c 258
 397 621 l 257
 397 666 l 257
 262 666 l 258
 182 666 96 635 96 519 c 256
 96 466 118 416 215 312 c 256
 290 231 308 196 308 153 c 256
 308 94 277 59 222 59 c 256
 160 59 117 101 117 160 c 256
 117 204 136 225 136 233 c 256
 136 236 131 242 118 242 c 256
 68 242 30 207 30 157 c 256
 30 71 110 11 223 11 c 256
EndSplineSet
Validated: 9
EndChar

StartChar: awdeva
Encoding: 2421 2421 29
Width: 1044
VWidth: 0
GlyphClass: 2
Flags: HW
PickledData: "(dp1
S'com.typemytype.robofont.layerData'
p2
(dp3
S'original'
p4
(dp5
S'name'
p6
S'awdeva'
p7
sS'lib'
p8
(dp9
sS'unicodes'
p10
(tsS'width'
p11
I1042
sS'contours'
p12
(tsS'components'
p13
(tsS'anchors'
p14
(tsssS'com.typemytype.robofont.mark'
p15
(I1
I1
I1
I0
tp16
s."
LayerCount: 2
Fore
SplineSet
635 850 m 256
 635 884 656 899 656 911 c 256
 656 919 650 922 638 922 c 256
 597 922 555 890 555 838 c 256
 555 679 870 795 870 666 c 257
 905 666 l 257
 905 835 635 724 635 850 c 256
753 908 m 256
 753 947 774 968 774 978 c 256
 774 986 768 989 756 989 c 256
 715 989 673 957 673 905 c 256
 673 752 915 862 915 666 c 257
 950 666 l 257
 950 897 753 794 753 908 c 256
EndSplineSet
Refer: 1 2310 N 1 0 0 1 0 0 2
Colour: ffff
EndChar

StartChar: awsigndeva
Encoding: 2383 2383 30
Width: 266
VWidth: 0
GlyphClass: 2
Flags: W
PickledData: "(dp1
S'com.typemytype.robofont.layerData'
p2
(dp3
S'original'
p4
(dp5
S'name'
p6
S'awsigndeva'
p7
sS'lib'
p8
(dp9
sS'unicodes'
p10
(tsS'width'
p11
I266
sS'contours'
p12
(tsS'components'
p13
(tsS'anchors'
p14
(tsssS'com.typemytype.robofont.mark'
p15
(I1
I1
I1
I0
tp16
s."
LayerCount: 2
Fore
SplineSet
-142 850 m 256
 -142 884 -121 899 -121 911 c 256
 -121 919 -127 922 -139 922 c 256
 -180 922 -222 890 -222 838 c 256
 -222 679 93 795 93 666 c 257
 128 666 l 257
 128 835 -142 724 -142 850 c 256
-24 908 m 256
 -24 947 -3 968 -3 978 c 256
 -3 986 -9 989 -21 989 c 256
 -62 989 -104 957 -104 905 c 256
 -104 752 138 862 138 666 c 257
 173 666 l 257
 173 897 -24 794 -24 908 c 256
EndSplineSet
Refer: 2 2366 N 1 0 0 1 0 0 2
Validated: 5
EndChar

StartChar: ba_virama_ra_viramadeva
Encoding: 65543 -1 31
Width: 347
VWidth: 0
GlyphClass: 2
Flags: W
PickledData: "(dp1
S'com.typemytype.robofont.layerData'
p2
(dp3
S'original'
p4
(dp5
S'name'
p6
S'ba_virama_ra_viramadeva'
p7
sS'lib'
p8
(dp9
sS'unicodes'
p10
(tsS'width'
p11
I366
sS'contours'
p12
((dp13
S'points'
p14
((dp15
S'segmentType'
p16
S'line'
p17
sS'x'
I-13
sS'smooth'
p18
I00
sS'y'
I606
s(dp19
g16
S'line'
p20
sS'x'
I-13
sg18
I00
sS'y'
I666
s(dp21
g16
S'line'
p22
sS'x'
I380
sg18
I00
sS'y'
I666
s(dp23
g16
S'line'
p24
sS'x'
I380
sg18
I00
sS'y'
I606
stp25
s(dp26
g14
((dp27
g16
S'curve'
p28
sS'x'
I226
sg18
I01
sS'y'
I211
s(dp29
S'y'
F211
sS'x'
F258.16000000000003
sg18
I00
s(dp30
S'y'
F219.24000000000001
sS'x'
F284.56
sg18
I00
s(dp31
g16
S'curve'
p32
sS'x'
I306
sg18
I00
sS'y'
I238
s(dp33
g16
S'line'
p34
sS'x'
I126
sg18
I00
sS'y'
I384
s(dp35
S'y'
F367.92000000000002
sS'x'
F113.94
sg18
I00
s(dp36
S'y'
F346.13999999999999
sS'x'
F106
sg18
I00
s(dp37
g16
S'curve'
p38
sS'x'
I106
sg18
I01
sS'y'
I318
s(dp39
S'y'
F259.04000000000002
sS'x'
F106
sg18
I00
s(dp40
S'y'
F211
sS'x'
F160.34
sg18
I00
stp41
s(dp42
g14
((dp43
g16
S'line'
p44
sS'x'
I373
sg18
I00
sS'y'
I198
s(dp45
g16
S'line'
p46
sS'x'
I73
sg18
I00
sS'y'
I-2
s(dp47
g16
S'line'
p48
sS'x'
I40
sg18
I00
sS'y'
I51
s(dp49
g16
S'line'
p50
sS'x'
I195
sg18
I00
sS'y'
I152
s(dp51
S'y'
F172.09999999999999
sS'x'
F103.88
sg18
I00
s(dp52
S'y'
F240.28
sS'x'
F40
sg18
I00
s(dp53
g16
S'curve'
p54
sS'x'
I40
sg18
I01
sS'y'
I318
s(dp55
S'y'
F423.86000000000001
sS'x'
F40
sg18
I00
s(dp56
S'y'
F511
sS'x'
F129.12
sg18
I00
s(dp57
g16
S'curve'
p58
sS'x'
I239
sg18
I01
sS'y'
I511
s(dp59
S'y'
F511
sS'x'
F273.83999999999997
sg18
I00
s(dp60
S'y'
F503.06
sS'x'
F303.22000000000003
sg18
I00
s(dp61
g16
S'curve'
p62
sS'x'
I326
sg18
I00
sS'y'
I491
s(dp63
g16
S'line'
p64
sS'x'
I306
sg18
I00
sS'y'
I437
s(dp65
S'y'
F446.38
sS'x'
F285.89999999999998
sg18
I00
s(dp66
S'y'
F451
sS'x'
F264.45999999999998
sg18
I00
s(dp67
g16
S'curve'
p68
sS'x'
I239
sg18
I01
sS'y'
I451
s(dp69
S'y'
F451
sS'x'
F200.13999999999999
sg18
I00
s(dp70
S'y'
F440.07999999999998
sS'x'
F172.40000000000001
sg18
I00
s(dp71
g16
S'curve'
p72
sS'x'
I159
sg18
I00
sS'y'
I424
s(dp73
g16
S'line'
p74
sS'x'
I353
sg18
I00
sS'y'
I278
s(dp75
g16
S'line'
p76
sS'x'
I373
sg18
I00
sS'y'
I304
stp77
stp78
sS'components'
p79
(tsS'anchors'
p80
(tsssS'com.typemytype.robofont.mark'
p81
(F0.75
F1
F1
F1
tp82
s."
LayerCount: 2
Fore
SplineSet
397 213 m 257
 357 226 l 257
 135 57 l 258
 130 53 127 48 127 41 c 256
 127 16 159 -10 174 -10 c 256
 179 -10 185 -6 193 2 c 258
 397 213 l 257
357 199 m 257
 393 235 l 257
 136 430 l 257
 106 389 l 257
 357 199 l 257
EndSplineSet
Refer: 34 -1 N 1 0 0 1 0 0 2
Validated: 5
Ligature2: "VattuVariantslookup30 subtable" badeva_viramadeva viramadeva_radeva
Ligature2: "VattuVariantslookup30 subtable" badeva viramadeva_radeva viramadeva
Ligature2: "HalfFormslookup10 subtable" badeva_viramadeva_radeva viramadeva
EndChar

StartChar: backslash
Encoding: 92 92 32
Width: 380
VWidth: 0
GlyphClass: 2
Flags: W
PickledData: "(dp1
S'com.typemytype.robofont.layerData'
p2
(dp3
S'original'
p4
(dp5
S'name'
p6
S'backslash'
p7
sS'lib'
p8
(dp9
sS'unicodes'
p10
(tsS'width'
p11
I605
sS'contours'
p12
(tsS'components'
p13
(tsS'anchors'
p14
(tsssS'com.typemytype.robofont.mark'
p15
(I1
I1
I1
I0
tp16
s."
LayerCount: 2
Fore
SplineSet
380 -65 m 257
 74 800 l 257
 0 800 l 257
 307 -65 l 257
 380 -65 l 257
EndSplineSet
Validated: 9
EndChar

StartChar: badeva
Encoding: 2348 2348 33
Width: 601
VWidth: 0
GlyphClass: 2
Flags: W
PickledData: "(dp1
S'com.typemytype.robofont.layerData'
p2
(dp3
S'original'
p4
(dp5
S'name'
p6
S'badeva'
p7
sS'lib'
p8
(dp9
sS'unicodes'
p10
(tsS'width'
p11
I601
sS'contours'
p12
((dp13
S'points'
p14
((dp15
S'segmentType'
p16
S'curve'
p17
sS'x'
I225
sS'smooth'
p18
I01
sS'y'
I213
s(dp19
S'y'
F213
sS'x'
F257.16000000000003
sg18
I00
s(dp20
S'y'
F221.24000000000001
sS'x'
F283.56
sg18
I00
s(dp21
g16
S'curve'
p22
sS'x'
I305
sg18
I00
sS'y'
I240
s(dp23
g16
S'line'
p24
sS'x'
I125
sg18
I00
sS'y'
I386
s(dp25
S'y'
F369.92000000000002
sS'x'
F112.94
sg18
I00
s(dp26
S'y'
F348.13999999999999
sS'x'
F105
sg18
I00
s(dp27
g16
S'curve'
p28
sS'x'
I105
sg18
I01
sS'y'
I320
s(dp29
S'y'
F261.04000000000002
sS'x'
F105
sg18
I00
s(dp30
S'y'
F213
sS'x'
F159.34
sg18
I00
stp31
s(dp32
g14
((dp33
g16
S'curve'
p34
sS'x'
I39
sg18
I01
sS'y'
I320
s(dp35
S'y'
F425.86000000000001
sS'x'
F39
sg18
I00
s(dp36
S'y'
F513
sS'x'
F128.12
sg18
I00
s(dp37
g16
S'curve'
p38
sS'x'
I238
sg18
I01
sS'y'
I513
s(dp39
S'y'
F513
sS'x'
F272.83999999999997
sg18
I00
s(dp40
S'y'
F505.06
sS'x'
F302.22000000000003
sg18
I00
s(dp41
g16
S'curve'
p42
sS'x'
I325
sg18
I00
sS'y'
I493
s(dp43
g16
S'line'
p44
sS'x'
I305
sg18
I00
sS'y'
I439
s(dp45
S'y'
F448.38
sS'x'
F284.89999999999998
sg18
I00
s(dp46
S'y'
F453
sS'x'
F263.45999999999998
sg18
I00
s(dp47
g16
S'curve'
p48
sS'x'
I238
sg18
I01
sS'y'
I453
s(dp49
S'y'
F453
sS'x'
F199.13999999999999
sg18
I00
s(dp50
S'y'
F442.07999999999998
sS'x'
F171.40000000000001
sg18
I00
s(dp51
g16
S'curve'
p52
sS'x'
I158
sg18
I00
sS'y'
I426
s(dp53
g16
S'line'
p54
sS'x'
I352
sg18
I00
sS'y'
I280
s(dp55
g16
S'line'
p56
sS'x'
I372
sg18
I00
sS'y'
I306
s(dp57
g16
S'line'
p58
sS'x'
I372
sg18
I00
sS'y'
I606
s(dp59
g16
S'line'
p60
sS'x'
I-13
sg18
I00
sS'y'
I606
s(dp61
g16
S'line'
p62
sS'x'
I-13
sg18
I00
sS'y'
I666
s(dp63
g16
S'line'
p64
sS'x'
I551
sg18
I00
sS'y'
I666
s(dp65
g16
S'line'
p66
sS'x'
I551
sg18
I00
sS'y'
I606
s(dp67
g16
S'line'
p68
sS'x'
I438
sg18
I00
sS'y'
I606
s(dp69
g16
S'line'
p70
sS'x'
I438
sg18
I00
sS'y'
I0
s(dp71
g16
S'line'
p72
sS'x'
I372
sg18
I00
sS'y'
I0
s(dp73
g16
S'line'
p74
sS'x'
I372
sg18
I00
sS'y'
I213
s(dp75
S'y'
F170.12
sS'x'
F329.12
sg18
I00
s(dp76
S'y'
F146
sS'x'
F277.25999999999999
sg18
I00
s(dp77
g16
S'curve'
p78
sS'x'
I225
sg18
I01
sS'y'
I146
s(dp79
S'y'
F146
sS'x'
F121.81999999999999
sg18
I00
s(dp80
S'y'
F223.52000000000001
sS'x'
F39
sg18
I00
stp81
stp82
sS'components'
p83
(tsS'anchors'
p84
(tsssS'com.typemytype.robofont.mark'
p85
(F0.75
F1
F1
F1
tp86
s."
AnchorPoint: "DVAnchor3" 463 666 basechar 0
LayerCount: 2
Fore
SplineSet
296 166 m 257
 336 197 l 257
 154 462 l 257
 113 431 l 257
 296 166 l 257
417 267 m 257
 370 221 301 191 240 191 c 256
 176 191 124 230 124 325 c 256
 124 415 170 455 224 455 c 256
 265 455 286 428 286 394 c 256
 286 374 282 371 282 367 c 256
 282 361 287 359 296 359 c 256
 331 359 358 377 358 409 c 256
 358 459 313 497 231 497 c 256
 108 497 37 422 37 325 c 256
 37 211 124 139 230 139 c 256
 297 139 357 162 417 208 c 257
 417 0 l 257
 503 0 l 257
 503 621 l 257
 614 621 l 257
 614 666 l 257
 -13 666 l 257
 -13 621 l 257
 417 621 l 257
 417 267 l 257
EndSplineSet
Validated: 5
EndChar

StartChar: badeva_viramadeva
Encoding: 65544 -1 34
Width: 347
VWidth: 0
GlyphClass: 2
Flags: W
PickledData: "(dp1
S'com.typemytype.robofont.layerData'
p2
(dp3
S'original'
p4
(dp5
S'name'
p6
S'badeva_viramadeva'
p7
sS'lib'
p8
(dp9
sS'unicodes'
p10
(tsS'width'
p11
I366
sS'contours'
p12
((dp13
S'points'
p14
((dp15
S'segmentType'
p16
S'line'
p17
sS'x'
I-13
sS'smooth'
p18
I00
sS'y'
I606
s(dp19
g16
S'line'
p20
sS'x'
I-13
sg18
I00
sS'y'
I666
s(dp21
g16
S'line'
p22
sS'x'
I380
sg18
I00
sS'y'
I666
s(dp23
g16
S'line'
p24
sS'x'
I380
sg18
I00
sS'y'
I606
stp25
s(dp26
g14
((dp27
g16
S'curve'
p28
sS'x'
I226
sg18
I01
sS'y'
I193
s(dp29
S'y'
I193
sS'x'
I266
sg18
I00
s(dp30
S'y'
I208
sS'x'
I302
sg18
I00
s(dp31
g16
S'curve'
p32
sS'x'
I326
sg18
I00
sS'y'
I233
s(dp33
g16
S'line'
p34
sS'x'
I127
sg18
I00
sS'y'
I380
s(dp35
S'y'
I364
sS'x'
I114
sg18
I00
s(dp36
S'y'
I341
sS'x'
I107
sg18
I00
s(dp37
g16
S'curve'
p38
sS'x'
I107
sg18
I01
sS'y'
I313
s(dp39
S'y'
I247
sS'x'
I107
sg18
I00
s(dp40
S'y'
I193
sS'x'
I160
sg18
I00
stp41
s(dp42
g14
((dp43
g16
S'curve'
p44
sS'x'
I226
sg18
I01
sS'y'
I127
s(dp45
S'y'
I127
sS'x'
I123
sg18
I00
s(dp46
S'y'
I210
sS'x'
I40
sg18
I00
s(dp47
g16
S'curve'
p48
sS'x'
I40
sg18
I01
sS'y'
I313
s(dp49
S'y'
I423
sS'x'
I40
sg18
I00
s(dp50
S'y'
I513
sS'x'
I129
sg18
I00
s(dp51
g16
S'curve'
p52
sS'x'
I240
sg18
I01
sS'y'
I513
s(dp53
S'y'
I513
sS'x'
I264
sg18
I00
s(dp54
S'y'
I508
sS'x'
I287
sg18
I00
s(dp55
g16
S'curve'
p56
sS'x'
I306
sg18
I00
sS'y'
I499
s(dp57
g16
S'line'
p58
sS'x'
I306
sg18
I00
sS'y'
I433
s(dp59
S'y'
I441
sS'x'
I294
sg18
I00
s(dp60
S'y'
I446
sS'x'
I269
sg18
I00
s(dp61
g16
S'curve'
p62
sS'x'
I240
sg18
I01
sS'y'
I446
s(dp63
S'y'
I446
sS'x'
I208
sg18
I00
s(dp64
S'y'
I438
sS'x'
I181
sg18
I00
s(dp65
g16
S'curve'
p66
sS'x'
I160
sg18
I00
sS'y'
I419
s(dp67
g16
S'line'
p68
sS'x'
I366
sg18
I00
sS'y'
I266
s(dp69
g16
S'line'
p70
sS'x'
I393
sg18
I00
sS'y'
I300
s(dp71
g16
S'line'
p72
sS'x'
I393
sg18
I00
sS'y'
I213
s(dp73
S'y'
I158
sS'x'
I355
sg18
I00
s(dp74
S'y'
I127
sS'x'
I293
sg18
I00
stp75
stp76
sS'components'
p77
(tsS'anchors'
p78
(tsssS'com.typemytype.robofont.mark'
p79
(F0.75
F1
F1
F1
tp80
s."
LayerCount: 2
Fore
SplineSet
357 199 m 257
 393 235 l 257
 136 430 l 257
 106 389 l 257
 357 199 l 257
360 666 m 257
 -13 666 l 257
 -13 621 l 257
 360 621 l 257
 360 666 l 257
231 497 m 256
 108 497 39 421 39 325 c 256
 39 211 108 139 224 139 c 256
 387 139 474 308 474 330 c 256
 474 340 462 353 446 353 c 256
 430 353 378 193 226 193 c 256
 166 193 125 235 125 325 c 256
 125 415 172 455 224 455 c 256
 265 455 286 428 286 394 c 256
 286 374 282 371 282 367 c 256
 282 361 287 359 296 359 c 256
 331 359 358 377 358 409 c 256
 358 459 313 497 231 497 c 256
EndSplineSet
Validated: 5
Ligature2: "HalfFormslookup10 subtable" badeva viramadeva
EndChar

StartChar: badeva_viramadeva_radeva
Encoding: 65545 -1 35
Width: 601
VWidth: 0
GlyphClass: 2
Flags: W
PickledData: "(dp1
S'com.typemytype.robofont.layerData'
p2
(dp3
S'original'
p4
(dp5
S'name'
p6
S'badeva_viramadeva_radeva'
p7
sS'lib'
p8
(dp9
sS'unicodes'
p10
(tsS'width'
p11
I601
sS'contours'
p12
(tsS'components'
p13
(tsS'anchors'
p14
(tsssS'com.typemytype.robofont.mark'
p15
(F0.75
F1
F1
F1
tp16
s."
LayerCount: 2
Fore
SplineSet
417 206 m 257
 417 246 l 257
 93 74 l 258
 87 71 85 65 85 58 c 256
 85 33 107 -12 122 -12 c 256
 125 -12 128 -12 133 -8 c 258
 417 206 l 257
EndSplineSet
Refer: 33 2348 N 1 0 0 1 0 0 2
Validated: 5
Ligature2: "VattuVariantslookup30 subtable" badeva viramadeva_radeva
EndChar

StartChar: bar
Encoding: 124 124 36
Width: 359
VWidth: 0
GlyphClass: 2
Flags: W
PickledData: "(dp1
S'com.typemytype.robofont.layerData'
p2
(dp3
S'original'
p4
(dp5
S'name'
p6
S'bar'
p7
sS'lib'
p8
(dp9
sS'unicodes'
p10
(tsS'width'
p11
I266
sS'contours'
p12
(tsS'components'
p13
(tsS'anchors'
p14
(tsssS'com.typemytype.robofont.mark'
p15
(I1
I1
I1
I0
tp16
s."
LayerCount: 2
Fore
SplineSet
230 -84 m 257
 230 762 l 257
 129 762 l 257
 129 -84 l 257
 230 -84 l 257
EndSplineSet
Validated: 9
EndChar

StartChar: bbadeva
Encoding: 2431 2431 37
Width: 601
VWidth: 0
GlyphClass: 2
Flags: W
PickledData: "(dp1
S'com.typemytype.robofont.guides'
p2
((dp3
S'angle'
p4
F90
sS'name'
p5
NsS'magnetic'
p6
I5
sS'isGlobal'
p7
I00
sS'y'
I545
sS'x'
I417
stp8
sS'com.typemytype.robofont.layerData'
p9
(dp10
S'original'
p11
(dp12
g5
S'bbadeva'
p13
sS'lib'
p14
(dp15
sS'unicodes'
p16
(tsS'width'
p17
I601
sS'contours'
p18
((dp19
S'points'
p20
((dp21
S'segmentType'
p22
S'curve'
p23
sS'x'
I225
sS'smooth'
p24
I01
sS'y'
I213
s(dp25
S'y'
F213
sS'x'
F257.16000000000003
sg24
I00
s(dp26
S'y'
F221.24000000000001
sS'x'
F283.56
sg24
I00
s(dp27
g22
S'curve'
p28
sS'x'
I305
sg24
I00
sS'y'
I240
s(dp29
g22
S'line'
p30
sS'x'
I125
sg24
I00
sS'y'
I386
s(dp31
S'y'
F369.92000000000002
sS'x'
F112.94
sg24
I00
s(dp32
S'y'
F348.13999999999999
sS'x'
F105
sg24
I00
s(dp33
g22
S'curve'
p34
sS'x'
I105
sg24
I01
sS'y'
I320
s(dp35
S'y'
F261.04000000000002
sS'x'
F105
sg24
I00
s(dp36
S'y'
F213
sS'x'
F159.34
sg24
I00
stp37
s(dp38
g20
((dp39
g22
S'curve'
p40
sS'x'
I39
sg24
I01
sS'y'
I320
s(dp41
S'y'
F425.86000000000001
sS'x'
F39
sg24
I00
s(dp42
S'y'
F513
sS'x'
F128.12
sg24
I00
s(dp43
g22
S'curve'
p44
sS'x'
I238
sg24
I01
sS'y'
I513
s(dp45
S'y'
F513
sS'x'
F272.83999999999997
sg24
I00
s(dp46
S'y'
F505.06
sS'x'
F302.22000000000003
sg24
I00
s(dp47
g22
S'curve'
p48
sS'x'
I325
sg24
I00
sS'y'
I493
s(dp49
g22
S'line'
p50
sS'x'
I305
sg24
I00
sS'y'
I439
s(dp51
S'y'
F448.38
sS'x'
F284.89999999999998
sg24
I00
s(dp52
S'y'
F453
sS'x'
F263.45999999999998
sg24
I00
s(dp53
g22
S'curve'
p54
sS'x'
I238
sg24
I01
sS'y'
I453
s(dp55
S'y'
F453
sS'x'
F199.13999999999999
sg24
I00
s(dp56
S'y'
F442.07999999999998
sS'x'
F171.40000000000001
sg24
I00
s(dp57
g22
S'curve'
p58
sS'x'
I158
sg24
I00
sS'y'
I426
s(dp59
g22
S'line'
p60
sS'x'
I352
sg24
I00
sS'y'
I280
s(dp61
g22
S'line'
p62
sS'x'
I372
sg24
I00
sS'y'
I306
s(dp63
g22
S'line'
p64
sS'x'
I372
sg24
I00
sS'y'
I606
s(dp65
g22
S'line'
p66
sS'x'
I-13
sg24
I00
sS'y'
I606
s(dp67
g22
S'line'
p68
sS'x'
I-13
sg24
I00
sS'y'
I666
s(dp69
g22
S'line'
p70
sS'x'
I551
sg24
I00
sS'y'
I666
s(dp71
g22
S'line'
p72
sS'x'
I551
sg24
I00
sS'y'
I606
s(dp73
g22
S'line'
p74
sS'x'
I438
sg24
I00
sS'y'
I606
s(dp75
g22
S'line'
p76
sS'x'
I438
sg24
I00
sS'y'
I0
s(dp77
g22
S'line'
p78
sS'x'
I438
sg24
I00
sS'y'
I-60
s(dp79
g22
S'line'
p80
sS'x'
I-15
sg24
I00
sS'y'
I-60
s(dp81
g22
S'line'
p82
sS'x'
I-15
sg24
I00
sS'y'
I0
s(dp83
g22
S'line'
p84
sS'x'
I372
sg24
I00
sS'y'
I0
s(dp85
g22
S'line'
p86
sS'x'
I372
sg24
I00
sS'y'
I213
s(dp87
S'y'
F170.12
sS'x'
F329.12
sg24
I00
s(dp88
S'y'
F146
sS'x'
F277.25999999999999
sg24
I00
s(dp89
g22
S'curve'
p90
sS'x'
I225
sg24
I01
sS'y'
I146
s(dp91
S'y'
F146
sS'x'
F121.81999999999999
sg24
I00
s(dp92
S'y'
F223.52000000000001
sS'x'
F39
sg24
I00
stp93
stp94
sS'components'
p95
(tsS'anchors'
p96
(tsssS'com.typemytype.robofont.mark'
p97
(F0.75
F1
F1
F1
tp98
s."
AnchorPoint: "DVAnchor3" 460 665 basechar 0
LayerCount: 2
Fore
SplineSet
417 267 m 257
 370 221 301 191 240 191 c 256
 176 191 124 230 124 325 c 256
 124 415 170 455 224 455 c 256
 265 455 286 428 286 394 c 256
 286 374 282 371 282 367 c 256
 282 361 287 359 296 359 c 256
 331 359 358 377 358 409 c 256
 358 459 313 497 231 497 c 256
 108 497 37 422 37 325 c 256
 37 211 124 139 230 139 c 256
 297 139 357 162 417 208 c 257
 417 0 l 257
 503 0 l 257
 503 621 l 257
 614 621 l 257
 614 666 l 257
 -13 666 l 257
 -13 621 l 257
 417 621 l 257
 417 267 l 257
296 166 m 257
 336 197 l 257
 154 462 l 257
 113 431 l 257
 296 166 l 257
-13 -45 m 257
 503 -45 l 257
 503 0 l 257
 -13 0 l 257
 -13 -45 l 257
EndSplineSet
Validated: 5
EndChar

StartChar: bhadeva
Encoding: 2349 2349 38
Width: 692
VWidth: 0
GlyphClass: 2
Flags: HW
PickledData: "(dp1
S'com.typemytype.robofont.layerData'
p2
(dp3
S'original'
p4
(dp5
S'name'
p6
S'bhadeva'
p7
sS'lib'
p8
(dp9
sS'unicodes'
p10
(tsS'width'
p11
I657
sS'contours'
p12
((dp13
S'points'
p14
((dp15
S'segmentType'
p16
S'curve'
p17
sS'x'
I119
sS'smooth'
p18
I01
sS'y'
I326
s(dp19
S'y'
F340.74000000000001
sS'x'
F119
sg18
I00
s(dp20
S'y'
F353
sS'x'
F133.24000000000001
sg18
I00
s(dp21
g16
S'curve'
p22
sS'x'
I152
sg18
I01
sS'y'
I353
s(dp23
g16
S'line'
p24
sS'x'
I205
sg18
I00
sS'y'
I353
s(dp25
g16
S'line'
p26
sS'x'
I205
sg18
I01
sS'y'
I546
s(dp27
S'y'
F583.51999999999998
sS'x'
F205
sg18
I00
s(dp28
S'y'
F613
sS'x'
F178.5
sg18
I00
s(dp29
g16
S'curve'
p30
sS'x'
F145
sg18
I01
sg6
S'inserted'
p31
sS'y'
F613
s(dp32
S'y'
F613
sS'x'
F111.5
sg18
I00
s(dp33
S'y'
F591.46000000000004
sS'x'
F85
sg18
I00
s(dp34
g16
S'curve'
p35
sS'x'
I85
sg18
I01
sS'y'
I566
s(dp36
S'y'
F535.17999999999995
sS'x'
F85
sg18
I00
s(dp37
S'y'
F513
sS'x'
F111.5
sg18
I00
s(dp38
g16
S'curve'
p39
sS'x'
I145
sg18
I00
sS'y'
I513
s(dp40
g16
S'line'
p41
sS'x'
I145
sg18
I00
sS'y'
I446
s(dp42
S'y'
F446
sS'x'
F75.319999999999993
sg18
I00
s(dp43
S'y'
F500.33999999999997
sS'x'
F19
sg18
I00
s(dp44
g16
S'curve'
p45
sS'x'
I19
sg18
I01
sS'y'
I566
s(dp46
S'y'
F628.98000000000002
sS'x'
F19
sg18
I00
s(dp47
S'y'
F679
sS'x'
F75.319999999999993
sg18
I00
s(dp48
g16
S'curve'
p49
sS'x'
F145
sg18
I01
sg6
S'inserted'
p50
sS'y'
F679
s(dp51
S'y'
F679
sS'x'
F214.68000000000001
sg18
I00
s(dp52
S'y'
F619.70000000000005
sS'x'
F272
sg18
I00
s(dp53
g16
S'curve'
p54
sS'x'
I272
sg18
I01
sS'y'
I546
s(dp55
g16
S'line'
p56
sS'x'
I272
sg18
I00
sS'y'
I353
s(dp57
g16
S'line'
p58
sS'x'
I491
sg18
I00
sS'y'
I353
s(dp59
g16
S'line'
p60
sS'x'
I491
sg18
I00
sS'y'
I606
s(dp61
g16
S'line'
p62
sS'x'
I318
sg18
I00
sS'y'
I606
s(dp63
g16
S'line'
p64
sS'x'
I318
sg18
I00
sS'y'
I666
s(dp65
g16
S'line'
p66
sS'x'
I671
sg18
I00
sS'y'
I666
s(dp67
g16
S'line'
p68
sS'x'
I671
sg18
I00
sS'y'
I606
s(dp69
g16
S'line'
p70
sS'x'
I558
sg18
I00
sS'y'
I606
s(dp71
g16
S'line'
p72
sS'x'
I558
sg18
I00
sS'y'
I0
s(dp73
g16
S'line'
p74
sS'x'
I491
sg18
I00
sS'y'
I0
s(dp75
g16
S'line'
p76
sS'x'
I491
sg18
I00
sS'y'
I286
s(dp77
g16
S'line'
p78
sS'x'
I272
sg18
I00
sS'y'
I286
s(dp79
g16
S'line'
p80
sS'x'
I272
sg18
I01
sS'y'
I233
s(dp81
S'y'
F218.25999999999999
sS'x'
F272
sg18
I00
s(dp82
S'y'
F206
sS'x'
F256.75999999999999
sg18
I00
s(dp83
g16
S'curve'
p84
sS'x'
I238
sg18
I01
sS'y'
I206
s(dp85
S'y'
F206
sS'x'
F211.19999999999999
sg18
I00
s(dp86
S'y'
F299.19999999999999
sS'x'
F119
sg18
I00
stp87
stp88
sS'components'
p89
(tsS'anchors'
p90
((dp91
S'y'
F664
sS'x'
F526
sg6
S'DVAnchor3'
p92
stp93
sssS'com.typemytype.robofont.mark'
p94
(F0.75
F1
F1
F1
tp95
s."
HStem: 234 111<172.157 224.529> 309 74<260 284> 309 13<225 245> 442 49<121.235 186.908> 624 53<119.853 209.247>
VStem: 35 72<506.393 611.18> 225 85<531 609.872>
AnchorPoint: "DVAnchor3" 561 664 basechar 0
LayerCount: 2
Back
SplineSet
516 621 m 257x1e
 516 0 l 257
 603 0 l 257
 603 621 l 257
 706 621 l 257
 706 666 l 257
 353 666 l 257
 353 621 l 257
 516 621 l 257x1e
142 312 m 260
 142 261 180 230 226 230 c 260x9e
 271 230 310 261 310 312 c 260
 310 358 283 387 258 387 c 261x5e
 258 338 242 328 230 328 c 260
 202 328 189 347 166 347 c 260x9e
 150 347 142 330 142 312 c 260
259 270 m 257
 545 270 l 257
 545 322 l 257
 259 322 l 257x3e
 259 270 l 257
310 531 m 262
 310 599 273 677 158 677 c 260
 83 677 15 634 15 557 c 260
 15 482 70 432 161 432 c 260
 175 432 177 442 177 460 c 260
 177 470 176 481 169 481 c 260
 109 481 87 510 87 557 c 260
 87 605 122 624 153 624 c 260
 204 624 225 581 225 531 c 262
 225 309 l 261
 310 309 l 261
 310 531 l 262
EndSplineSet
Fore
SplineSet
116 287 m 260x60
 116 229 160 193 213 193 c 260xa0
 265 193 310 229 310 287 c 260
 310 318 250 321 250 321 c 261x60
 250 321 256 322 225 322 c 260xa0
 184 322 166 333 146 333 c 260
 126 333 116 311 116 287 c 260x60
516 621 m 257x1e
 516 0 l 257
 603 0 l 257
 603 621 l 257
 706 621 l 257
 706 666 l 257
 353 666 l 257
 353 621 l 257
 516 621 l 257x1e
259 270 m 257
 545 270 l 257
 545 322 l 257
 259 322 l 257x3e
 259 270 l 257
310 531 m 258
 310 599 273 677 158 677 c 256
 83 677 15 634 15 557 c 256
 15 482 70 432 161 432 c 256
 175 432 177 442 177 460 c 256
 177 470 176 481 169 481 c 256
 109 481 87 510 87 557 c 256
 87 605 122 624 153 624 c 256
 204 624 225 581 225 531 c 258
 225 309 l 257
 310 309 l 257
 310 531 l 258
EndSplineSet
Colour: ff00
EndChar

StartChar: bhadeva_viramadeva
Encoding: 65546 -1 39
Width: 501
VWidth: 0
GlyphClass: 2
Flags: HW
PickledData: "(dp1
S'com.typemytype.robofont.layerData'
p2
(dp3
S'original'
p4
(dp5
S'name'
p6
S'bhadeva_viramadeva'
p7
sS'lib'
p8
(dp9
sS'unicodes'
p10
(tsS'width'
p11
I466
sS'contours'
p12
((dp13
S'points'
p14
((dp15
S'segmentType'
p16
S'curve'
p17
sS'x'
I113
sS'smooth'
p18
I01
sS'y'
I313
s(dp19
S'y'
F334.44
sS'x'
F113
sg18
I00
s(dp20
S'y'
F353
sS'x'
F131.56
sg18
I00
s(dp21
g16
S'curve'
p22
sS'x'
I153
sg18
I01
sS'y'
I353
s(dp23
g16
S'line'
p24
sS'x'
I206
sg18
I00
sS'y'
I353
s(dp25
g16
S'line'
p26
sS'x'
I206
sg18
I01
sS'y'
I546
s(dp27
S'y'
F583.51999999999998
sS'x'
F206
sg18
I00
s(dp28
S'y'
F613
sS'x'
F180.84
sg18
I00
s(dp29
g16
S'curve'
p30
sS'x'
I146
sg18
I01
sS'y'
I613
s(dp31
S'y'
F613
sS'x'
F112.5
sg18
I00
s(dp32
S'y'
F591.46000000000004
sS'x'
F87
sg18
I00
s(dp33
g16
S'curve'
p34
sS'x'
I87
sg18
I01
sS'y'
I566
s(dp35
S'y'
F535.17999999999995
sS'x'
F87
sg18
I00
s(dp36
S'y'
F513
sS'x'
F109.18000000000001
sg18
I00
s(dp37
g16
S'curve'
p38
sS'x'
I140
sg18
I00
sS'y'
I513
s(dp39
g16
S'line'
p40
sS'x'
I140
sg18
I00
sS'y'
I446
s(dp41
S'y'
F446
sS'x'
F74.339999999999989
sg18
I00
s(dp42
S'y'
F500.33999999999997
sS'x'
F20
sg18
I00
s(dp43
g16
S'curve'
p44
sS'x'
I20
sg18
I01
sS'y'
I566
s(dp45
S'y'
F628.98000000000002
sS'x'
F20
sg18
I00
s(dp46
S'y'
F679
sS'x'
F77.659999999999997
sg18
I00
s(dp47
g16
S'curve'
p48
sS'x'
I146
sg18
I01
sS'y'
I679
s(dp49
S'y'
F679
sS'x'
F215.68000000000001
sg18
I00
s(dp50
S'y'
F619.70000000000005
sS'x'
F273
sg18
I00
s(dp51
g16
S'curve'
p52
sS'x'
I273
sg18
I01
sS'y'
I546
s(dp53
g16
S'line'
p54
sS'x'
I273
sg18
I00
sS'y'
I353
s(dp55
g16
S'line'
p56
sS'x'
I493
sg18
I00
sS'y'
I353
s(dp57
g16
S'line'
p58
sS'x'
I493
sg18
I00
sS'y'
I293
s(dp59
g16
S'line'
p60
sS'x'
I273
sg18
I00
sS'y'
I293
s(dp61
g16
S'line'
p62
sS'x'
I273
sg18
I01
sS'y'
I233
s(dp63
S'y'
F218.25999999999999
sS'x'
F273
sg18
I00
s(dp64
S'y'
F206
sS'x'
F257.42000000000002
sg18
I00
s(dp65
g16
S'curve'
p66
sS'x'
I240
sg18
I01
sS'y'
I206
s(dp67
S'y'
F206
sS'x'
F210.52000000000001
sg18
I00
s(dp68
S'y'
F290.22000000000003
sS'x'
F113
sg18
I00
stp69
s(dp70
g14
((dp71
g16
S'line'
p72
sS'x'
I320
sg18
I00
sS'y'
I606
s(dp73
g16
S'line'
p74
sS'x'
I320
sg18
I00
sS'y'
I666
s(dp75
g16
S'line'
p76
sS'x'
I479
sg18
I00
sS'y'
I666
s(dp77
g16
S'line'
p78
sS'x'
I479
sg18
I00
sS'y'
I606
stp79
stp80
sS'components'
p81
(tsS'anchors'
p82
(tsssS'com.typemytype.robofont.mark'
p83
(F0.75
F1
F1
F1
tp84
s."
LayerCount: 2
Back
SplineSet
150 312 m 256
 150 263 186 234 230 234 c 256
 273 234 310 263 310 312 c 256
 310 356 284 383 260 383 c 257
 260 336 245 327 234 327 c 256
 207 327 195 345 173 345 c 256
 158 345 150 329 150 312 c 256
310 531 m 262
 310 585 288 677 173 677 c 260
 98 677 35 634 35 557 c 260
 35 482 110 442 171 442 c 260
 185 442 187 452 187 470 c 260
 187 480 186 491 179 491 c 260
 139 491 107 510 107 557 c 260
 107 605 137 624 168 624 c 260
 209 624 225 591 225 541 c 262
 225 309 l 261
 310 309 l 261
 310 531 l 262
259 270 m 257
 601 270 l 257
 601 322 l 257
 259 322 l 257
 259 270 l 257
514 666 m 257
 353 666 l 257
 353 621 l 257
 514 621 l 257
 514 666 l 257
EndSplineSet
Fore
SplineSet
310 531 m 262
 310 599 273 677 158 677 c 260
 83 677 15 634 15 557 c 260
 15 482 70 432 161 432 c 260
 175 432 177 442 177 460 c 260
 177 470 176 481 169 481 c 260
 109 481 87 510 87 557 c 260
 87 605 122 624 153 624 c 260
 204 624 225 581 225 531 c 262
 225 309 l 261
 310 309 l 261
 310 531 l 262
150 312 m 256
 150 263 186 234 230 234 c 256
 273 234 310 263 310 312 c 256
 310 356 284 383 260 383 c 257
 260 336 245 327 234 327 c 256
 207 327 195 345 173 345 c 256
 158 345 150 329 150 312 c 256
259 270 m 257
 601 270 l 257
 601 322 l 257
 259 322 l 257
 259 270 l 257
514 666 m 257
 353 666 l 257
 353 621 l 257
 514 621 l 257
 514 666 l 257
EndSplineSet
LCarets2: 1 0 
Ligature2: "HalfFormslookup10 subtable" bhadeva viramadeva
Colour: ff00
EndChar

StartChar: braceleft
Encoding: 123 123 41
Width: 324
VWidth: 0
GlyphClass: 2
Flags: W
PickledData: "(dp1
S'com.typemytype.robofont.layerData'
p2
(dp3
S'original'
p4
(dp5
S'name'
p6
S'braceleft'
p7
sS'lib'
p8
(dp9
sS'unicodes'
p10
(tsS'width'
p11
I484
sS'contours'
p12
(tsS'components'
p13
(tsS'anchors'
p14
(tsssS'com.typemytype.robofont.mark'
p15
(I1
I1
I1
I0
tp16
s."
LayerCount: 2
Fore
SplineSet
191 164 m 256
 191 279 145 326 79 339 c 257
 145 353 191 399 191 514 c 256
 191 631 222 729 296 746 c 257
 289 793 l 257
 135 774 78 655 78 514 c 256
 78 408 58 370 0 358 c 257
 0 319 l 257
 58 308 78 270 78 164 c 256
 78 23 135 -96 289 -115 c 257
 296 -69 l 257
 222 -51 191 47 191 164 c 256
EndSplineSet
Validated: 9
EndChar

StartChar: braceright
Encoding: 125 125 42
Width: 324
VWidth: 0
GlyphClass: 2
Flags: W
PickledData: "(dp1
S'com.typemytype.robofont.layerData'
p2
(dp3
S'original'
p4
(dp5
S'name'
p6
S'braceright'
p7
sS'lib'
p8
(dp9
sS'unicodes'
p10
(tsS'width'
p11
I486
sS'contours'
p12
(tsS'components'
p13
(tsS'anchors'
p14
(tsssS'com.typemytype.robofont.mark'
p15
(I1
I1
I1
I0
tp16
s."
LayerCount: 2
Fore
SplineSet
132 164 m 256
 132 279 178 326 245 339 c 257
 178 353 132 399 132 514 c 256
 132 631 101 729 28 746 c 257
 35 793 l 257
 188 774 246 655 246 514 c 256
 246 408 265 370 324 358 c 257
 324 319 l 257
 265 308 246 270 246 164 c 256
 246 23 188 -96 35 -115 c 257
 28 -69 l 257
 101 -51 132 47 132 164 c 256
EndSplineSet
Validated: 1
EndChar

StartChar: bracketleft
Encoding: 91 91 43
Width: 396
VWidth: 0
GlyphClass: 2
Flags: W
PickledData: "(dp1
S'com.typemytype.robofont.layerData'
p2
(dp3
S'original'
p4
(dp5
S'name'
p6
S'bracketleft'
p7
sS'lib'
p8
(dp9
sS'unicodes'
p10
(tsS'width'
p11
I392
sS'contours'
p12
(tsS'components'
p13
(tsS'anchors'
p14
(tsssS'com.typemytype.robofont.mark'
p15
(I1
I1
I1
I0
tp16
s."
LayerCount: 2
Fore
SplineSet
129 -115 m 257
 369 -115 l 257
 369 -66 l 257
 287 -53 l 258
 249 -47 230 -37 230 1 c 258
 230 677 l 258
 230 715 249 725 287 731 c 258
 369 743 l 257
 369 793 l 257
 129 793 l 257
 129 -115 l 257
EndSplineSet
Validated: 9
EndChar

StartChar: bracketright
Encoding: 93 93 44
Width: 396
VWidth: 0
GlyphClass: 2
Flags: W
PickledData: "(dp1
S'com.typemytype.robofont.layerData'
p2
(dp3
S'original'
p4
(dp5
S'name'
p6
S'bracketright'
p7
sS'lib'
p8
(dp9
sS'unicodes'
p10
(tsS'width'
p11
I392
sS'contours'
p12
(tsS'components'
p13
(tsS'anchors'
p14
(tsssS'com.typemytype.robofont.mark'
p15
(I1
I1
I1
I0
tp16
s."
LayerCount: 2
Fore
SplineSet
267 -115 m 257
 28 -115 l 257
 28 -66 l 257
 110 -53 l 258
 147 -47 166 -37 166 1 c 258
 166 677 l 258
 166 715 147 725 110 731 c 258
 28 743 l 257
 28 793 l 257
 267 793 l 257
 267 -115 l 257
EndSplineSet
Validated: 1
EndChar

StartChar: cadeva
Encoding: 2330 2330 45
Width: 646
VWidth: 0
GlyphClass: 2
Flags: W
PickledData: "(dp1
S'com.typemytype.robofont.layerData'
p2
(dp3
S'original'
p4
(dp5
S'name'
p6
S'cadeva'
p7
sS'lib'
p8
(dp9
sS'unicodes'
p10
(tsS'width'
p11
I637
sS'contours'
p12
((dp13
S'points'
p14
((dp15
S'segmentType'
p16
S'line'
p17
sS'x'
I-13
sS'smooth'
p18
I00
sS'y'
I606
s(dp19
g16
S'line'
p20
sS'x'
I-13
sg18
I00
sS'y'
I666
s(dp21
g16
S'line'
p22
sS'x'
I651
sg18
I00
sS'y'
I666
s(dp23
g16
S'line'
p24
sS'x'
I651
sg18
I00
sS'y'
I606
s(dp25
g16
S'line'
p26
sS'x'
I538
sg18
I00
sS'y'
I606
s(dp27
g16
S'line'
p28
sS'x'
I538
sg18
I00
sS'y'
I0
s(dp29
g16
S'line'
p30
sS'x'
I471
sg18
I00
sS'y'
I0
s(dp31
g16
S'line'
p32
sS'x'
I471
sg18
I00
sS'y'
I240
s(dp33
S'y'
F164.96000000000001
sS'x'
F417.39999999999998
sg18
I00
s(dp34
S'y'
F120
sS'x'
F352.30000000000001
sg18
I00
s(dp35
g16
S'curve'
p36
sS'x'
I292
sg18
I01
sS'y'
I120
s(dp37
S'y'
F120
sS'x'
F202.22
sg18
I00
s(dp38
S'y'
F190.22
sS'x'
F132
sg18
I00
s(dp39
g16
S'curve'
p40
sS'x'
I132
sg18
I01
sS'y'
I280
s(dp41
S'y'
F344.31999999999999
sS'x'
F132
sg18
I00
s(dp42
S'y'
F399.19999999999999
sS'x'
F158.09999999999999
sg18
I00
s(dp43
g16
S'curve'
p44
sS'x'
I205
sg18
I00
sS'y'
I426
s(dp45
g16
S'line'
p46
sS'x'
I12
sg18
I00
sS'y'
I426
s(dp47
g16
S'line'
p48
sS'x'
I12
sg18
I00
sS'y'
I493
s(dp49
g16
S'line'
p50
sS'x'
I405
sg18
I00
sS'y'
I493
s(dp51
g16
S'line'
p52
sS'x'
I405
sg18
I00
sS'y'
I426
s(dp53
g16
S'line'
p54
sS'x'
I312
sg18
I00
sS'y'
I426
s(dp55
S'y'
F400.54000000000002
sS'x'
F243.66
sg18
I00
s(dp56
S'y'
F344.31999999999999
sS'x'
F198
sg18
I00
s(dp57
g16
S'curve'
p58
sS'x'
I198
sg18
I01
sS'y'
I280
s(dp59
S'y'
F227.74000000000001
sS'x'
F198
sg18
I00
s(dp60
S'y'
F186
sS'x'
F239.74000000000001
sg18
I00
s(dp61
g16
S'curve'
p62
sS'x'
I292
sg18
I01
sS'y'
I186
s(dp63
S'y'
F186
sS'x'
F348.27999999999997
sg18
I00
s(dp64
S'y'
F244.86000000000001
sS'x'
F416.06
sg18
I00
s(dp65
g16
S'curve'
p66
sS'x'
I471
sg18
I00
sS'y'
I340
s(dp67
g16
S'line'
p68
sS'x'
I471
sg18
I00
sS'y'
I606
stp69
stp70
sS'components'
p71
(tsS'anchors'
p72
((dp73
S'y'
F664
sS'x'
F503
sg6
S'DVAnchor3'
p74
stp75
sssS'com.typemytype.robofont.mark'
p76
(F0.75
F1
F1
F1
tp77
s."
HStem: 135 53<234.687 377.486> 430 53<12.1808 22 389 398.819> 430 37<176 299>
VStem: 105 86<232.234 385.782> 470 86<273.029 304>
AnchorPoint: "DVAnchor3" 513 664 basechar 0
LayerCount: 2
Fore
SplineSet
470 304 m 257xb8
 427 234 374 188 307 188 c 256
 244 188 191 223 191 311 c 256
 191 394 241 430 299 430 c 257
 299 467 l 257
 176 467 105 399 105 301 c 256
 105 193 192 135 281 135 c 256
 360 135 414 169 469 235 c 257
 469 0 l 257
 556 0 l 257
 556 621 l 257
 659 621 l 257
 659 666 l 257
 -13 666 l 261
 -13 621 l 261
 470 621 l 257
 470 304 l 257xb8
22 483 m 262xd8
 15 483 12 467 12 457 c 260
 12 446 15 430 22 430 c 262
 389 430 l 258
 396 430 399 446 399 457 c 256
 399 467 396 483 389 483 c 258
 22 483 l 262xd8
EndSplineSet
Colour: ffff
EndChar

StartChar: cadeva_viramadeva
Encoding: 65548 -1 46
Width: 488
VWidth: 0
GlyphClass: 2
Flags: HW
PickledData: "(dp1
S'com.typemytype.robofont.layerData'
p2
(dp3
S'original'
p4
(dp5
S'name'
p6
S'cadeva_viramadeva'
p7
sS'lib'
p8
(dp9
sS'unicodes'
p10
(tsS'width'
p11
I478
sS'contours'
p12
((dp13
S'points'
p14
((dp15
S'segmentType'
p16
S'line'
p17
sS'x'
I-13
sS'smooth'
p18
I00
sS'y'
I606
s(dp19
g16
S'line'
p20
sS'x'
I-13
sg18
I00
sS'y'
I666
s(dp21
g16
S'line'
p22
sS'x'
I491
sg18
I00
sS'y'
I666
s(dp23
g16
S'line'
p24
sS'x'
I491
sg18
I00
sS'y'
I606
stp25
s(dp26
g14
((dp27
g16
S'curve'
p28
sS'x'
I292
sg18
I01
sS'y'
I120
s(dp29
S'y'
F120
sS'x'
F202.22
sg18
I00
s(dp30
S'y'
F190.22
sS'x'
F132
sg18
I00
s(dp31
g16
S'curve'
p32
sS'x'
I132
sg18
I01
sS'y'
I280
s(dp33
S'y'
F340.30000000000001
sS'x'
F132
sg18
I00
s(dp34
S'y'
F393.83999999999997
sS'x'
F158.09999999999999
sg18
I00
s(dp35
g16
S'curve'
p36
sS'x'
I205
sg18
I00
sS'y'
I426
s(dp37
g16
S'line'
p38
sS'x'
I12
sg18
I00
sS'y'
I426
s(dp39
g16
S'line'
p40
sS'x'
I12
sg18
I00
sS'y'
I493
s(dp41
g16
S'line'
p42
sS'x'
I398
sg18
I00
sS'y'
I493
s(dp43
g16
S'line'
p44
sS'x'
I398
sg18
I00
sS'y'
I426
s(dp45
g16
S'line'
p46
sS'x'
I318
sg18
I00
sS'y'
I426
s(dp47
S'y'
F392.5
sS'x'
F245.63999999999999
sg18
I00
s(dp48
S'y'
F334.94
sS'x'
F198
sg18
I00
s(dp49
g16
S'curve'
p50
sS'x'
I198
sg18
I01
sS'y'
I280
s(dp51
S'y'
F227.74000000000001
sS'x'
F198
sg18
I00
s(dp52
S'y'
F186
sS'x'
F239.74000000000001
sg18
I00
s(dp53
g16
S'curve'
p54
sS'x'
I292
sg18
I01
sS'y'
I186
s(dp55
S'y'
F186
sS'x'
F352.30000000000001
sg18
I00
s(dp56
S'y'
F261.38
sS'x'
F432.63999999999999
sg18
I00
s(dp57
g16
S'curve'
p58
sS'x'
I505
sg18
I00
sS'y'
I386
s(dp59
g16
S'line'
p60
sS'x'
I505
sg18
I00
sS'y'
I280
s(dp61
S'y'
F179.5
sS'x'
F435.31999999999999
sg18
I00
s(dp62
S'y'
F120
sS'x'
F356.31999999999999
sg18
I00
stp63
stp64
sS'components'
p65
(tsS'anchors'
p66
(tsssS'com.typemytype.robofont.mark'
p67
(F0.75
F1
F1
F1
tp68
s."
LayerCount: 2
Fore
SplineSet
22 483 m 262
 15 483 12 467 12 457 c 260
 12 446 15 430 22 430 c 262
 389 430 l 258
 396 430 399 446 399 457 c 256
 399 467 396 483 389 483 c 258
 22 483 l 262
501 621 m 257
 501 666 l 257
 -13 666 l 261
 -13 621 l 261
 501 621 l 257
285 135 m 256
 512 135 621 342 621 358 c 256
 621 367 609 380 592 380 c 256
 572 380 496 188 302 188 c 256
 239 188 191 223 191 311 c 256
 191 394 241 430 299 430 c 257
 299 467 l 257
 176 467 105 399 105 301 c 256
 105 193 192 135 285 135 c 256
EndSplineSet
LCarets2: 1 0 
Ligature2: "HalfFormslookup10 subtable" cadeva viramadeva
Colour: ffff
EndChar

StartChar: cadeva_viramadeva_cadeva
Encoding: 65549 -1 47
Width: 637
VWidth: 0
GlyphClass: 2
Flags: W
PickledData: "(dp1
S'com.typemytype.robofont.layerData'
p2
(dp3
S'original'
p4
(dp5
S'name'
p6
S'cadeva_viramadeva_cadeva'
p7
sS'lib'
p8
(dp9
sS'unicodes'
p10
(tsS'width'
p11
I648
sS'contours'
p12
(tsS'components'
p13
(tsS'anchors'
p14
(tsssS'com.typemytype.robofont.mark'
p15
(I1
I1
I1
I0
tp16
s."
LayerCount: 2
Fore
SplineSet
288 333 m 257
 209 333 181 366 181 409 c 256
 181 458 231 480 289 480 c 257
 289 517 l 257
 166 517 95 468 95 399 c 256
 95 356 128 291 288 291 c 257
 288 333 l 257
459 0 m 257
 546 0 l 257
 546 621 l 257
 651 621 l 257
 651 666 l 257
 -13 666 l 257
 -13 621 l 257
 460 621 l 257
 459 0 l 257
22 533 m 258
 15 533 12 517 12 507 c 256
 12 496 15 480 22 480 c 258
 379 480 l 258
 386 480 389 496 389 507 c 256
 389 517 386 533 379 533 c 258
 22 533 l 258
460 204 m 257
 412 134 353 88 279 88 c 256
 226 88 181 116 181 186 c 256
 181 251 230 280 288 280 c 257
 288 317 l 257
 165 317 95 259 95 176 c 256
 95 84 173 35 253 35 c 256
 340 35 399 69 459 135 c 257
 460 204 l 257
22 333 m 258
 15 333 12 317 12 307 c 256
 12 296 15 280 22 280 c 258
 379 280 l 258
 386 280 389 296 389 307 c 256
 389 317 386 333 379 333 c 258
 22 333 l 258
EndSplineSet
Validated: 5
Ligature2: "PreBaseSubstitutionslookup1 subtable" cadeva_viramadeva cadeva
Ligature2: "LocalizedMrHalfFormslookup1 subtable" cadeva viramadeva cadeva
EndChar

StartChar: cadeva_viramadeva_radeva
Encoding: 65550 -1 48
Width: 646
VWidth: 0
GlyphClass: 2
Flags: HW
PickledData: "(dp1
S'com.typemytype.robofont.layerData'
p2
(dp3
S'original'
p4
(dp5
S'name'
p6
S'cadeva_viramadeva_radeva'
p7
sS'lib'
p8
(dp9
sS'unicodes'
p10
(tsS'width'
p11
I637
sS'contours'
p12
((dp13
S'points'
p14
((dp15
S'segmentType'
p16
S'line'
p17
sS'x'
I-13
sS'smooth'
p18
I00
sS'y'
I606
s(dp19
g16
S'line'
p20
sS'x'
I-13
sg18
I00
sS'y'
I666
s(dp21
g16
S'line'
p22
sS'x'
I651
sg18
I00
sS'y'
I666
s(dp23
g16
S'line'
p24
sS'x'
I651
sg18
I00
sS'y'
I606
s(dp25
g16
S'line'
p26
sS'x'
I538
sg18
I00
sS'y'
I606
s(dp27
g16
S'line'
p28
sS'x'
I538
sg18
I00
sS'y'
I0
s(dp29
g16
S'line'
p30
sS'x'
I471
sg18
I00
sS'y'
I0
s(dp31
g16
S'line'
p32
sS'x'
I471
sg18
I00
sS'y'
I216
s(dp33
g16
S'line'
p34
sS'x'
I125
sg18
I00
sS'y'
I-33
s(dp35
g16
S'line'
p36
sS'x'
I85
sg18
I00
sS'y'
I20
s(dp37
g16
S'line'
p38
sS'x'
I242
sg18
I00
sS'y'
I125
s(dp39
S'y'
F142.41999999999999
sS'x'
F176.34
sg18
I00
s(dp40
S'y'
F206.30000000000001
sS'x'
F132
sg18
I00
s(dp41
g16
S'curve'
p42
sS'x'
I132
sg18
I01
sS'y'
I280
s(dp43
S'y'
F344.31999999999999
sS'x'
F132
sg18
I00
s(dp44
S'y'
F399.19999999999999
sS'x'
F158.09999999999999
sg18
I00
s(dp45
g16
S'curve'
p46
sS'x'
I205
sg18
I00
sS'y'
I426
s(dp47
g16
S'line'
p48
sS'x'
I12
sg18
I00
sS'y'
I426
s(dp49
g16
S'line'
p50
sS'x'
I12
sg18
I00
sS'y'
I493
s(dp51
g16
S'line'
p52
sS'x'
I405
sg18
I00
sS'y'
I493
s(dp53
g16
S'line'
p54
sS'x'
I405
sg18
I00
sS'y'
I426
s(dp55
g16
S'line'
p56
sS'x'
I312
sg18
I00
sS'y'
I426
s(dp57
S'y'
F400.54000000000002
sS'x'
F243.66
sg18
I00
s(dp58
S'y'
F344.31999999999999
sS'x'
F198
sg18
I00
s(dp59
g16
S'curve'
p60
sS'x'
I198
sg18
I01
sS'y'
I280
s(dp61
S'y'
F227.74000000000001
sS'x'
F198
sg18
I00
s(dp62
S'y'
F186
sS'x'
F239.74000000000001
sg18
I00
s(dp63
g16
S'curve'
p64
sS'x'
I292
sg18
I01
sS'y'
I186
s(dp65
S'y'
F186
sS'x'
F330.86000000000001
sg18
I00
s(dp66
S'y'
F229.62
sS'x'
F394.62
sg18
I00
s(dp67
g16
S'curve'
p68
sS'x'
I471
sg18
I00
sS'y'
I306
s(dp69
g16
S'line'
p70
sS'x'
I471
sg18
I00
sS'y'
I606
stp71
stp72
sS'components'
p73
(tsS'anchors'
p74
(tsssS'com.typemytype.robofont.mark'
p75
(F0.75
F1
F1
F1
tp76
s."
LayerCount: 2
Fore
SplineSet
506 250 m 257
 423 226 l 257
 99 54 l 258
 93 51 91 45 91 38 c 256
 91 13 113 -32 128 -32 c 256
 131 -32 134 -32 139 -28 c 258
 506 250 l 257
EndSplineSet
Refer: 45 2330 N 1 0 0 1 0 0 2
LCarets2: 1 0 
Ligature2: "VattuVariantslookup30 subtable" cadeva viramadeva_radeva
EndChar

StartChar: candrabinduavagrahadeva
Encoding: 43255 43255 49
Width: 571
VWidth: 0
GlyphClass: 2
Flags: W
PickledData: "(dp1
S'com.typemytype.robofont.layerData'
p2
(dp3
S'original'
p4
(dp5
S'name'
p6
S'candrabinduavagrahadeva'
p7
sS'lib'
p8
(dp9
sS'unicodes'
p10
(tsS'width'
p11
I626
sS'contours'
p12
(tsS'components'
p13
(tsS'anchors'
p14
(tsssS'com.typemytype.robofont.mark'
p15
(I1
I1
I1
I0
tp16
s."
LayerCount: 2
Fore
SplineSet
272 -33 m 256
 365 -33 427 14 427 83 c 256
 427 203 231 227 231 306 c 256
 231 328 251 345 290 345 c 258
 403 345 l 257
 403 390 l 257
 290 390 l 258
 223 390 160 370 160 295 c 256
 160 178 347 167 347 84 c 256
 347 41 319 15 271 15 c 256
 229 15 200 43 200 77 c 256
 200 116 218 133 218 145 c 256
 218 149 213 153 203 153 c 256
 154 153 119 120 119 74 c 256
 119 16 178 -33 272 -33 c 256
236 644 m 256
 236 622 267 590 286 590 c 256
 307 590 338 622 338 644 c 256
 338 665 307 698 286 698 c 256
 266 698 236 665 236 644 c 256
286 506 m 256
 228 506 186 546 181 609 c 256
 177 655 168 661 156 661 c 256
 133 661 105 636 105 592 c 256
 105 517 183 465 286 465 c 256
 388 465 466 517 466 592 c 256
 466 636 438 661 415 661 c 256
 403 661 394 655 390 609 c 256
 385 546 342 506 286 506 c 256
EndSplineSet
Validated: 9
EndChar

StartChar: candrabindudeva
Encoding: 2305 2305 50
Width: 0
VWidth: 0
GlyphClass: 4
Flags: W
PickledData: "(dp1
S'com.typemytype.robofont.guides'
p2
((dp3
S'angle'
p4
F90
sS'name'
p5
NsS'magnetic'
p6
I5
sS'isGlobal'
p7
I00
sS'y'
I759
sS'x'
I-132
stp8
sS'com.typemytype.robofont.layerData'
p9
(dp10
S'original'
p11
(dp12
g5
S'candrabindudeva'
p13
sS'lib'
p14
(dp15
sS'unicodes'
p16
(tsS'width'
p17
I0
sS'contours'
p18
((dp19
S'points'
p20
((dp21
S'segmentType'
p22
S'line'
p23
sS'x'
I-178
sS'smooth'
p24
I00
sS'y'
I905
s(dp25
g22
S'line'
p26
sS'x'
I-178
sg24
I00
sS'y'
I992
s(dp27
g22
S'line'
p28
sS'x'
I-92
sg24
I00
sS'y'
I992
s(dp29
g22
S'line'
p30
sS'x'
I-92
sg24
I00
sS'y'
I905
stp31
s(dp32
g20
((dp33
g22
S'curve'
p34
sS'x'
I-132
sg24
I01
sS'y'
I759
s(dp35
S'y'
F759
sS'x'
F-236.52000000000001
sg24
I00
s(dp36
S'y'
F836.46000000000004
sS'x'
F-324.89999999999998
sg24
I00
s(dp37
g22
S'curve'
p38
sS'x'
I-345
sg24
I00
sS'y'
I945
s(dp39
g22
S'line'
p40
sS'x'
I-272
sg24
I00
sS'y'
I945
s(dp41
S'y'
F872.63999999999999
sS'x'
F-258.60000000000002
sg24
I00
s(dp42
S'y'
F819
sS'x'
F-199
sg24
I00
s(dp43
g22
S'curve'
p44
sS'x'
I-132
sg24
I01
sS'y'
I819
s(dp45
S'y'
F819
sS'x'
F-63.659999999999997
sg24
I00
s(dp46
S'y'
F872.63999999999999
sS'x'
F-4.0599999999999996
sg24
I00
s(dp47
g22
S'curve'
p48
sS'x'
I8
sg24
I00
sS'y'
I945
s(dp49
g22
S'line'
p50
sS'x'
I81
sg24
I00
sS'y'
I945
s(dp51
S'y'
F836.46000000000004
sS'x'
F62.240000000000002
sg24
I00
s(dp52
S'y'
F759
sS'x'
F-26.140000000000001
sg24
I00
stp53
stp54
sS'components'
p55
(tsS'anchors'
p56
(tsssS'com.typemytype.robofont.mark'
p57
(F0.75
F1
F1
F1
tp58
s."
AnchorPoint: "DVAnchor3" -143 666 mark 0
LayerCount: 2
Fore
SplineSet
-143 800 m 256
 -201 800 -243 840 -248 903 c 256
 -252 949 -261 955 -273 955 c 256
 -296 955 -324 930 -324 886 c 256
 -324 811 -246 759 -143 759 c 256
 -41 759 37 811 37 886 c 256
 37 930 9 955 -14 955 c 256
 -26 955 -35 949 -39 903 c 256
 -44 840 -87 800 -143 800 c 256
-193 938 m 256
 -193 916 -162 884 -143 884 c 256
 -122 884 -91 916 -91 938 c 256
 -91 959 -122 992 -143 992 c 256
 -163 992 -193 959 -193 938 c 256
EndSplineSet
Validated: 9
EndChar

StartChar: candrabindudigitthreedeva
Encoding: 43254 43254 51
Width: 571
VWidth: 0
GlyphClass: 2
Flags: W
PickledData: "(dp1
S'com.typemytype.robofont.layerData'
p2
(dp3
S'original'
p4
(dp5
S'name'
p6
S'candrabindudigitthreedeva'
p7
sS'lib'
p8
(dp9
sS'unicodes'
p10
(tsS'width'
p11
I650
sS'contours'
p12
(tsS'components'
p13
(tsS'anchors'
p14
(tsssS'com.typemytype.robofont.mark'
p15
(I1
I1
I1
I0
tp16
s."
LayerCount: 2
Fore
SplineSet
236 644 m 256
 236 622 267 590 286 590 c 256
 307 590 338 622 338 644 c 256
 338 665 307 698 286 698 c 256
 266 698 236 665 236 644 c 256
286 506 m 256
 228 506 186 546 181 609 c 256
 177 655 168 661 156 661 c 256
 133 661 105 636 105 592 c 256
 105 517 183 465 286 465 c 256
 388 465 466 517 466 592 c 256
 466 636 438 661 415 661 c 256
 403 661 394 655 390 609 c 256
 385 546 342 506 286 506 c 256
253 162 m 256
 326 162 364 128 364 85 c 256
 364 44 333 17 292 8 c 257
 248 53 216 63 187 63 c 256
 150 63 135 46 135 25 c 256
 135 -4 165 -42 246 -42 c 256
 387 -42 449 23 449 88 c 256
 449 148 387 209 278 209 c 256
 224 209 188 195 188 184 c 256
 188 174 193 155 204 155 c 256
 211 155 222 162 253 162 c 256
252 -31 m 257
 327 -58 406 -149 417 -149 c 256
 427 -149 447 -130 447 -123 c 256
 447 -111 381 -42 292 2 c 257
 252 -31 l 257
273 332 m 256
 323 332 349 308 349 278 c 256
 349 241 318 217 278 209 c 257
 264 172 l 257
 383 172 434 226 434 281 c 256
 434 331 382 382 280 382 c 256
 205 382 140 356 140 338 c 256
 140 327 145 307 156 307 c 256
 164 307 206 332 273 332 c 256
EndSplineSet
Validated: 5
EndChar

StartChar: candrabindudigittwodeva
Encoding: 43253 43253 52
Width: 571
VWidth: 0
GlyphClass: 2
Flags: W
PickledData: "(dp1
S'com.typemytype.robofont.layerData'
p2
(dp3
S'original'
p4
(dp5
S'name'
p6
S'candrabindudigittwodeva'
p7
sS'lib'
p8
(dp9
sS'unicodes'
p10
(tsS'width'
p11
I654
sS'contours'
p12
(tsS'components'
p13
(tsS'anchors'
p14
(tsssS'com.typemytype.robofont.mark'
p15
(I1
I1
I1
I0
tp16
s."
LayerCount: 2
Fore
SplineSet
236 644 m 256
 236 622 267 590 286 590 c 256
 307 590 338 622 338 644 c 256
 338 665 307 698 286 698 c 256
 266 698 236 665 236 644 c 256
286 506 m 256
 228 506 186 546 181 609 c 256
 177 655 168 661 156 661 c 256
 133 661 105 636 105 592 c 256
 105 517 183 465 286 465 c 256
 388 465 466 517 466 592 c 256
 466 636 438 661 415 661 c 256
 403 661 394 655 390 609 c 256
 385 546 342 506 286 506 c 256
255 327 m 256
 337 327 379 278 379 214 c 256
 379 148 337 105 280 90 c 257
 236 135 204 145 175 145 c 256
 138 145 123 128 123 107 c 256
 123 78 153 40 234 40 c 256
 393 40 464 129 464 217 c 256
 464 300 399 382 283 382 c 256
 211 382 124 354 124 338 c 256
 124 324 131 302 139 302 c 256
 148 302 187 327 255 327 c 256
240 51 m 257
 316 24 394 -67 405 -67 c 256
 415 -67 435 -49 435 -41 c 256
 435 -29 369 40 280 84 c 257
 240 51 l 257
EndSplineSet
Validated: 5
EndChar

StartChar: candrabinduinverteddeva
Encoding: 2304 2304 53
Width: 0
VWidth: 0
GlyphClass: 4
Flags: W
PickledData: "(dp1
S'com.typemytype.robofont.layerData'
p2
(dp3
S'original'
p4
(dp5
S'name'
p6
S'candrabinduinverteddeva'
p7
sS'lib'
p8
(dp9
sS'unicodes'
p10
(tsS'width'
p11
I0
sS'contours'
p12
((dp13
S'points'
p14
((dp15
S'segmentType'
p16
S'line'
p17
sS'x'
I-178
sS'smooth'
p18
I00
sS'y'
I846
s(dp19
g16
S'line'
p20
sS'x'
I-92
sg18
I00
sS'y'
I846
s(dp21
g16
S'line'
p22
sS'x'
I-92
sg18
I00
sS'y'
I759
s(dp23
g16
S'line'
p24
sS'x'
I-178
sg18
I00
sS'y'
I759
stp25
s(dp26
g14
((dp27
g16
S'curve'
p28
sS'x'
I-132
sg18
I01
sS'y'
I992
s(dp29
S'y'
F992
sS'x'
F-26.140000000000001
sg18
I00
s(dp30
S'y'
F914.53999999999996
sS'x'
F62.240000000000002
sg18
I00
s(dp31
g16
S'curve'
p32
sS'x'
I81
sg18
I00
sS'y'
I806
s(dp33
g16
S'line'
p34
sS'x'
I8
sg18
I00
sS'y'
I806
s(dp35
S'y'
F878.36000000000001
sS'x'
F-4.0599999999999996
sg18
I00
s(dp36
S'y'
F932
sS'x'
F-63.659999999999997
sg18
I00
s(dp37
g16
S'curve'
p38
sS'x'
I-132
sg18
I01
sS'y'
I932
s(dp39
S'y'
F932
sS'x'
F-199
sg18
I00
s(dp40
S'y'
F878.36000000000001
sS'x'
F-258.60000000000002
sg18
I00
s(dp41
g16
S'curve'
p42
sS'x'
I-272
sg18
I00
sS'y'
I806
s(dp43
g16
S'line'
p44
sS'x'
I-345
sg18
I00
sS'y'
I806
s(dp45
S'y'
F914.53999999999996
sS'x'
F-324.89999999999998
sg18
I00
s(dp46
S'y'
F992
sS'x'
F-236.52000000000001
sg18
I00
stp47
stp48
sS'components'
p49
(tsS'anchors'
p50
((dp51
S'y'
F666
sS'x'
F-120
sg6
S'_DVAnchor3'
p52
stp53
sssS'com.typemytype.robofont.mark'
p54
(F0.75
F1
F1
F1
tp55
s."
AnchorPoint: "DVAnchor3" -143 666 mark 0
LayerCount: 2
Fore
SplineSet
-193 813 m 256
 -193 792 -163 759 -143 759 c 256
 -122 759 -91 792 -91 813 c 256
 -91 835 -122 867 -143 867 c 256
 -162 867 -193 835 -193 813 c 256
-143 951 m 256
 -87 951 -44 911 -39 848 c 256
 -35 802 -26 796 -14 796 c 256
 9 796 37 821 37 865 c 256
 37 940 -41 992 -143 992 c 256
 -246 992 -324 940 -324 865 c 256
 -324 821 -296 796 -273 796 c 256
 -261 796 -252 802 -248 848 c 256
 -243 911 -201 951 -143 951 c 256
EndSplineSet
Validated: 9
EndChar

StartChar: candrabinduviramadeva
Encoding: 43251 43251 54
Width: 571
VWidth: 0
GlyphClass: 2
Flags: W
PickledData: "(dp1
S'com.typemytype.robofont.layerData'
p2
(dp3
S'original'
p4
(dp5
S'name'
p6
S'candrabinduviramadeva'
p7
sS'lib'
p8
(dp9
sS'unicodes'
p10
(tsS'width'
p11
I632
sS'contours'
p12
((dp13
S'points'
p14
((dp15
S'segmentType'
p16
S'line'
p17
sS'x'
I266
sS'smooth'
p18
I00
sS'y'
I220
s(dp19
g16
S'line'
p20
sS'x'
I232
sg18
I00
sS'y'
I267
s(dp21
g16
S'line'
p22
sS'x'
I312
sg18
I00
sS'y'
I327
s(dp23
g16
S'line'
p24
sS'x'
I552
sg18
I00
sS'y'
I140
s(dp25
g16
S'line'
p26
sS'x'
I512
sg18
I00
sS'y'
I100
s(dp27
g16
S'line'
p28
sS'x'
I312
sg18
I00
sS'y'
I260
stp29
s(dp30
g14
((dp31
g16
S'line'
p32
sS'x'
I267
sg18
I00
sS'y'
I578
s(dp33
g16
S'line'
p34
sS'x'
I267
sg18
I00
sS'y'
I665
s(dp35
g16
S'line'
p36
sS'x'
I353
sg18
I00
sS'y'
I665
s(dp37
g16
S'line'
p38
sS'x'
I353
sg18
I00
sS'y'
I578
stp39
s(dp40
g14
((dp41
g16
S'curve'
p42
sS'x'
I313
sg18
I01
sS'y'
I432
s(dp43
S'y'
F432
sS'x'
F208.47999999999999
sg18
I00
s(dp44
S'y'
F509.45999999999998
sS'x'
F120.09999999999999
sg18
I00
s(dp45
g16
S'curve'
p46
sS'x'
I100
sg18
I00
sS'y'
I618
s(dp47
g16
S'line'
p48
sS'x'
I173
sg18
I00
sS'y'
I618
s(dp49
S'y'
F545.63999999999999
sS'x'
F186.40000000000001
sg18
I00
s(dp50
S'y'
F492
sS'x'
F246
sg18
I00
s(dp51
g16
S'curve'
p52
sS'x'
I313
sg18
I01
sS'y'
I492
s(dp53
S'y'
F492
sS'x'
F381.33999999999997
sg18
I00
s(dp54
S'y'
F545.63999999999999
sS'x'
F440.94
sg18
I00
s(dp55
g16
S'curve'
p56
sS'x'
I453
sg18
I00
sS'y'
I618
s(dp57
g16
S'line'
p58
sS'x'
I526
sg18
I00
sS'y'
I618
s(dp59
S'y'
F509.45999999999998
sS'x'
F507.24000000000001
sg18
I00
s(dp60
S'y'
F432
sS'x'
F418.86000000000001
sg18
I00
stp61
stp62
sS'components'
p63
(tsS'anchors'
p64
(tsssS'com.typemytype.robofont.mark'
p65
(F0.1508399248
F0.30573034290000001
F0.19466084240000001
F1
tp66
s."
LayerCount: 2
Fore
SplineSet
236 644 m 256
 236 622 267 590 286 590 c 256
 307 590 338 622 338 644 c 256
 338 665 307 698 286 698 c 256
 266 698 236 665 236 644 c 256
286 506 m 256
 228 506 186 546 181 609 c 256
 177 655 168 661 156 661 c 256
 133 661 105 636 105 592 c 256
 105 517 183 465 286 465 c 256
 388 465 466 517 466 592 c 256
 466 636 438 661 415 661 c 256
 403 661 394 655 390 609 c 256
 385 546 342 506 286 506 c 256
477 132 m 256
 494 132 525 162 525 181 c 256
 525 187 522 191 514 197 c 258
 285 359 l 257
 217 318 l 258
 208 312 202 307 202 300 c 256
 202 285 227 252 241 252 c 256
 248 252 254 254 264 268 c 258
 286 298 l 257
 457 142 l 258
 465 135 471 132 477 132 c 256
EndSplineSet
Validated: 9
EndChar

StartChar: caretdeva
Encoding: 43258 43258 55
Width: 615
VWidth: 0
GlyphClass: 2
Flags: W
PickledData: "(dp1
S'com.typemytype.robofont.layerData'
p2
(dp3
S'original'
p4
(dp5
S'name'
p6
S'caretdeva'
p7
sS'lib'
p8
(dp9
sS'unicodes'
p10
(tsS'width'
p11
I615
sS'contours'
p12
(tsS'components'
p13
(tsS'anchors'
p14
(tsssS'com.typemytype.robofont.mark'
p15
(I1
I1
I1
I0
tp16
s."
LayerCount: 2
Fore
SplineSet
173 933 m 256
 148 933 108 900 108 885 c 256
 108 883 109 881 110 880 c 258
 277 666 l 257
 339 666 l 257
 506 880 l 258
 507 881 508 883 508 885 c 256
 508 900 469 934 444 934 c 256
 437 934 431 931 427 924 c 258
 308 712 l 257
 189 924 l 258
 185 931 180 933 173 933 c 256
EndSplineSet
Validated: 9
EndChar

StartChar: cent
Encoding: 162 162 56
Width: 498
VWidth: 0
GlyphClass: 2
Flags: W
PickledData: "(dp1
S'com.typemytype.robofont.layerData'
p2
(dp3
S'original'
p4
(dp5
S'name'
p6
S'cent'
p7
sS'lib'
p8
(dp9
sS'unicodes'
p10
(tsS'width'
p11
I749
sS'contours'
p12
(tsS'components'
p13
(tsS'anchors'
p14
(tsssS'com.typemytype.robofont.mark'
p15
(I1
I1
I1
I0
tp16
s."
LayerCount: 2
Fore
SplineSet
297 169 m 256
 208 169 151 248 151 369 c 256
 151 497 203 584 281 584 c 256
 339 584 377 549 377 495 c 256
 377 437 352 420 352 411 c 256
 352 402 358 399 372 399 c 256
 430 399 472 440 472 500 c 256
 472 577 404 631 308 636 c 257
 308 821 l 257
 287 821 258 815 244 797 c 257
 244 633 l 257
 122 611 44 510 44 367 c 256
 44 223 125 120 244 102 c 257
 244 -85 l 257
 266 -85 295 -79 308 -60 c 257
 308 102 l 257
 367 110 421 137 463 185 c 256
 465 187 466 190 466 195 c 256
 466 208 452 223 440 223 c 256
 435 223 432 221 431 220 c 256
 389 185 346 169 297 169 c 256
EndSplineSet
Validated: 9
EndChar

StartChar: chadeva
Encoding: 2331 2331 57
Width: 709
VWidth: 0
GlyphClass: 2
Flags: HW
PickledData: "(dp1
S'com.typemytype.robofont.layerData'
p2
(dp3
S'original'
p4
(dp5
S'name'
p6
S'chadeva'
p7
sS'lib'
p8
(dp9
sS'unicodes'
p10
(tsS'width'
p11
I709
sS'contours'
p12
((dp13
S'points'
p14
((dp15
S'segmentType'
p16
S'curve'
p17
sS'x'
I523
sS'smooth'
p18
I00
sS'y'
I220
s(dp19
S'y'
F254.84
sS'x'
F573.91999999999996
sg18
I00
s(dp20
S'y'
F309.72000000000003
sS'x'
F603
sg18
I00
s(dp21
g16
S'curve'
p22
sS'x'
I603
sg18
I01
sS'y'
I366
s(dp23
S'y'
F407.54000000000002
sS'x'
F603
sg18
I00
s(dp24
S'y'
F439
sS'x'
F568.55999999999995
sg18
I00
s(dp25
g16
S'curve'
p26
sS'x'
I523
sg18
I01
sS'y'
I439
s(dp27
S'y'
F439
sS'x'
F482.80000000000001
sg18
I00
s(dp28
S'y'
F404.22000000000003
sS'x'
F450
sg18
I00
s(dp29
g16
S'curve'
p30
sS'x'
I450
sg18
I01
sS'y'
I360
s(dp31
S'y'
F303.72000000000003
sS'x'
F450
sg18
I00
s(dp32
S'y'
F252.16
sS'x'
F477.44
sg18
I00
stp33
s(dp34
g14
((dp35
g16
S'curve'
p36
sS'x'
I310
sg18
I01
sS'y'
I100
s(dp37
S'y'
F100
sS'x'
F367.62
sg18
I00
s(dp38
S'y'
F123.12
sS'x'
F424.74000000000001
sg18
I00
s(dp39
g16
S'curve'
p40
sS'x'
I477
sg18
I00
sS'y'
I166
s(dp41
S'y'
F227.63999999999999
sS'x'
F415.36000000000001
sg18
I00
s(dp42
S'y'
F295.68000000000001
sS'x'
F384
sg18
I00
s(dp43
g16
S'curve'
p44
sS'x'
I384
sg18
I01
sS'y'
I360
s(dp45
S'y'
F433.69999999999999
sS'x'
F384
sg18
I00
s(dp46
S'y'
F495.27999999999997
sS'x'
F427.01999999999998
sg18
I00
s(dp47
g16
S'curve'
p48
sS'x'
I490
sg18
I00
sS'y'
I506
s(dp49
g16
S'line'
p50
sS'x'
I490
sg18
I00
sS'y'
I606
s(dp51
g16
S'line'
p52
sS'x'
I170
sg18
I00
sS'y'
I606
s(dp53
S'y'
F577.86000000000001
sS'x'
F136.5
sg18
I00
s(dp54
S'y'
F542.17999999999995
sS'x'
F117
sg18
I00
s(dp55
g16
S'curve'
p56
sS'x'
I117
sg18
I01
sS'y'
I506
s(dp57
S'y'
F453.74000000000001
sS'x'
F117
sg18
I00
s(dp58
S'y'
F413
sS'x'
F171.34
sg18
I00
s(dp59
g16
S'curve'
p60
sS'x'
I237
sg18
I01
sS'y'
I413
s(dp61
g16
S'line'
p62
sS'x'
I310
sg18
I00
sS'y'
I413
s(dp63
g16
S'line'
p64
sS'x'
I310
sg18
I00
sS'y'
I346
s(dp65
g16
S'line'
p66
sS'x'
I257
sg18
I01
sS'y'
I346
s(dp67
S'y'
F346
sS'x'
F198.03999999999999
sg18
I00
s(dp68
S'y'
F289.68000000000001
sS'x'
F150
sg18
I00
s(dp69
g16
S'curve'
p70
sS'x'
I150
sg18
I01
sS'y'
I220
s(dp71
S'y'
F153
sS'x'
F150
sg18
I00
s(dp72
S'y'
F100
sS'x'
F221.56
sg18
I00
stp73
s(dp74
g14
((dp75
g16
S'curve'
p76
sS'x'
I310
sg18
I01
sS'y'
I33
s(dp77
S'y'
F33
sS'x'
F185.38
sg18
I00
s(dp78
S'y'
F115.48
sS'x'
F84
sg18
I00
s(dp79
g16
S'curve'
p80
sS'x'
I84
sg18
I01
sS'y'
I220
s(dp81
S'y'
F284.31999999999999
sS'x'
F84
sg18
I00
s(dp82
S'y'
F340.83999999999997
sS'x'
F111.44
sg18
I00
s(dp83
g16
S'curve'
p84
sS'x'
I157
sg18
I00
sS'y'
I373
s(dp85
S'y'
F402.48000000000002
sS'x'
F91.340000000000003
sg18
I00
s(dp86
S'y'
F453.74000000000001
sS'x'
F51
sg18
I00
s(dp87
g16
S'curve'
p88
sS'x'
I51
sg18
I01
sS'y'
I506
s(dp89
S'y'
F550.22000000000003
sS'x'
F51
sg18
I00
s(dp90
S'y'
F588.58000000000004
sS'x'
F65.540000000000006
sg18
I00
s(dp91
g16
S'curve'
p92
sS'x'
I91
sg18
I00
sS'y'
I606
s(dp93
g16
S'line'
p94
sS'x'
I-13
sg18
I00
sS'y'
I606
s(dp95
g16
S'line'
p96
sS'x'
I-13
sg18
I00
sS'y'
I666
s(dp97
g16
S'line'
p98
sS'x'
I723
sg18
I00
sS'y'
I666
s(dp99
g16
S'line'
p100
sS'x'
I723
sg18
I00
sS'y'
I606
s(dp101
g16
S'line'
p102
sS'x'
I557
sg18
I00
sS'y'
I606
s(dp103
g16
S'line'
p104
sS'x'
I557
sg18
I00
sS'y'
I506
s(dp105
S'y'
F493.94
sS'x'
F622.65999999999997
sg18
I00
s(dp106
S'y'
F435.68000000000001
sS'x'
F670
sg18
I00
s(dp107
g16
S'curve'
p108
sS'x'
I670
sg18
I01
sS'y'
I366
s(dp109
S'y'
F209.22
sS'x'
F670
sg18
I00
s(dp110
S'y'
F33
sS'x'
F480.18000000000001
sg18
I00
stp111
stp112
sS'components'
p113
(tsS'anchors'
p114
((dp115
S'y'
F664
sS'x'
F526
sg6
S'DVAnchor3'
p116
s(dp117
S'y'
F61
sS'x'
F322
sg6
S'DVAnchor0'
p118
stp119
sssS'com.typemytype.robofont.mark'
p120
(F0.75
F1
F1
F1
tp121
s."
AnchorPoint: "DVAnchor0" 322 61 basechar 0
AnchorPoint: "DVAnchor3" 526 664 basechar 0
LayerCount: 2
Back
SplineSet
947 273 m 256
 892 273 868 233 868 197 c 256
 868 146 880 135 880 123 c 256
 880 115 871 113 863 113 c 256
 831 113 794 135 794 194 c 256
 794 288 875 320 954 320 c 1280
75 229 m 256
 75 112 159 34 308 34 c 256
 484 34 670 154 670 350 c 256
 670 393 645 492 513 492 c 256
 440 492 379 443 379 355 c 256
 379 241 482 179 568 179 c 256
 582 179 584 189 584 207 c 256
 584 215 583 223 581 223 c 256
 512 223 456 260 456 355 c 256
 456 419 485 445 514 445 c 256
 558 445 591 400 591 337 c 256
 591 189 481 87 308 87 c 256
 206 87 161 156 161 226 c 256
 161 297 207 368 303 368 c 256
 313 368 319 380 319 393 c 256
 319 403 316 410 309 410 c 256
 135 410 75 310 75 229 c 256
-13 621 m 257
 723 621 l 257
 723 666 l 257
 -13 666 l 257
 -13 621 l 257
253 404 m 257
 189 411 125 439 125 527 c 256
 125 583 158 625 199 625 c 257
 197 648 l 257
 109 648 46 588 46 517 c 256
 46 445 95 394 187 366 c 257
 253 404 l 257
480 453 m 257
 566 453 l 257
 566 621 l 257
 480 621 l 257
 480 453 l 257
EndSplineSet
Fore
SplineSet
375 355 m 260
 375 268 429 248 461 248 c 260
 469 248 478 250 478 258 c 260
 478 270 452 290 452 358 c 260
 452 422 489 445 518 445 c 260
 562 445 591 400 591 337 c 260
 591 189 481 87 308 87 c 256
 206 87 161 156 161 226 c 256
 161 297 207 368 303 368 c 256
 313 368 319 380 319 393 c 256
 319 403 316 410 309 410 c 256
 135 410 75 310 75 229 c 256
 75 112 159 34 308 34 c 256
 484 34 670 154 670 350 c 260
 670 393 649 492 517 492 c 260
 444 492 375 443 375 355 c 260
-13 621 m 257
 723 621 l 257
 723 666 l 257
 -13 666 l 257
 -13 621 l 257
253 404 m 257
 189 411 125 439 125 527 c 256
 125 583 158 625 199 625 c 257
 197 648 l 257
 109 648 46 588 46 517 c 256
 46 445 95 394 187 366 c 257
 253 404 l 257
480 453 m 261
 566 453 l 257
 566 621 l 257
 480 621 l 261
 480 453 l 261
EndSplineSet
EndChar

StartChar: chadeva_viramadeva
Encoding: 65551 -1 58
Width: 709
VWidth: 0
GlyphClass: 2
Flags: HW
PickledData: "(dp1
S'com.typemytype.robofont.layerData'
p2
(dp3
S'original'
p4
(dp5
S'name'
p6
S'chadeva_viramadeva'
p7
sS'lib'
p8
(dp9
sS'unicodes'
p10
(tsS'width'
p11
I709
sS'contours'
p12
((dp13
S'points'
p14
((dp15
S'segmentType'
p16
S'curve'
p17
sS'x'
I523
sS'smooth'
p18
I00
sS'y'
I220
s(dp19
S'y'
F254.84
sS'x'
F573.91999999999996
sg18
I00
s(dp20
S'y'
F309.72000000000003
sS'x'
F603
sg18
I00
s(dp21
g16
S'curve'
p22
sS'x'
I603
sg18
I01
sS'y'
I366
s(dp23
S'y'
F407.54000000000002
sS'x'
F603
sg18
I00
s(dp24
S'y'
F439
sS'x'
F568.55999999999995
sg18
I00
s(dp25
g16
S'curve'
p26
sS'x'
I523
sg18
I01
sS'y'
I439
s(dp27
S'y'
F439
sS'x'
F482.80000000000001
sg18
I00
s(dp28
S'y'
F404.22000000000003
sS'x'
F450
sg18
I00
s(dp29
g16
S'curve'
p30
sS'x'
I450
sg18
I01
sS'y'
I360
s(dp31
S'y'
F303.72000000000003
sS'x'
F450
sg18
I00
s(dp32
S'y'
F252.16
sS'x'
F477.44
sg18
I00
stp33
s(dp34
g14
((dp35
g16
S'curve'
p36
sS'x'
I310
sg18
I01
sS'y'
I33
s(dp37
S'y'
F33
sS'x'
F185.38
sg18
I00
s(dp38
S'y'
F115.48
sS'x'
F84
sg18
I00
s(dp39
g16
S'curve'
p40
sS'x'
I84
sg18
I01
sS'y'
I220
s(dp41
S'y'
F284.31999999999999
sS'x'
F84
sg18
I00
s(dp42
S'y'
F340.83999999999997
sS'x'
F111.44
sg18
I00
s(dp43
g16
S'curve'
p44
sS'x'
I157
sg18
I00
sS'y'
I373
s(dp45
S'y'
F402.48000000000002
sS'x'
F91.340000000000003
sg18
I00
s(dp46
S'y'
F453.74000000000001
sS'x'
F51
sg18
I00
s(dp47
g16
S'curve'
p48
sS'x'
I51
sg18
I01
sS'y'
I506
s(dp49
S'y'
F550.22000000000003
sS'x'
F51
sg18
I00
s(dp50
S'y'
F588.58000000000004
sS'x'
F65.540000000000006
sg18
I00
s(dp51
g16
S'curve'
p52
sS'x'
I91
sg18
I00
sS'y'
I606
s(dp53
g16
S'line'
p54
sS'x'
I-13
sg18
I00
sS'y'
I606
s(dp55
g16
S'line'
p56
sS'x'
I-13
sg18
I00
sS'y'
I666
s(dp57
g16
S'line'
p58
sS'x'
I723
sg18
I00
sS'y'
I666
s(dp59
g16
S'line'
p60
sS'x'
I723
sg18
I00
sS'y'
I606
s(dp61
g16
S'line'
p62
sS'x'
I170
sg18
I00
sS'y'
I606
s(dp63
S'y'
F577.86000000000001
sS'x'
F136.5
sg18
I00
s(dp64
S'y'
F542.17999999999995
sS'x'
F117
sg18
I00
s(dp65
g16
S'curve'
p66
sS'x'
I117
sg18
I01
sS'y'
I506
s(dp67
S'y'
F453.74000000000001
sS'x'
F117
sg18
I00
s(dp68
S'y'
F413
sS'x'
F171.34
sg18
I00
s(dp69
g16
S'curve'
p70
sS'x'
I237
sg18
I01
sS'y'
I413
s(dp71
g16
S'line'
p72
sS'x'
I310
sg18
I00
sS'y'
I413
s(dp73
g16
S'line'
p74
sS'x'
I310
sg18
I00
sS'y'
I346
s(dp75
g16
S'line'
p76
sS'x'
I257
sg18
I01
sS'y'
I346
s(dp77
S'y'
F346
sS'x'
F198.03999999999999
sg18
I00
s(dp78
S'y'
F289.68000000000001
sS'x'
F150
sg18
I00
s(dp79
g16
S'curve'
p80
sS'x'
I150
sg18
I01
sS'y'
I220
s(dp81
S'y'
F153
sS'x'
F150
sg18
I00
s(dp82
S'y'
F100
sS'x'
F221.56
sg18
I00
s(dp83
g16
S'curve'
p84
sS'x'
I310
sg18
I01
sS'y'
I100
s(dp85
S'y'
F100
sS'x'
F367.62
sg18
I00
s(dp86
S'y'
F123.12
sS'x'
F424.74000000000001
sg18
I00
s(dp87
g16
S'curve'
p88
sS'x'
I477
sg18
I00
sS'y'
I166
s(dp89
S'y'
F227.63999999999999
sS'x'
F415.36000000000001
sg18
I00
s(dp90
S'y'
F295.68000000000001
sS'x'
F384
sg18
I00
s(dp91
g16
S'curve'
p92
sS'x'
I384
sg18
I01
sS'y'
I360
s(dp93
S'y'
F441.74000000000001
sS'x'
F384
sg18
I00
s(dp94
S'y'
F506
sS'x'
F446.62
sg18
I00
s(dp95
g16
S'curve'
p96
sS'x'
I523
sg18
I01
sS'y'
I506
s(dp97
S'y'
F506
sS'x'
F606.08000000000004
sg18
I00
s(dp98
S'y'
F442.38
sS'x'
F670
sg18
I00
s(dp99
g16
S'curve'
p100
sS'x'
I670
sg18
I01
sS'y'
I366
s(dp101
S'y'
F209.22
sS'x'
F670
sg18
I00
s(dp102
S'y'
F33
sS'x'
F480.18000000000001
sg18
I00
stp103
stp104
sS'components'
p105
(tsS'anchors'
p106
(tsssS'com.typemytype.robofont.mark'
p107
(F0.75
F1
F1
F1
tp108
s."
LayerCount: 2
Back
SplineSet
253 404 m 257
 189 411 125 439 125 527 c 256
 125 583 158 625 199 625 c 257
 197 648 l 257
 109 648 46 588 46 517 c 256
 46 445 95 394 187 366 c 257
 253 404 l 257
-13 621 m 257
 723 621 l 257
 723 666 l 257
 -13 666 l 257
 -13 621 l 257
75 229 m 256
 75 112 159 34 308 34 c 256
 484 34 670 154 670 350 c 256
 670 393 645 492 513 492 c 256
 440 492 379 443 379 355 c 256
 379 241 482 179 568 179 c 256
 582 179 584 189 584 207 c 256
 584 215 583 223 581 223 c 256
 512 223 456 260 456 355 c 256
 456 419 485 445 514 445 c 256
 558 445 591 400 591 337 c 256
 591 189 481 87 308 87 c 256
 206 87 161 156 161 226 c 256
 161 297 207 368 303 368 c 256
 313 368 319 380 319 393 c 256
 319 403 316 410 309 410 c 256
 135 410 75 310 75 229 c 256
EndSplineSet
Fore
SplineSet
591 337 m 256
 591 189 481 87 308 87 c 256
 206 87 161 156 161 226 c 256
 161 297 207 368 303 368 c 256
 313 368 319 380 319 393 c 256
 319 403 316 410 309 410 c 256
 135 410 75 310 75 229 c 256
 75 112 159 34 308 34 c 256
 484 34 670 154 670 350 c 256
 670 393 649 492 517 492 c 260
 444 492 375 443 375 355 c 260
 375 268 429 248 461 248 c 260
 469 248 478 250 478 258 c 260
 478 270 452 290 452 358 c 260
 452 422 489 445 518 445 c 260
 562 445 591 400 591 337 c 256
253 404 m 257
 189 411 125 439 125 527 c 256
 125 583 158 625 199 625 c 257
 197 648 l 257
 109 648 46 588 46 517 c 256
 46 445 95 394 187 366 c 257
 253 404 l 257
-13 621 m 257
 723 621 l 257
 723 666 l 257
 -13 666 l 257
 -13 621 l 257
EndSplineSet
LCarets2: 1 0 
Ligature2: "HalfFormslookup10 subtable" chadeva viramadeva
Colour: ff00
EndChar

StartChar: chadeva_viramadeva_vadeva
Encoding: 65552 -1 59
Width: 753
VWidth: 0
GlyphClass: 2
Flags: HW
PickledData: "(dp1
S'com.typemytype.robofont.layerData'
p2
(dp3
S'original'
p4
(dp5
S'name'
p6
S'chadeva_viramadeva_vadeva'
p7
sS'lib'
p8
(dp9
sS'unicodes'
p10
(tsS'width'
p11
I668
sS'contours'
p12
(tsS'components'
p13
(tsS'anchors'
p14
(tsssS'com.typemytype.robofont.mark'
p15
(I1
I1
I1
I0
tp16
s."
AnchorPoint: "DVAnchor0" 529 -147 basechar 0
LayerCount: 2
Back
SplineSet
-13 621 m 257
 486 621 l 257
 486 535 l 257
 572 535 l 257
 572 621 l 257
 766 621 l 257
 766 666 l 257
 -13 666 l 257
 -13 621 l 257
312 325 m 256
 321 325 327 337 327 350 c 256
 327 360 325 367 318 367 c 256
 283 367 248 363 216 355 c 257
 170 360 125 379 125 440 c 256
 125 480 154 511 188 511 c 256
 225 511 244 489 244 461 c 256
 244 427 236 421 236 414 c 256
 236 408 241 407 249 407 c 256
 286 407 316 432 316 476 c 256
 316 520 274 552 198 552 c 256
 109 552 46 501 46 440 c 256
 46 386 83 348 155 327 c 257
 123 307 109 281 109 254 c 256
 109 182 183 137 317 137 c 256
 482 137 699 211 699 405 c 256
 699 450 670 552 521 552 c 256
 444 552 378 515 378 446 c 256
 378 370 464 329 527 329 c 256
 541 329 542 338 542 352 c 256
 542 361 541 370 534 370 c 256
 492 370 450 392 450 446 c 256
 450 497 486 518 523 518 c 256
 576 518 615 466 615 409 c 256
 615 270 499 184 317 184 c 256
 232 184 195 221 195 258 c 256
 195 292 233 325 312 325 c 256
531 -10 m 256
 513 -10 459 -118 338 -118 c 256
 294 -118 250 -89 250 -30 c 256
 250 24 278 47 311 47 c 256
 353 47 373 24 373 -8 c 256
 373 -42 365 -48 365 -55 c 256
 365 -61 370 -63 378 -63 c 256
 414 -63 444 -36 444 7 c 256
 444 54 404 94 312 94 c 256
 216 94 164 38 164 -30 c 256
 164 -113 238 -167 330 -167 c 256
 454 -167 558 -50 558 -32 c 256
 558 -23 544 -10 531 -10 c 256
491 -167 m 257
 567 -167 l 257
 567 202 l 257
 491 202 l 257
 491 -167 l 257
EndSplineSet
Fore
SplineSet
533 518 m 260
 586 518 615 466 615 409 c 256
 615 270 499 184 317 184 c 256
 232 184 195 221 195 258 c 256
 195 292 233 325 312 325 c 256
 321 325 327 337 327 350 c 256
 327 360 325 367 318 367 c 256
 283 367 248 363 216 355 c 257
 170 360 125 379 125 440 c 256
 125 480 154 511 188 511 c 256
 225 511 244 489 244 461 c 256
 244 427 236 421 236 414 c 256
 236 408 241 407 249 407 c 256
 286 407 316 432 316 476 c 256
 316 520 274 552 198 552 c 256
 109 552 46 501 46 440 c 256
 46 386 83 348 155 327 c 257
 123 307 109 281 109 254 c 256
 109 182 183 137 317 137 c 256
 482 137 699 211 699 405 c 256
 699 450 680 552 531 552 c 260
 458 552 380 516 380 428 c 260
 380 356 443 328 475 328 c 260
 483 328 492 330 492 338 c 260
 492 350 457 363 457 431 c 260
 457 495 494 518 533 518 c 260
-13 621 m 257
 486 621 l 257
 486 535 l 257
 572 535 l 257
 572 621 l 257
 766 621 l 257
 766 666 l 257
 -13 666 l 257
 -13 621 l 257
531 -10 m 256
 513 -10 459 -118 338 -118 c 256
 294 -118 250 -89 250 -30 c 256
 250 24 278 47 311 47 c 256
 353 47 373 24 373 -8 c 256
 373 -42 365 -48 365 -55 c 256
 365 -61 370 -63 378 -63 c 256
 414 -63 444 -36 444 7 c 256
 444 54 404 94 312 94 c 256
 216 94 164 38 164 -30 c 256
 164 -113 238 -167 330 -167 c 256
 454 -167 558 -50 558 -32 c 256
 558 -23 544 -10 531 -10 c 256
491 -167 m 257
 567 -167 l 257
 567 202 l 257
 491 202 l 257
 491 -167 l 257
EndSplineSet
LCarets2: 2 0 0 
Ligature2: "PreBaseSubstitutionslookup1 subtable" chadeva_viramadeva vadeva
Ligature2: "LocalizedMrHalfFormslookup1 subtable" cadeva viramadeva vadeva
Colour: ff00
EndChar

StartChar: colon
Encoding: 58 58 60
Width: 196
VWidth: 0
GlyphClass: 2
Flags: W
PickledData: "(dp1
S'com.typemytype.robofont.layerData'
p2
(dp3
S'original'
p4
(dp5
S'name'
p6
S'colon'
p7
sS'lib'
p8
(dp9
sS'unicodes'
p10
(tsS'width'
p11
I279
sS'contours'
p12
(tsS'components'
p13
(tsS'anchors'
p14
(tsssS'com.typemytype.robofont.mark'
p15
(I1
I1
I1
I0
tp16
s."
LayerCount: 2
Fore
SplineSet
34 52 m 256
 34 26 73 -14 96 -14 c 256
 122 -14 161 26 161 52 c 256
 161 79 122 120 96 120 c 256
 72 120 34 79 34 52 c 256
34 421 m 256
 34 394 73 354 96 354 c 256
 122 354 161 394 161 421 c 256
 161 447 122 488 96 488 c 256
 72 488 34 447 34 421 c 256
EndSplineSet
Validated: 9
EndChar

StartChar: comma
Encoding: 44 44 61
Width: 196
VWidth: 0
GlyphClass: 2
Flags: W
PickledData: "(dp1
S'com.typemytype.robofont.layerData'
p2
(dp3
S'original'
p4
(dp5
S'name'
p6
S'comma'
p7
sS'lib'
p8
(dp9
sS'unicodes'
p10
(tsS'width'
p11
I359
sS'contours'
p12
(tsS'components'
p13
(tsS'anchors'
p14
(tsssS'com.typemytype.robofont.mark'
p15
(I1
I1
I1
I0
tp16
s."
LayerCount: 2
Fore
SplineSet
19 102 m 257
 25 78 l 257
 43 66 l 258
 58 54 67 43 67 28 c 256
 67 16 62 2 54 -14 c 258
 7 -106 l 257
 37 -126 l 257
 77 -83 l 258
 125 -32 161 11 161 53 c 256
 161 103 131 122 94 122 c 256
 76 122 55 117 37 110 c 258
 19 102 l 257
EndSplineSet
Validated: 9
EndChar

StartChar: da_ddha_ra_yadeva
Encoding: 65553 -1 62
Width: 1292
VWidth: 0
GlyphClass: 3
Flags: W
PickledData: "(dp1
S'com.typemytype.robofont.layerData'
p2
(dp3
S'original'
p4
(dp5
S'name'
p6
S'da_ddha_ra_yadeva'
p7
sS'lib'
p8
(dp9
sS'unicodes'
p10
(tsS'width'
p11
I1284
sS'contours'
p12
(tsS'components'
p13
(tsS'anchors'
p14
(tsssS'com.typemytype.robofont.mark'
p15
(I1
I1
I1
I0
tp16
s."
AnchorPoint: "DVAnchor0" 1151 -20 basechar 0
LayerCount: 2
Fore
SplineSet
1108 0 m 257
 1194 0 l 257
 1194 636 l 257
 1108 636 l 257
 1108 0 l 257
601 472 m 257
 601 636 l 257
 1305 636 l 257
 1305 666 l 257
 -13 666 l 257
 -13 621 l 257
 514 621 l 257
 514 472 l 257
 601 472 l 257
632 68 m 257
 587 5 526 -30 455 -30 c 256
 379 -30 344 14 344 60 c 256
 344 95 367 130 413 142 c 257
 374 182 l 257
 316 165 258 127 258 51 c 256
 258 -30 330 -83 440 -83 c 256
 515 -83 594 -49 657 26 c 257
 632 68 l 257
309 79 m 257
 277 72 250 69 227 69 c 256
 129 69 109 124 109 174 c 256
 109 214 133 237 161 237 c 256
 188 237 202 216 202 188 c 256
 202 152 192 147 192 139 c 256
 192 133 196 132 205 132 c 256
 242 132 271 157 271 201 c 256
 271 246 235 279 165 279 c 256
 86 279 30 229 30 167 c 256
 30 123 52 24 205 24 c 256
 234 24 269 28 310 37 c 257
 309 79 l 257
570 157 m 257
 550 152 528 150 503 150 c 256
 417 150 377 206 377 279 c 256
 377 450 572 460 665 460 c 256
 806 460 867 423 867 371 c 256
 867 326 824 290 754 274 c 257
 754 149 851 71 968 71 c 256
 1108 71 1173 153 1173 155 c 256
 1173 167 1161 182 1151 182 c 256
 1141 182 1082 119 978 119 c 256
 908 119 848 158 839 252 c 257
 909 272 952 321 952 377 c 256
 952 455 870 511 665 511 c 256
 512 511 296 479 296 281 c 256
 296 157 395 95 495 95 c 256
 525 95 552 99 577 107 c 257
 602 -12 694 -121 729 -121 c 256
 748 -121 753 -100 753 -95 c 256
 753 -89 752 -86 741 -76 c 256
 684 -27 643 41 625 126 c 257
 667 150 712 177 712 227 c 256
 712 258 692 290 649 290 c 256
 600 290 570 255 570 157 c 257
526 -124 m 258
 516 -130 513 -134 513 -143 c 256
 513 -170 540 -198 555 -198 c 256
 562 -198 567 -197 580 -186 c 258
 694 -86 l 258
 708 -74 711 -68 711 -61 c 256
 711 -51 701 -36 687 -36 c 256
 682 -36 678 -37 667 -43 c 258
 526 -124 l 258
EndSplineSet
Validated: 5
Ligature2: "ConjunctFormslookup11 subtable" dadeva_viramadeva dhadeva_viramadeva_radeva viramadeva yadeva
Ligature2: "ConjunctFormslookup11 subtable" dadeva_viramadeva_dhadeva viramadeva_radeva viramadeva yadeva
EndChar

StartChar: dadeva
Encoding: 2342 2342 63
Width: 550
VWidth: 0
GlyphClass: 2
Flags: HW
PickledData: "(dp1
S'com.typemytype.robofont.layerData'
p2
(dp3
S'original'
p4
(dp5
S'name'
p6
S'dadeva'
p7
sS'lib'
p8
(dp9
sS'unicodes'
p10
(tsS'width'
p11
I541
sS'contours'
p12
((dp13
S'points'
p14
((dp15
S'y'
I213
sS'x'
I387
sS'smooth'
p16
I00
s(dp17
S'y'
I213
sS'x'
I327
sg16
I00
s(dp18
S'segmentType'
p19
S'curve'
p20
sS'x'
I327
sg16
I00
sS'y'
I213
s(dp21
S'y'
I103
sS'x'
I327
sg16
I00
s(dp22
S'y'
I17
sS'x'
I407
sg16
I00
s(dp23
g19
S'curve'
p24
sS'x'
I454
sg16
I01
sS'y'
I-5
s(dp25
S'y'
I-9
sS'x'
I462
sg16
I00
s(dp26
S'y'
I-11
sS'x'
I469
sg16
I00
s(dp27
g19
S'curve'
p28
sS'x'
I474
sg16
I00
sS'y'
I-11
s(dp29
S'y'
I-11
sS'x'
I474
sg16
I00
s(dp30
S'y'
I6
sS'x'
I489
sg16
I00
s(dp31
g19
S'curve'
p32
sS'x'
I489
sg16
I01
sS'y'
I15
s(dp33
S'y'
I22
sS'x'
I489
sg16
I00
s(dp34
S'y'
I26
sS'x'
I490
sg16
I00
s(dp35
g19
S'curve'
p36
sS'x'
I477
sg16
I01
sS'y'
I36
s(dp37
S'y'
I77
sS'x'
I423
sg16
I00
s(dp38
S'y'
I136
sS'x'
I387
sg16
I00
s(dp39
g19
S'curve'
p40
sS'x'
I387
sg16
I00
sS'y'
I213
stp41
stp42
sS'components'
p43
(tsS'anchors'
p44
(tsssS'com.typemytype.robofont.mark'
p45
(F0.75
F1
F1
F1
tp46
s."
HStem: 103 58<195.493 343.148> 135 78<369 400> 445 46<258.915 380>
VStem: 43 86<222.543 365.223> 335 156<125 267.648> 335 65<157.875 213>
AnchorPoint: "DVAnchor0" 487 -86 basechar 0
AnchorPoint: "DVAnchor3" 425 666 basechar 0
LayerCount: 2
Back
SplineSet
380 213 m 256x78
 380 170 414 135 458 135 c 256
 501 135 536 170 536 213 c 256
 536 257 501 292 458 292 c 256
 414 292 380 257 380 213 c 256x78
478 200 m 257
 440 175 393 161 335 161 c 256
 239 161 174 214 174 292 c 256
 174 364 203 440 511 445 c 257
 511 621 l 257
 608 621 l 257
 608 666 l 257
 32 666 l 257
 32 621 l 257
 425 621 l 257
 425 491 l 257
 215 481 88 417 88 293 c 256
 88 166 212 103 335 103 c 256xb8
 405 103 536 125 536 213 c 257
 478 200 l 257
380 213 m 257x78
 380 84 475 -23 521 -55 c 256
 533.530273438 -63.716796875 539 -64 544 -64 c 256
 556 -64 568 -47 568 -36 c 256
 568 -29 567.034179688 -24.1435546875 555 -13 c 256
 501 37 445 136 445 213 c 257x74
 380 213 l 257x78
380 213 m 256
 380 170 414 135 458 135 c 256
 501 135 536 170 536 213 c 256
 536 257 501 292 458 292 c 256
 414 292 380 257 380 213 c 256
478 200 m 257
 440 175 393 161 335 161 c 256
 239 161 174 214 174 292 c 256
 174 364 203 440 511 445 c 257
 511 621 l 257
 608 621 l 257
 608 666 l 257
 32 666 l 257
 32 621 l 257
 425 621 l 257
 425 491 l 257
 215 481 88 417 88 293 c 256
 88 166 212 103 335 103 c 256
 405 103 536 125 536 213 c 257
 478 200 l 257
380 213 m 261
 380 103 449 30 500 -2 c 260
 513 -10 518 -11 523 -11 c 260
 533 -11 544 6 544 17 c 260
 544 24 543 27 530 37 c 260
 476 79 440 136 440 213 c 261
 380 213 l 261
EndSplineSet
Fore
SplineSet
335 173 m 256x78
 335 130 369 95 413 95 c 256
 456 95 491 130 491 173 c 256
 491 217 456 252 413 252 c 256
 369 252 335 217 335 173 c 256x78
433 152 m 257
 395 127 348 113 290 113 c 256
 194 113 129 171.556640625 129 256 c 256
 129 328 158 440 466 445 c 257
 466 621 l 257
 563 621 l 257
 563 666 l 257
 -13 666 l 257
 -13 621 l 257
 380 621 l 257
 380 491 l 257
 170 481 43 381 43 257 c 256
 43 122.728515625 167 63 290 63 c 256xb8
 360 63 491 85 491 173 c 257
 433 152 l 257
335 173 m 261x78
 335 44 430 -63 476 -95 c 260
 488.530273438 -103.716796875 494 -104 499 -104 c 260
 511 -104 523 -87 523 -76 c 260
 523 -69 522.034179688 -64.1435546875 510 -53 c 260
 456 -3 400 96 400 173 c 261x74
 335 173 l 261x78
EndSplineSet
Colour: ff00
EndChar

StartChar: dadeva_rvocalicsigndeva
Encoding: 65554 -1 64
Width: 550
VWidth: 0
GlyphClass: 2
Flags: HW
PickledData: "(dp1
S'com.typemytype.robofont.layerData'
p2
(dp3
S'original'
p4
(dp5
S'name'
p6
S'dadeva_rvocalicsigndeva'
p7
sS'lib'
p8
(dp9
sS'unicodes'
p10
(tsS'width'
p11
I541
sS'contours'
p12
((dp13
S'points'
p14
((dp15
S'segmentType'
p16
S'line'
p17
sS'x'
I-13
sS'smooth'
p18
I00
sS'y'
I606
s(dp19
g16
S'line'
p20
sS'x'
I-13
sg18
I00
sS'y'
I666
s(dp21
g16
S'line'
p22
sS'x'
I566
sg18
I00
sS'y'
I666
s(dp23
g16
S'line'
p24
sS'x'
I566
sg18
I00
sS'y'
I606
s(dp25
g16
S'line'
p26
sS'x'
I463
sg18
I00
sS'y'
I606
s(dp27
g16
S'line'
p28
sS'x'
I463
sg18
I00
sS'y'
I433
s(dp29
g16
S'line'
p30
sS'x'
I204
sg18
I01
sS'y'
I433
s(dp31
S'y'
F433
sS'x'
F147.72
sg18
I00
s(dp32
S'y'
F390.92000000000002
sS'x'
F104
sg18
I00
s(dp33
g16
S'curve'
p34
sS'x'
I104
sg18
I01
sS'y'
I340
s(dp35
S'y'
F243.52000000000001
sS'x'
F104
sg18
I00
s(dp36
S'y'
F166
sS'x'
F216.30000000000001
sg18
I00
s(dp37
g16
S'curve'
p38
sS'x'
I357
sg18
I00
sS'y'
I166
s(dp39
S'y'
F182.08000000000001
sS'x'
F347.62
sg18
I00
s(dp40
S'y'
F197.25999999999999
sS'x'
F344
sg18
I00
s(dp41
g16
S'curve'
p42
sS'x'
I344
sg18
I01
sS'y'
I212
s(dp43
S'y'
F256.22000000000003
sS'x'
F344
sg18
I00
s(dp44
S'y'
F293
sS'x'
F375.45999999999998
sg18
I00
s(dp45
g16
S'curve'
p46
sS'x'
I417
sg18
I01
sS'y'
I293
s(dp47
S'y'
F293
sS'x'
F457.19999999999999
sg18
I00
s(dp48
S'y'
F263.51999999999998
sS'x'
F490
sg18
I00
s(dp49
g16
S'curve'
p50
sS'x'
I490
sg18
I01
sS'y'
I226
s(dp51
S'y'
F191.16
sS'x'
F490
sg18
I00
s(dp52
S'y'
F155.78
sS'x'
F470.5
sg18
I00
s(dp53
g16
S'curve'
p54
sS'x'
I437
sg18
I00
sS'y'
I133
s(dp55
g16
S'line'
p56
sS'x'
I517
sg18
I00
sS'y'
I-33
s(dp57
g16
S'line'
p58
sS'x'
I357
sg18
I01
sS'y'
I-33
s(dp59
S'y'
F-33
sS'x'
F312.77999999999997
sg18
I00
s(dp60
S'y'
F-71.760000000000005
sS'x'
F277
sg18
I00
s(dp61
g16
S'curve'
p62
sS'x'
F277
sg18
I01
sg6
S'inserted'
p63
sS'y'
F-120
s(dp64
S'y'
F-168.24000000000001
sS'x'
F277
sg18
I00
s(dp65
S'y'
F-206
sS'x'
F319.07999999999998
sg18
I00
s(dp66
g16
S'curve'
p67
sS'x'
I370
sg18
I01
sS'y'
I-206
s(dp68
S'y'
F-206
sS'x'
F414.22000000000003
sg18
I00
s(dp69
S'y'
F-192.80000000000001
sS'x'
F459.48000000000002
sg18
I00
s(dp70
g16
S'curve'
p71
sS'x'
I497
sg18
I00
sS'y'
I-166
s(dp72
g16
S'line'
p73
sS'x'
I517
sg18
I00
sS'y'
I-233
s(dp74
S'y'
F-254.44
sS'x'
F486.18000000000001
sg18
I00
s(dp75
S'y'
F-266
sS'x'
F434.31999999999999
sg18
I00
s(dp76
g16
S'curve'
p77
sS'x'
I370
sg18
I01
sS'y'
I-266
s(dp78
S'y'
F-266
sS'x'
F277.54000000000002
sg18
I00
s(dp79
S'y'
F-201.74000000000001
sS'x'
F204
sg18
I00
s(dp80
g16
S'curve'
p81
sS'x'
F204
sg18
I01
sg6
S'inserted'
p82
sS'y'
F-120
s(dp83
S'y'
F-38.259999999999998
sS'x'
F204
sg18
I00
s(dp84
S'y'
F27
sS'x'
F268.25999999999999
sg18
I00
s(dp85
g16
S'curve'
p86
sS'x'
I350
sg18
I01
sS'y'
I27
s(dp87
g16
S'line'
p88
sS'x'
I410
sg18
I00
sS'y'
I27
s(dp89
g16
S'line'
p90
sS'x'
I370
sg18
I00
sS'y'
I107
s(dp91
S'y'
F107
sS'x'
F185.08000000000001
sg18
I00
s(dp92
S'y'
F211.36000000000001
sS'x'
F37
sg18
I00
s(dp93
g16
S'curve'
p94
sS'x'
I37
sg18
I01
sS'y'
I340
s(dp95
S'y'
F428.44
sS'x'
F37
sg18
I00
s(dp96
S'y'
F499
sS'x'
F110.2
sg18
I00
s(dp97
g16
S'curve'
p98
sS'x'
I204
sg18
I01
sS'y'
I499
s(dp99
g16
S'line'
p100
sS'x'
I397
sg18
I00
sS'y'
I499
s(dp101
g16
S'line'
p102
sS'x'
I397
sg18
I00
sS'y'
I606
stp103
stp104
sS'components'
p105
(tsS'anchors'
p106
(tsssS'com.typemytype.robofont.mark'
p107
(F0.75
F1
F1
F1
tp108
s."
LayerCount: 2
Fore
SplineSet
499 -104 m 262
 506 -104 507 -93 507 -83 c 260
 507 -65 505 -55 492 -55 c 262
 410 -55 l 262
 334 -55 234 -104 234 -209 c 260
 234 -305 310 -358 401 -358 c 260
 444 -358 488 -344 532 -321 c 260
 538 -317 540 -313 540 -308 c 260
 540 -295 528 -271 520 -271 c 260
 514 -271 479 -306 410 -306 c 260
 361 -306 312 -276 312 -202 c 260
 312 -133 359 -104 417 -104 c 262
 499 -104 l 262
EndSplineSet
Refer: 63 2342 N 1 0 0 1 0 0 2
LCarets2: 1 0 
Ligature2: "BlwsSub_Ligature_Ukaar subtable" dadeva rvocalicsigndeva
Colour: ff00
EndChar

StartChar: dadeva_viramadeva_badeva
Encoding: 65556 -1 66
Width: 676
VWidth: 0
GlyphClass: 2
Flags: HW
PickledData: "(dp1
S'com.typemytype.robofont.layerData'
p2
(dp3
S'original'
p4
(dp5
S'name'
p6
S'dadeva_viramadeva_badeva'
p7
sS'lib'
p8
(dp9
sS'unicodes'
p10
(tsS'width'
p11
I549
sS'contours'
p12
(tsS'components'
p13
(tsS'anchors'
p14
(tsssS'com.typemytype.robofont.mark'
p15
(I1
I1
I1
I0
tp16
s."
HStem: -134 53<179.68 344.603> 74 58<322.974 440.975> 74 29<444 490.375> 148 47<172.678 246>
VStem: 41 87<-32.4876 104.861> 168 86<197.282 342.321> 444 157<94 226.616> 472 32<111.118 153.912>
AnchorPoint: "DVAnchor0" 611 -86 basechar 0
LayerCount: 2
Fore
SplineSet
459 173 m 256x78
 459 130 493 95 537 95 c 256
 580 95 615 130 615 173 c 256
 615 217 580 252 537 252 c 256
 493 252 459 217 459 173 c 256x78
557 152 m 257
 519 127 472 113 414 113 c 256
 318 113 253 171.556640625 253 256 c 256
 253 328 282 440 590 445 c 257
 590 621 l 257
 689 621 l 257
 689 666 l 257
 -13 666 l 257
 -13 621 l 257
 504 621 l 257
 504 491 l 257
 294 481 167 381 167 257 c 256
 167 122.728515625 291 63 414 63 c 256xb8
 484 63 615 85 615 173 c 257
 557 152 l 257
459 173 m 257x78
 459 44 554 -63 600 -95 c 256
 612.530273438 -103.716796875 618 -104 623 -104 c 256
 635 -104 647 -87 647 -76 c 256
 647 -69 646.034179688 -64.1435546875 634 -53 c 256
 580 -3 524 96 524 173 c 257x74
 459 173 l 257x78
246 -134 m 256
 351 -134 468 -66 497 103 c 257
 444 103 l 257xbe
 424 -12 355 -81 260 -81 c 256
 169 -81 128 -24 128 33 c 256
 128 90 168 148 239 148 c 256
 246 148 254 160 254 174 c 256
 254 190 251 195 245 195 c 256
 111 195 41 110 41 27 c 256
 41 -54 108 -134 246 -134 c 256
120 107 m 257
 353 -98 l 257
 385 -58 l 257
 154 146 l 257
 120 107 l 257
EndSplineSet
LCarets2: 2 0 0 
Ligature2: "PreBaseSubstitutionslookup1 subtable" dadeva_viramadeva badeva
Ligature2: "ConjunctFormslookup11 subtable" dadeva viramadeva badeva
Ligature2: "LocalizedMrHalfFormslookup1 subtable" dadeva viramadeva badeva
Colour: ff00
EndChar

StartChar: dadeva_viramadeva_bhadeva
Encoding: 65557 -1 67
Width: 849
VWidth: 0
GlyphClass: 2
Flags: HW
PickledData: "(dp1
S'com.typemytype.robofont.layerData'
p2
(dp3
S'original'
p4
(dp5
S'name'
p6
S'dadeva_viramadeva_bhadeva'
p7
sS'lib'
p8
(dp9
sS'unicodes'
p10
(tsS'width'
p11
I617
sS'contours'
p12
(tsS'components'
p13
(tsS'anchors'
p14
(tsssS'com.typemytype.robofont.mark'
p15
(I1
I1
I1
I0
tp16
s."
AnchorPoint: "DVAnchor0" 784 -86 basechar 0
LayerCount: 2
Back
SplineSet
353 -53 m 257
 665 79 l 257
 644 128 l 257
 332 -5 l 257
 353 -53 l 257
714 165 m 261
 680 144 638 132 586 132 c 260
 490 132 425 186 425 268 c 260
 425 344 480 425 692 431 c 261
 692 621 l 261
 862 621 l 261
 862 666 l 261
 -13 666 l 261
 -13 621 l 261
 606 621 l 261
 606 471 l 261
 471 461 339 396 339 268 c 260
 339 139 463 74 586 74 c 260
 651 74 772 94 772 179 c 261
 714 165 l 261
322 126 m 258
 296 188 256 240 173 240 c 256
 75 240 29 182 29 124 c 256
 29 66 74 10 156 10 c 256
 181 10 231 18 231 36 c 256
 231 42 221 72 212 72 c 256
 211 72 210 71 210 71 c 258
 196 65 182 62 169 62 c 256
 123 62 99 95 99 128 c 256
 99 158 121 188 165 188 c 256
 202 188 224 166 241 123 c 258
 314 -54 l 257
 384 -23 l 257
 322 126 l 258
225 -62 m 256
 239 -94 266 -110 295 -110 c 256
 341 -110 379 -74 379 -31 c 256
 379 21 336 50 312 50 c 256
 307 50 303 49 298 47 c 257
 306 29 309 16 309 7 c 256
 309 -20 283 -20 272 -20 c 256
 265 -20 258 -19 251 -19 c 256
 235 -19 221 -26 221 -43 c 256
 221 -49 223 -55 225 -62 c 256
615 134 m 256
 615 -6 734 -154 774 -154 c 256
 793 -154 798 -133 798 -128 c 256
 798 -122 797 -119 786 -109 c 256
 718 -45 675 53 675 179 c 257
 652 162 643 146 643 134 c 256
 643 114 667 101 693 101 c 256
 737 101 772 135 772 179 c 256
 772 222 737 257 693 257 c 256
 650 257 615 222 615 134 c 256
EndSplineSet
Fore
SplineSet
632 173 m 256x78
 632 130 666 95 710 95 c 256
 753 95 788 130 788 173 c 256
 788 217 753 252 710 252 c 256
 666 252 632 217 632 173 c 256x78
730 152 m 257
 692 127 645 113 587 113 c 256
 491 113 426 181.556640625 426 266 c 256
 426 358 455 440 692 445 c 257
 692 621 l 257
 862 621 l 257
 862 666 l 257
 -13 666 l 257
 -13 621 l 257
 606 621 l 257
 606 491 l 257
 467 481 340 431 340 267 c 256
 340 132.728515625 464 63 587 63 c 256xb8
 657 63 788 85 788 173 c 257
 730 152 l 257
632 173 m 257x78
 632 44 727 -63 773 -95 c 256
 785.530273438 -103.716796875 791 -104 796 -104 c 256
 808 -104 820 -87 820 -76 c 256
 820 -69 819.034179688 -64.1435546875 807 -53 c 256
 753 -3 697 96 697 173 c 257x74
 632 173 l 257x78
353 -63 m 257
 665 69 l 257
 644 118 l 257
 332 -15 l 257
 353 -63 l 257
322 116 m 258
 296 178 256 230 173 230 c 256
 75 230 29 172 29 114 c 256
 29 56 74 0 156 0 c 256
 181 0 231 8 231 26 c 256
 231 32 221 62 212 62 c 256
 211 62 210 61 210 61 c 258
 196 55 182 52 169 52 c 256
 123 52 99 85 99 118 c 256
 99 148 121 178 165 178 c 256
 202 178 224 156 241 113 c 258
 314 -64 l 257
 384 -33 l 257
 322 116 l 258
295 -120 m 0
 348 -120 381 -84 381 -41 c 256
 381 11 336 40 312 40 c 256
 307 40 303 39 298 37 c 257
 306 19 315 7 315 -2 c 256
 315 -17 303 -28 282 -28 c 256
 270 -28 250 -24 243 -24 c 256
 227 -24 218 -36 218 -53 c 256
 218 -95 259 -120 295 -120 c 0
EndSplineSet
LCarets2: 2 0 0 
Ligature2: "PreBaseSubstitutionslookup1 subtable" dadeva_viramadeva bhadeva
Ligature2: "ConjunctFormslookup11 subtable" dadeva viramadeva bhadeva
Ligature2: "LocalizedMrHalfFormslookup1 subtable" dadeva viramadeva bhadeva
EndChar

StartChar: dadeva_viramadeva_dadeva
Encoding: 65558 -1 68
Width: 557
VWidth: 0
GlyphClass: 2
Flags: W
PickledData: "(dp1
S'com.typemytype.robofont.layerData'
p2
(dp3
S'original'
p4
(dp5
S'name'
p6
S'dadeva_viramadeva_dadeva'
p7
sS'lib'
p8
(dp9
sS'unicodes'
p10
(tsS'width'
p11
I557
sS'contours'
p12
(tsS'components'
p13
(tsS'anchors'
p14
(tsssS'com.typemytype.robofont.mark'
p15
(I1
I1
I1
I0
tp16
s."
AnchorPoint: "DVAnchor0" 448 -29 basechar 0
LayerCount: 2
Fore
SplineSet
199 310 m 257
 155 323 127 354 127 392 c 256
 127 444 166 468 232 468 c 258
 423 468 l 257
 423 621 l 257
 593 621 l 257
 593 666 l 257
 -13 666 l 257
 -13 621 l 257
 337 621 l 257
 337 519 l 257
 216 519 l 258
 100 519 44 475 44 398 c 256
 44 339 96 289 183 268 c 257
 199 310 l 257
350 361 m 256
 214 361 83 305 83 209 c 256
 83 103 204 50 325 50 c 256
 389 50 511 70 511 155 c 257
 453 141 l 257
 419 120 376 108 325 108 c 256
 232 108 169 148 169 209 c 256
 169 260 205 318 344 318 c 256
 354 318 360 331 360 344 c 256
 360 353 357 361 350 361 c 256
365 114 m 256
 365 28 453 -64 477 -64 c 256
 486 -64 492 -47 492 -38 c 256
 492 -30 493 -26 480 -15 c 256
 446 15 406 93 406 143 c 257
 354 106 384 77 422 77 c 256
 471 77 511 111 511 155 c 256
 511 191 480 221 443 221 c 256
 400 221 365 190 365 114 c 256
EndSplineSet
Validated: 37
Ligature2: "PreBaseSubstitutionslookup1 subtable" dadeva_viramadeva dadeva
Ligature2: "ConjunctFormslookup11 subtable" dadeva viramadeva dadeva
Ligature2: "LocalizedMrHalfFormslookup1 subtable" dadeva viramadeva dadeva
EndChar

StartChar: dadeva_viramadeva_dhadeva
Encoding: 65559 -1 69
Width: 847
VWidth: 0
GlyphClass: 2
Flags: HW
PickledData: "(dp1
S'com.typemytype.robofont.layerData'
p2
(dp3
S'original'
p4
(dp5
S'name'
p6
S'dadeva_viramadeva_dhadeva'
p7
sS'lib'
p8
(dp9
sS'unicodes'
p10
(tsS'width'
p11
I732
sS'contours'
p12
(tsS'components'
p13
(tsS'anchors'
p14
(tsssS'com.typemytype.robofont.mark'
p15
(I1
I1
I1
I0
tp16
s."
AnchorPoint: "DVAnchor0" 784 -86 basechar 0
LayerCount: 2
Back
SplineSet
715 165 m 257
 681 144 639 132 587 132 c 256
 491 132 426 186 426 268 c 256
 426 344 481 425 693 431 c 257
 693 621 l 257
 862 621 l 257
 862 666 l 257
 -1 666 l 257
 -1 621 l 257
 607 621 l 257
 607 471 l 257
 472 461 340 396 340 268 c 256
 340 139 464 74 587 74 c 256
 652 74 773 94 773 179 c 257
 715 165 l 257
295 91 m 257
 198 99 122 134 122 213 c 256
 122 267 151 298 186 298 c 256
 224 298 243 267 243 228 c 256
 243 192 233 187 233 179 c 256
 233 174 237 172 246 172 c 256
 283 172 312 197 312 241 c 256
 312 298 271 340 194 340 c 256
 106 340 43 280 43 206 c 256
 43 137 101 66 233 60 c 257
 189 33 170 -4 170 -41 c 256
 170 -122 245 -175 363 -175 c 256
 491 -175 634 -95 669 103 c 257
 616 103 l 257
 590 -38 502 -122 378 -122 c 256
 294 -122 256 -77 256 -32 c 256
 256 11 292 54 358 54 c 256
 365 54 373 66 373 79 c 256
 373 96 371 101 364 101 c 256
 340 101 317 97 295 91 c 257
616 134 m 256
 616 -6 735 -154 775 -154 c 256
 794 -154 799 -133 799 -128 c 256
 799 -122 798 -119 787 -109 c 256
 719 -45 676 53 676 179 c 257
 653 162 644 146 644 134 c 256
 644 114 668 101 694 101 c 256
 738 101 773 135 773 179 c 256
 773 222 738 257 694 257 c 256
 651 257 616 222 616 134 c 256
EndSplineSet
Fore
SplineSet
632 173 m 256x78
 632 130 666 95 710 95 c 256
 753 95 788 130 788 173 c 256
 788 217 753 252 710 252 c 256
 666 252 632 217 632 173 c 256x78
730 152 m 257
 692 127 645 113 587 113 c 256
 491 113 426 171.556640625 426 256 c 256
 426 328 455 440 763 445 c 257
 763 621 l 257
 860 621 l 257
 860 666 l 257
 -13 666 l 257
 -13 621 l 257
 677 621 l 257
 677 491 l 257
 467 481 340 381 340 257 c 256
 340 122.728515625 464 63 587 63 c 256xb8
 657 63 788 85 788 173 c 257
 730 152 l 257
632 173 m 257x78
 632 44 727 -63 773 -95 c 256
 785.530273438 -103.716796875 791 -104 796 -104 c 256
 808 -104 820 -87 820 -76 c 256
 820 -69 819.034179688 -64.1435546875 807 -53 c 256
 753 -3 697 96 697 173 c 257x74
 632 173 l 257x78
295 91 m 257
 198 99 122 134 122 213 c 256
 122 267 151 298 186 298 c 256
 224 298 243 267 243 228 c 256
 243 192 233 187 233 179 c 256
 233 174 237 172 246 172 c 256
 283 172 312 197 312 241 c 256
 312 298 271 340 194 340 c 256
 106 340 43 280 43 206 c 256
 43 137 101 66 233 60 c 257
 189 33 170 -4 170 -41 c 256
 170 -122 245 -175 363 -175 c 256
 491 -175 661 -76 696 122 c 257
 643 122 l 257
 617 -19 502 -122 378 -122 c 256
 294 -122 256 -77 256 -32 c 256
 256 11 292 54 358 54 c 256
 365 54 373 66 373 79 c 256
 373 96 371 101 364 101 c 256
 340 101 317 97 295 91 c 257
EndSplineSet
LCarets2: 2 0 0 
Ligature2: "PreBaseSubstitutionslookup1 subtable" dadeva_viramadeva dhadeva
Ligature2: "ConjunctFormslookup11 subtable" dadeva viramadeva dhadeva
Ligature2: "LocalizedMrHalfFormslookup1 subtable" dadeva viramadeva dhadeva
Colour: ff00
EndChar

StartChar: dadeva_viramadeva_gadeva
Encoding: 65560 -1 70
Width: 550
VWidth: 0
GlyphClass: 2
Flags: HW
PickledData: "(dp1
S'com.typemytype.robofont.layerData'
p2
(dp3
S'original'
p4
(dp5
S'name'
p6
S'dadeva_viramadeva_gadeva'
p7
sS'lib'
p8
(dp9
sS'unicodes'
p10
(tsS'width'
p11
I539
sS'contours'
p12
(tsS'components'
p13
(tsS'anchors'
p14
(tsssS'com.typemytype.robofont.mark'
p15
(I1
I1
I1
I0
tp16
s."
AnchorPoint: "DVAnchor0" 487 -86 basechar 0
LayerCount: 2
Fore
SplineSet
335 173 m 260x78
 335 130 369 95 413 95 c 260
 456 95 491 130 491 173 c 260
 491 217 456 252 413 252 c 260
 369 252 335 217 335 173 c 260x78
433 152 m 261
 395 127 348 113 290 113 c 260
 194 113 129 171.556640625 129 256 c 260
 129 328 158 440 466 445 c 261
 466 621 l 261
 563 621 l 261
 563 666 l 261
 -13 666 l 261
 -13 621 l 261
 380 621 l 261
 380 491 l 261
 170 481 43 381 43 257 c 260
 43 122.728515625 167 63 290 63 c 260xb8
 360 63 491 85 491 173 c 261
 433 152 l 261
335 173 m 261x78
 335 44 430 -63 476 -95 c 260
 488.530273438 -103.716796875 494 -104 499 -104 c 260
 511 -104 523 -87 523 -76 c 260
 523 -69 522.034179688 -64.1435546875 510 -53 c 260
 456 -3 400 96 400 173 c 261x74
 335 173 l 261x78
219 108 m 261
 142 129 l 261
 142 -84 l 261
 219 -84 l 261
 219 108 l 261
84 -84 m 260
 84 -125 114 -151 151 -151 c 260
 188 -151 219 -125 219 -84 c 260
 219 -47 178 -19 142 -19 c 261
 142 -63 132 -73 121 -73 c 260
 111 -73 101 -66 94 -66 c 260
 88 -66 84 -70 84 -84 c 260
EndSplineSet
LCarets2: 2 0 0 
Ligature2: "PreBaseSubstitutionslookup1 subtable" dadeva_viramadeva gadeva
Ligature2: "ConjunctFormslookup11 subtable" dadeva viramadeva gadeva
Ligature2: "LocalizedMrHalfFormslookup1 subtable" dadeva viramadeva gadeva
Colour: ff00
EndChar

StartChar: dadeva_viramadeva_ghadeva
Encoding: 65561 -1 71
Width: 768
VWidth: 0
GlyphClass: 2
Flags: HW
PickledData: "(dp1
S'com.typemytype.robofont.layerData'
p2
(dp3
S'original'
p4
(dp5
S'name'
p6
S'dadeva_viramadeva_ghadeva'
p7
sS'lib'
p8
(dp9
sS'unicodes'
p10
(tsS'width'
p11
I665
sS'contours'
p12
(tsS'components'
p13
(tsS'anchors'
p14
(tsssS'com.typemytype.robofont.mark'
p15
(I1
I1
I1
I0
tp16
s."
AnchorPoint: "DVAnchor0" 692 -86 basechar 0
LayerCount: 2
Back
SplineSet
309 269 m 257
 287 292 248 306 194 306 c 256
 106 306 42 247 42 176 c 256
 42 121 79 81 151 60 c 257
 107 33 88 -4 88 -41 c 256
 88 -122 163 -175 281 -175 c 256
 409 -175 551 -95 587 103 c 257
 534 103 l 257
 508 -38 420 -122 296 -122 c 256
 212 -122 174 -77 174 -32 c 256
 174 11 210 54 276 54 c 256
 283 54 291 66 291 79 c 256
 291 96 289 101 282 101 c 256
 258 101 235 97 213 92 c 257
 167 97 121 115 121 171 c 256
 121 230 179 257 238 257 c 256
 283 257 330 241 352 211 c 258
 309 269 l 257
633 165 m 257
 599 144 557 132 505 132 c 256
 409 132 344 186 344 268 c 256
 344 344 399 425 611 431 c 257
 611 621 l 257
 781 621 l 257
 781 666 l 257
 -13 666 l 257
 -13 621 l 257
 525 621 l 257
 525 471 l 257
 390 461 258 396 258 268 c 256
 258 139 382 74 505 74 c 256
 570 74 691 94 691 179 c 257
 633 165 l 257
534 134 m 256
 534 -6 653 -154 693 -154 c 256
 712 -154 717 -133 717 -128 c 256
 717 -122 716 -119 705 -109 c 256
 637 -45 594 53 594 179 c 257
 571 162 562 146 562 134 c 256
 562 114 586 101 612 101 c 256
 656 101 691 135 691 179 c 256
 691 222 656 257 612 257 c 256
 569 257 534 222 534 134 c 256
EndSplineSet
Fore
SplineSet
540 173 m 260x78
 540 130 574 95 618 95 c 256
 661 95 696 130 696 173 c 256
 696 217 661 252 618 252 c 260
 574 252 540 217 540 173 c 260x78
638 152 m 261
 600 127 553 113 495 113 c 260
 399 113 334 171.556640625 334 256 c 260
 334 328 363 440 671 445 c 261
 671 621 l 261
 781 621 l 261
 781 666 l 261
 -13 666 l 261
 -13 621 l 261
 585 621 l 261
 585 491 l 261
 375 481 248 381 248 257 c 260
 248 122.728515625 372 63 495 63 c 260xb8
 565 63 696 85 696 173 c 261
 638 152 l 261
540 173 m 261x78
 540 44 635 -63 681 -95 c 260
 693.530273438 -103.716796875 699 -104 704 -104 c 260
 716 -104 728 -87 728 -76 c 260
 728 -69 727.034179688 -64.1435546875 715 -53 c 260
 661 -3 605 96 605 173 c 261x74
 540 173 l 261x78
309 279 m 257
 287 292 264 306 184 306 c 256
 86 306 22 247 22 176 c 256
 22 121 59 81 131 60 c 257
 87 33 68 -4 68 -41 c 256
 68 -122 143 -175 261 -175 c 256
 419 -175 570 -62 606 136 c 257
 553 136 l 257
 527 -5 430 -122 276 -122 c 256
 192 -122 154 -77 154 -32 c 256
 154 11 190 54 256 54 c 256
 263 54 271 66 271 79 c 256
 271 96 269 101 262 101 c 256
 238 101 215 97 193 92 c 257
 147 97 101 115 101 171 c 256
 101 230 159 257 218 257 c 256
 263 257 310 241 332 211 c 258
 309 279 l 257
EndSplineSet
LCarets2: 2 0 0 
Ligature2: "PreBaseSubstitutionslookup1 subtable" dadeva_viramadeva ghadeva
Ligature2: "ConjunctFormslookup11 subtable" dadeva viramadeva ghadeva
Ligature2: "LocalizedMrHalfFormslookup1 subtable" dadeva viramadeva ghadeva
Colour: ff00
EndChar

StartChar: dadeva_viramadeva_madeva
Encoding: 65562 -1 72
Width: 778
VWidth: 0
GlyphClass: 2
Flags: HW
PickledData: "(dp1
S'com.typemytype.robofont.layerData'
p2
(dp3
S'original'
p4
(dp5
S'name'
p6
S'dadeva_viramadeva_madeva'
p7
sS'lib'
p8
(dp9
sS'unicodes'
p10
(tsS'width'
p11
I713
sS'contours'
p12
(tsS'components'
p13
(tsS'anchors'
p14
(tsssS'com.typemytype.robofont.mark'
p15
(I1
I1
I1
I0
tp16
s."
LayerCount: 2
Fore
SplineSet
239 95 m 256x60
 239 37 283 1 336 1 c 256xa0
 388 1 433 37 433 95 c 256
 433 126 373 129 373 129 c 257x60
 373 129 379 130 348 130 c 256xa0
 307 130 289 141 269 141 c 256
 249 141 239 119 239 95 c 256x60
602 621 m 257
 602 -146 l 257
 688 -146 l 257
 688 621 l 257
 602 621 l 257
382 76 m 257
 609 76 l 257
 609 128 l 257
 382 128 l 257
 382 76 l 257
274 241 m 258
 328 241 347 213 347 171 c 258
 347 118 l 257
 433 118 l 257
 433 171 l 258
 433 249 377 292 295 293 c 258
 203 293 l 258
 146 294 127 325 127 371 c 256
 127 423 157 447 245 447 c 258
 384 447 l 257
 384 621 l 257
 791 621 l 257
 791 666 l 257
 -13 666 l 257
 -13 621 l 257
 298 621 l 257
 298 498 l 257
 216 498 l 258
 100 498 44 454 44 377 c 256
 44 291 99 243 182 242 c 258
 274 241 l 258
EndSplineSet
LCarets2: 2 0 0 
Ligature2: "PreBaseSubstitutionslookup1 subtable" dadeva_viramadeva madeva
Ligature2: "ConjunctFormslookup11 subtable" dadeva viramadeva madeva
Ligature2: "LocalizedMrHalfFormslookup1 subtable" dadeva viramadeva madeva
Colour: ff00
EndChar

StartChar: dadeva_viramadeva_nadeva
Encoding: 65563 -1 73
Width: 550
VWidth: 0
GlyphClass: 2
Flags: HW
PickledData: "(dp1
S'com.typemytype.robofont.layerData'
p2
(dp3
S'original'
p4
(dp5
S'name'
p6
S'dadeva_viramadeva_nadeva'
p7
sS'lib'
p8
(dp9
sS'unicodes'
p10
(tsS'width'
p11
I575
sS'contours'
p12
(tsS'components'
p13
(tsS'anchors'
p14
(tsssS'com.typemytype.robofont.mark'
p15
(I1
I1
I1
I0
tp16
s."
HStem: 103 58<240.493 388.148> 135 78<414 445> 445 46<303.915 425>
VStem: 88 86<222.543 365.223> 147 99<-81.9843 5.22895> 380 65<157.875 213> 380 156<125 267.648>
AnchorPoint: "DVAnchor0" 487 -86 basechar 0
LayerCount: 2
Fore
SplineSet
244 -125 m 256x28
 244 -102 196 -87 196 -59 c 256
 196 -40 205 -31 230 -16 c 258
 435 101 l 257
 410 147 l 257
 160 4 l 258
 125 -16 97 -47 97 -91 c 256
 97 -142 136 -166 180 -166 c 256
 203 -166 244 -153 244 -125 c 256x28
EndSplineSet
Refer: 63 2342 N 1 0 0 1 0 0 2
LCarets2: 2 0 0 
Ligature2: "PreBaseSubstitutionslookup1 subtable" dadeva_viramadeva nadeva
Ligature2: "ConjunctFormslookup11 subtable" dadeva viramadeva nadeva
Ligature2: "LocalizedMrHalfFormslookup1 subtable" dadeva viramadeva nadeva
Colour: ff00
EndChar

StartChar: dadeva_viramadeva_radeva
Encoding: 65564 -1 74
Width: 550
VWidth: 0
GlyphClass: 2
Flags: HW
PickledData: "(dp1
S'com.typemytype.robofont.layerData'
p2
(dp3
S'original'
p4
(dp5
S'name'
p6
S'dadeva_viramadeva_radeva'
p7
sS'lib'
p8
(dp9
sS'unicodes'
p10
(tsS'width'
p11
I541
sS'contours'
p12
((dp13
S'points'
p14
((dp15
S'segmentType'
p16
S'line'
p17
sS'x'
I-13
sS'smooth'
p18
I00
sS'y'
I606
s(dp19
g16
S'line'
p20
sS'x'
I-13
sg18
I00
sS'y'
I666
s(dp21
g16
S'line'
p22
sS'x'
I561
sg18
I00
sS'y'
I666
s(dp23
g16
S'line'
p24
sS'x'
I561
sg18
I00
sS'y'
I606
s(dp25
g16
S'line'
p26
sS'x'
I451
sg18
I00
sS'y'
I606
s(dp27
g16
S'line'
p28
sS'x'
I451
sg18
I00
sS'y'
I433
s(dp29
g16
S'line'
p30
sS'x'
I205
sg18
I01
sS'y'
I433
s(dp31
S'y'
F433
sS'x'
F150.06
sg18
I00
s(dp32
S'y'
F390.92000000000002
sS'x'
F105
sg18
I00
s(dp33
g16
S'curve'
p34
sS'x'
I105
sg18
I01
sS'y'
I340
s(dp35
S'y'
F254.24000000000001
sS'x'
F105
sg18
I00
s(dp36
S'y'
F166
sS'x'
F207.47999999999999
sg18
I00
s(dp37
g16
S'curve'
p38
sS'x'
I312
sg18
I01
sS'y'
I166
s(dp39
S'y'
F166
sS'x'
F329.42000000000002
sg18
I00
s(dp40
S'y'
F168.97999999999999
sS'x'
F343.95999999999998
sg18
I00
s(dp41
g16
S'curve'
p42
sS'x'
I352
sg18
I00
sS'y'
I173
s(dp43
S'y'
F190.41999999999999
sS'x'
F338.60000000000002
sg18
I00
s(dp44
S'y'
F209.91999999999999
sS'x'
F332
sg18
I00
s(dp45
g16
S'curve'
p46
sS'x'
I332
sg18
I01
sS'y'
I226
s(dp47
S'y'
F263.51999999999998
sS'x'
F332
sg18
I00
s(dp48
S'y'
F293
sS'x'
F363.45999999999998
sg18
I00
s(dp49
g16
S'curve'
p50
sS'x'
I405
sg18
I01
sS'y'
I293
s(dp51
S'y'
F293
sS'x'
F445.19999999999999
sg18
I00
s(dp52
S'y'
F260.19999999999999
sS'x'
F478
sg18
I00
s(dp53
g16
S'curve'
p54
sS'x'
I478
sg18
I01
sS'y'
I220
s(dp55
S'y'
F189.18000000000001
sS'x'
F478
sg18
I00
s(dp56
S'y'
F158.75999999999999
sS'x'
F458.5
sg18
I00
s(dp57
g16
S'curve'
p58
sS'x'
I425
sg18
I00
sS'y'
I140
s(dp59
S'y'
F97.120000000000005
sS'x'
F441.07999999999998
sg18
I00
s(dp60
S'y'
F49.579999999999998
sS'x'
F470.80000000000001
sg18
I00
s(dp61
g16
S'curve'
p62
sS'x'
I511
sg18
I00
sS'y'
I0
s(dp63
g16
S'line'
p64
sS'x'
I445
sg18
I00
sS'y'
I-27
s(dp65
S'y'
F7.8399999999999999
sS'x'
F410.16000000000003
sg18
I00
s(dp66
S'y'
F57.020000000000003
sS'x'
F382.12
sg18
I00
s(dp67
g16
S'curve'
p68
sS'x'
I358
sg18
I00
sS'y'
I120
s(dp69
g16
S'line'
p70
sS'x'
I138
sg18
I00
sS'y'
I-53
s(dp71
g16
S'line'
p72
sS'x'
I92
sg18
I00
sS'y'
I-7
s(dp73
g16
S'line'
p74
sS'x'
I258
sg18
I00
sS'y'
I113
s(dp75
S'y'
F149.18000000000001
sS'x'
F128.02000000000001
sg18
I00
s(dp76
S'y'
F239.5
sS'x'
F39
sg18
I00
s(dp77
g16
S'curve'
p78
sS'x'
I39
sg18
I01
sS'y'
I340
s(dp79
S'y'
F428.44
sS'x'
F39
sg18
I00
s(dp80
S'y'
F499
sS'x'
F112.54000000000001
sg18
I00
s(dp81
g16
S'curve'
p82
sS'x'
I205
sg18
I01
sS'y'
I499
s(dp83
g16
S'line'
p84
sS'x'
I385
sg18
I00
sS'y'
I499
s(dp85
g16
S'line'
p86
sS'x'
I385
sg18
I00
sS'y'
I606
stp87
stp88
sS'components'
p89
(tsS'anchors'
p90
(tsssS'com.typemytype.robofont.mark'
p91
(F0.75
F1
F1
F1
tp92
s."
LayerCount: 2
Fore
SplineSet
445 99 m 261
 436 129 l 261
 102 -11 l 262
 96 -14 94 -20 94 -27 c 260
 94 -50 122 -92 141 -92 c 260
 144 -92 147 -91 152 -88 c 262
 445 99 l 261
EndSplineSet
Refer: 63 2342 N 1 0 0 1 0 0 2
LCarets2: 1 0 
Ligature2: "VattuVariantslookup30 subtable" dadeva viramadeva_radeva
Colour: ff00
EndChar

StartChar: dadeva_viramadeva_vadeva
Encoding: 65565 -1 75
Width: 676
VWidth: 0
GlyphClass: 2
Flags: HW
PickledData: "(dp1
S'com.typemytype.robofont.layerData'
p2
(dp3
S'original'
p4
(dp5
S'name'
p6
S'dadeva_viramadeva_vadeva'
p7
sS'lib'
p8
(dp9
sS'unicodes'
p10
(tsS'width'
p11
I559
sS'contours'
p12
(tsS'components'
p13
(tsS'anchors'
p14
(tsssS'com.typemytype.robofont.mark'
p15
(I1
I1
I1
I0
tp16
s."
AnchorPoint: "DVAnchor0" 611 -86 basechar 0
LayerCount: 2
Back
SplineSet
444 134 m 256
 444 -6 563 -154 603 -154 c 256
 622 -154 627 -133 627 -128 c 256
 627 -122 626 -119 615 -109 c 256
 547 -45 504 53 504 179 c 257
 481 162 472 146 472 134 c 256
 472 114 496 101 522 101 c 256
 566 101 601 135 601 179 c 256
 601 222 566 257 522 257 c 256
 479 257 444 222 444 134 c 256
543 165 m 257
 509 144 466 132 415 132 c 256
 318 132 254 186 254 268 c 256
 254 344 309 425 521 431 c 257
 521 621 l 257
 689 621 l 257
 689 666 l 257
 -13 666 l 257
 -13 621 l 257
 434 621 l 257
 434 471 l 257
 300 461 168 396 168 268 c 256
 168 139 292 74 415 74 c 256
 479 74 601 94 601 179 c 257
 543 165 l 257
246 -134 m 256
 351 -134 468 -66 497 103 c 257
 444 103 l 257
 424 -12 355 -81 260 -81 c 256
 169 -81 128 -24 128 33 c 256
 128 90 168 148 239 148 c 256
 246 148 254 160 254 174 c 256
 254 190 251 195 245 195 c 256
 111 195 41 110 41 27 c 256
 41 -54 108 -134 246 -134 c 256
EndSplineSet
Fore
SplineSet
459 173 m 256x78
 459 130 493 95 537 95 c 256
 580 95 615 130 615 173 c 256
 615 217 580 252 537 252 c 256
 493 252 459 217 459 173 c 256x78
557 152 m 257
 519 127 472 113 414 113 c 256
 318 113 253 171.556640625 253 256 c 256
 253 328 282 440 590 445 c 257
 590 621 l 257
 689 621 l 257
 689 666 l 257
 -13 666 l 257
 -13 621 l 257
 504 621 l 257
 504 491 l 257
 294 481 167 381 167 257 c 256
 167 122.728515625 291 63 414 63 c 256xb8
 484 63 615 85 615 173 c 257
 557 152 l 257
459 173 m 257x78
 459 44 554 -63 600 -95 c 256
 612.530273438 -103.716796875 618 -104 623 -104 c 256
 635 -104 647 -87 647 -76 c 256
 647 -69 646.034179688 -64.1435546875 634 -53 c 256
 580 -3 524 96 524 173 c 257x74
 459 173 l 257x78
246 -134 m 260
 351 -134 468 -66 497 103 c 261
 444 103 l 261
 424 -12 355 -81 260 -81 c 260
 169 -81 128 -24 128 33 c 260
 128 90 168 148 239 148 c 260
 246 148 254 160 254 174 c 260
 254 190 251 195 245 195 c 260
 111 195 41 110 41 27 c 260
 41 -54 108 -134 246 -134 c 260
EndSplineSet
LCarets2: 2 0 0 
Ligature2: "PreBaseSubstitutionslookup1 subtable" dadeva_viramadeva vadeva
Ligature2: "ConjunctFormslookup11 subtable" dadeva viramadeva vadeva
Ligature2: "LocalizedMrHalfFormslookup1 subtable" dadeva viramadeva vadeva
Colour: ff00
EndChar

StartChar: dadeva_viramadeva_yadeva
Encoding: 65566 -1 76
Width: 714
VWidth: 0
GlyphClass: 2
Flags: W
PickledData: "(dp1
S'com.typemytype.robofont.layerData'
p2
(dp3
S'original'
p4
(dp5
S'name'
p6
S'dadeva_viramadeva_yadeva'
p7
sS'lib'
p8
(dp9
sS'unicodes'
p10
(tsS'width'
p11
I715
sS'contours'
p12
(tsS'components'
p13
(tsS'anchors'
p14
(tsssS'com.typemytype.robofont.mark'
p15
(I1
I1
I1
I0
tp16
s."
LayerCount: 2
Fore
SplineSet
538 621 m 257
 538 0 l 257
 624 0 l 257
 624 621 l 257
 538 621 l 257
254 282 m 257
 275 333 l 257
 213 333 l 258
 156 333 137 365 137 411 c 256
 137 463 167 487 255 487 c 258
 364 487 l 257
 364 621 l 257
 727 621 l 257
 727 666 l 257
 -13 666 l 257
 -13 621 l 257
 278 621 l 257
 278 538 l 257
 226 538 l 258
 110 538 54 494 54 417 c 256
 54 331 109 282 192 282 c 258
 254 282 l 257
150 203 m 256
 150 114 225 54 335 54 c 256
 403 54 485 93 538 153 c 257
 538 211 l 257
 491 154 434 107 345 107 c 256
 273 107 236 159 236 211 c 256
 236 263 281 315 370 315 c 256
 381 315 393 314 401 314 c 256
 410 314 416 326 416 339 c 256
 416 349 413 355 407 356 c 256
 388 359 370 361 353 361 c 256
 268 361 150 315 150 203 c 256
EndSplineSet
Validated: 5
Ligature2: "PreBaseSubstitutionslookup1 subtable" dadeva_viramadeva yadeva
Ligature2: "ConjunctFormslookup11 subtable" dadeva viramadeva yadeva
Ligature2: "LocalizedMrHalfFormslookup1 subtable" dadeva viramadeva yadeva
EndChar

StartChar: danda
Encoding: 2404 2404 77
Width: 356
VWidth: 0
GlyphClass: 2
Flags: W
PickledData: "(dp1
S'com.typemytype.robofont.layerData'
p2
(dp3
S'original'
p4
(dp5
S'name'
p6
S'danda'
p7
sS'lib'
p8
(dp9
sS'unicodes'
p10
(tsS'width'
p11
I366
sS'contours'
p12
(tsS'components'
p13
(tsS'anchors'
p14
(tsssS'com.typemytype.robofont.mark'
p15
(I1
I1
I1
I0
tp16
s."
LayerCount: 2
Fore
SplineSet
180 0 m 257
 180 666 l 257
 266 666 l 257
 266 0 l 257
 180 0 l 257
EndSplineSet
Validated: 1
EndChar

StartChar: dbldanda
Encoding: 2405 2405 78
Width: 569
VWidth: 0
GlyphClass: 2
Flags: W
PickledData: "(dp1
S'com.typemytype.robofont.layerData'
p2
(dp3
S'original'
p4
(dp5
S'name'
p6
S'dbldanda'
p7
sS'lib'
p8
(dp9
sS'unicodes'
p10
(tsS'width'
p11
I579
sS'contours'
p12
(tsS'components'
p13
(tsS'anchors'
p14
(tsssS'com.typemytype.robofont.mark'
p15
(I1
I1
I1
I0
tp16
s."
LayerCount: 2
Fore
SplineSet
393 0 m 257
 393 666 l 257
 479 666 l 257
 479 0 l 257
 393 0 l 257
180 0 m 257
 180 666 l 257
 266 666 l 257
 266 0 l 257
 180 0 l 257
EndSplineSet
Validated: 1
EndChar

StartChar: ddadeva
Encoding: 2337 2337 79
Width: 631
VWidth: 0
GlyphClass: 2
Flags: W
PickledData: "(dp1
S'com.typemytype.robofont.layerData'
p2
(dp3
S'original'
p4
(dp5
S'name'
p6
S'ddadeva'
p7
sS'lib'
p8
(dp9
sS'unicodes'
p10
(tsS'width'
p11
I631
sS'contours'
p12
((dp13
S'points'
p14
((dp15
S'segmentType'
p16
S'curve'
p17
sS'x'
I385
sS'smooth'
p18
I01
sS'y'
I13
s(dp19
S'y'
F13
sS'x'
F244.30000000000001
sg18
I00
s(dp20
S'y'
F126.44
sS'x'
F102.08
sg18
I00
s(dp21
g16
S'curve'
p22
sS'x'
I19
sg18
I00
sS'y'
I306
s(dp23
g16
S'line'
p24
sS'x'
I72
sg18
I00
sS'y'
I340
s(dp25
S'y'
F180.53999999999999
sS'x'
F147.03999999999999
sg18
I00
s(dp26
S'y'
F80
sS'x'
F267.07999999999998
sg18
I00
s(dp27
g16
S'curve'
p28
sS'x'
I385
sg18
I01
sS'y'
I80
s(dp29
S'y'
F80
sS'x'
F457.36000000000001
sg18
I00
s(dp30
S'y'
F142.28
sS'x'
F518
sg18
I00
s(dp31
g16
S'curve'
p32
sS'x'
I518
sg18
I01
sS'y'
I220
s(dp33
S'y'
F241.44
sS'x'
F518
sg18
I00
s(dp34
S'y'
F260
sS'x'
F502.42000000000002
sg18
I00
s(dp35
g16
S'curve'
p36
sS'x'
I485
sg18
I01
sS'y'
I260
s(dp37
S'y'
F260
sS'x'
F455.51999999999998
sg18
I00
s(dp38
S'y'
F233
sS'x'
F393.13999999999999
sg18
I00
s(dp39
g16
S'curve'
p40
sS'x'
I365
sg18
I01
sS'y'
I233
s(dp41
S'y'
F233
sS'x'
F296.66000000000003
sg18
I00
s(dp42
S'y'
F343.31999999999999
sS'x'
F192
sg18
I00
s(dp43
g16
S'curve'
p44
sS'x'
I192
sg18
I01
sS'y'
I413
s(dp45
S'y'
F461.24000000000001
sS'x'
F192
sg18
I00
s(dp46
S'y'
F499
sS'x'
F229.75999999999999
sg18
I00
s(dp47
g16
S'curve'
p48
sS'x'
I278
sg18
I01
sS'y'
I499
s(dp49
g16
S'line'
p50
sS'x'
I458
sg18
I00
sS'y'
I499
s(dp51
g16
S'line'
p52
sS'x'
I458
sg18
I00
sS'y'
I606
s(dp53
g16
S'line'
p54
sS'x'
I-13
sg18
I00
sS'y'
I606
s(dp55
g16
S'line'
p56
sS'x'
I-13
sg18
I00
sS'y'
I666
s(dp57
g16
S'line'
p58
sS'x'
I644
sg18
I00
sS'y'
I666
s(dp59
g16
S'line'
p60
sS'x'
I644
sg18
I00
sS'y'
I606
s(dp61
g16
S'line'
p62
sS'x'
I525
sg18
I00
sS'y'
I606
s(dp63
g16
S'line'
p64
sS'x'
I525
sg18
I00
sS'y'
I433
s(dp65
g16
S'line'
p66
sS'x'
I278
sg18
I01
sS'y'
I433
s(dp67
S'y'
F433
sS'x'
F267.27999999999997
sg18
I00
s(dp68
S'y'
F423.72000000000003
sS'x'
F258
sg18
I00
s(dp69
g16
S'curve'
p70
sS'x'
I258
sg18
I01
sS'y'
I413
s(dp71
S'y'
F375.48000000000002
sS'x'
F258
sg18
I00
s(dp72
S'y'
F300
sS'x'
F328.81999999999999
sg18
I00
s(dp73
g16
S'curve'
p74
sS'x'
I365
sg18
I01
sS'y'
I300
s(dp75
S'y'
F300
sS'x'
F393.13999999999999
sg18
I00
s(dp76
S'y'
F326
sS'x'
F455.51999999999998
sg18
I00
s(dp77
g16
S'curve'
p78
sS'x'
I485
sg18
I01
sS'y'
I326
s(dp79
S'y'
F326
sS'x'
F539.94000000000005
sg18
I00
s(dp80
S'y'
F278.95999999999998
sS'x'
F585
sg18
I00
s(dp81
g16
S'curve'
p82
sS'x'
I585
sg18
I01
sS'y'
I220
s(dp83
S'y'
F104.76000000000001
sS'x'
F585
sg18
I00
s(dp84
S'y'
F13
sS'x'
F494.88
sg18
I00
stp85
stp86
sS'components'
p87
(tsS'anchors'
p88
((dp89
S'y'
F664
sS'x'
F495
sg6
S'DVAnchor3'
p90
s(dp91
S'y'
F45
sS'x'
F378
sg6
S'DVAnchor0'
p92
stp93
sssS'com.typemytype.robofont.mark'
p94
(F0.75
F1
F1
F1
tp95
s."
AnchorPoint: "DVAnchor0" 378 45 basechar 0
AnchorPoint: "DVAnchor3" 495 664 basechar 0
LayerCount: 2
Fore
SplineSet
377 73 m 256
 229 73 113 177 88 305 c 256
 87 311 82 315 70 315 c 256
 57 315 43 309 43 298 c 256
 43 213 165 15 377 15 c 256
 466 15 594 57 594 174 c 256
 594 268 505 324 410 324 c 256
 365 324 343 318 307 306 c 257
 270 317 246 341 246 382 c 256
 246 423 268 447 324 447 c 258
 534 447 l 257
 534 621 l 257
 644 621 l 257
 644 666 l 257
 -13 666 l 257
 -13 621 l 257
 448 621 l 257
 448 498 l 257
 298 498 l 258
 203 498 163 453 163 389 c 256
 163 321 215 263 303 253 c 257
 332 265 366 272 391 272 c 256
 464 272 509 234 509 177 c 256
 509 114 452 73 377 73 c 256
EndSplineSet
Validated: 9
EndChar

StartChar: ddadeva_viramadeva_ddadeva
Encoding: 65568 -1 81
Width: 674
VWidth: 0
GlyphClass: 2
Flags: W
PickledData: "(dp1
S'com.typemytype.robofont.layerData'
p2
(dp3
S'original'
p4
(dp5
S'name'
p6
S'ddadeva_viramadeva_ddadeva'
p7
sS'lib'
p8
(dp9
sS'unicodes'
p10
(tsS'width'
p11
I644
sS'contours'
p12
(tsS'components'
p13
(tsS'anchors'
p14
(tsssS'com.typemytype.robofont.mark'
p15
(I1
I1
I1
I0
tp16
s."
AnchorPoint: "DVAnchor0" 423 -120 basechar 0
LayerCount: 2
Fore
SplineSet
409 202 m 256
 253 202 131 307 105 434 c 256
 103 440 99 444 87 444 c 256
 74 444 60 439 60 427 c 256
 60 343 192 145 424 145 c 256
 506 145 625 177 625 269 c 256
 625 342 542 385 451 385 c 256
 402 385 379 381 338 370 c 257
 301 381 277 407 277 438 c 256
 277 482 307 503 395 503 c 258
 566 503 l 257
 566 621 l 257
 687 621 l 257
 687 666 l 257
 -13 666 l 257
 -13 621 l 257
 479 621 l 257
 479 554 l 257
 366 554 l 258
 250 554 194 510 194 445 c 256
 194 393 247 349 335 331 c 257
 366 341 404 346 432 346 c 256
 499 346 540 319 540 278 c 256
 540 232 483 202 409 202 c 256
234 231 m 257
 207 212 194 186 194 154 c 256
 194 102 247 58 335 40 c 257
 366 50 404 55 432 55 c 256
 499 55 540 28 540 -13 c 256
 540 -59 483 -89 409 -89 c 256
 253 -89 131 16 105 143 c 256
 103 149 99 153 87 153 c 256
 74 153 60 148 60 136 c 256
 60 52 192 -146 424 -146 c 256
 506 -146 625 -114 625 -22 c 256
 625 51 542 94 451 94 c 256
 402 94 379 90 338 79 c 257
 301 90 277 116 277 147 c 256
 277 168 283 183 299 194 c 257
 234 231 l 257
EndSplineSet
Validated: 5
Ligature2: "PreBaseSubstitutionslookup1 subtable" ddadeva_viramadeva ddadeva
Ligature2: "LocalizedMrHalfFormslookup1 subtable" ddadeva viramadeva ddadeva
EndChar

StartChar: ddadeva_viramadeva_ddhadeva
Encoding: 65569 -1 82
Width: 674
VWidth: 0
GlyphClass: 2
Flags: HW
PickledData: "(dp1
S'com.typemytype.robofont.layerData'
p2
(dp3
S'original'
p4
(dp5
S'name'
p6
S'ddadeva_viramadeva_ddhadeva'
p7
sS'lib'
p8
(dp9
sS'unicodes'
p10
(tsS'width'
p11
I628
sS'contours'
p12
(tsS'components'
p13
(tsS'anchors'
p14
(tsssS'com.typemytype.robofont.mark'
p15
(I1
I1
I1
I0
tp16
s."
AnchorPoint: "DVAnchor0" 341 -120 basechar 0
LayerCount: 2
Back
SplineSet
409 236 m 256
 253 236 131 341 105 468 c 256
 103 473 99 478 87 478 c 256
 74 478 60 473 60 461 c 256
 60 377 192 179 424 179 c 256
 506 179 625 211 625 303 c 256
 625 371 542 412 451 412 c 256
 402 412 379 408 338 397 c 257
 301 408 277 434 277 465 c 256
 277 504 307 523 395 523 c 258
 566 523 l 257
 566 621 l 257
 687 621 l 257
 687 666 l 257
 -13 666 l 257
 -13 621 l 257
 479 621 l 257
 479 574 l 257
 366 574 l 258
 250 574 194 533 194 472 c 256
 194 420 247 376 335 358 c 257
 366 367 404 373 432 373 c 256
 499 373 540 349 540 312 c 256
 540 266 483 236 409 236 c 256
425 228 m 257
 339 228 l 257
 339 168 l 257
 207 158 78 104 78 7 c 256
 78 -95 210 -146 341 -146 c 256
 483 -146 573 -93 573 -18 c 256
 573 36 525 88 420 88 c 256
 315 88 263 36 263 -19 c 256
 263 -50 274 -78 298 -103 c 257
 228 -95 165 -57 165 11 c 256
 165 69 219 130 425 134 c 257
 425 228 l 257
359 -102 m 257
 346 -80 340 -61 340 -36 c 256
 340 20 382 48 422 48 c 256
 458 48 492 25 492 -23 c 256
 492 -70 441 -100 359 -102 c 257
EndSplineSet
Fore
SplineSet
78 7 m 260
 77.9999955628 -95 210 -146 341 -146 c 260
 483 -146 573 -81 573 -6 c 260
 573 48 536 107.959960938 413 107.959960938 c 260
 340 107.959960938 262 79.51953125 262 10 c 260
 262 -46.880859375 325 -69 357 -69 c 260
 365 -69 374 -67.4208984375 374 -61.1005859375 c 260
 374 -51.6201171875 339 -41.3505859375 339 12.369140625 c 260
 339 51 373 71 412 71 c 260
 459 71 492 40 492 -8 c 260
 492 -71 423 -102 338 -102 c 260
 250 -102 165 -57 165 11 c 260
 165 76 219 145 425 150 c 261
 425 210 l 261
 339 210 l 261
 339 190 l 261
 207.000000709 177.828161926 78.0000044643 109.624940588 78 7 c 260
409 236 m 256
 253 236 131 341 105 468 c 256
 103 473 99 478 87 478 c 256
 74 478 60 473 60 461 c 256
 60 377 192 179 424 179 c 256
 506 179 625 211 625 303 c 256
 625 371 542 412 451 412 c 256
 402 412 379 408 338 397 c 257
 301 408 277 434 277 465 c 256
 277 504 307 523 395 523 c 258
 566 523 l 257
 566 621 l 257
 687 621 l 257
 687 666 l 257
 -13 666 l 257
 -13 621 l 257
 479 621 l 257
 479 574 l 257
 366 574 l 258
 250 574 194 533 194 472 c 256
 194 420 247 376 335 358 c 257
 366 367 404 373 432 373 c 256
 499 373 540 349 540 312 c 256
 540 266 483 236 409 236 c 256
EndSplineSet
LCarets2: 2 0 0 
Ligature2: "PreBaseSubstitutionslookup1 subtable" ddadeva_viramadeva ddhadeva
Ligature2: "LocalizedMrHalfFormslookup1 subtable" ddadeva viramadeva ddhadeva
Colour: ff00
EndChar

StartChar: ddadeva_viramadeva_yadeva
Encoding: 65570 -1 83
Width: 1237
VWidth: 0
GlyphClass: 2
Flags: W
PickledData: "(dp1
S'com.typemytype.robofont.layerData'
p2
(dp3
S'original'
p4
(dp5
S'name'
p6
S'ddadeva_viramadeva_yadeva'
p7
sS'lib'
p8
(dp9
sS'unicodes'
p10
(tsS'width'
p11
I1222
sS'contours'
p12
(tsS'components'
p13
(tsS'anchors'
p14
(tsssS'com.typemytype.robofont.mark'
p15
(I1
I1
I1
I0
tp16
s."
LayerCount: 2
Fore
SplineSet
396 57 m 256
 240 57 118 162 92 290 c 256
 90 296 86 300 74 300 c 256
 61 300 47 294 47 283 c 256
 47 198 174 0 396 0 c 256
 484 0 612 42 612 159 c 256
 612 253 524 308 428 308 c 256
 383 308 362 303 325 291 c 257
 288 304 264 333 264 371 c 256
 264 423 294 447 382 447 c 258
 553 447 l 257
 553 621 l 257
 1250 621 l 257
 1250 666 l 257
 -13 666 l 257
 -13 621 l 257
 466 621 l 257
 466 498 l 257
 353 498 l 258
 237 498 181 454 181 377 c 256
 181 314 234 260 322 238 c 257
 350 250 384 257 409 257 c 256
 482 257 527 219 527 162 c 256
 527 99 470 57 396 57 c 256
698 274 m 257
 698 149 795 71 913 71 c 256
 993 71 1051 100 1085 123 c 256
 1114 143 1118 150 1118 155 c 256
 1118 167 1106 182 1095 182 c 256
 1085 182 1026 119 923 119 c 256
 852 119 792 158 783 252 c 257
 854 272 896 321 896 377 c 256
 896 454 841 498 725 498 c 258
 553 498 l 257
 553 447 l 257
 696 447 l 258
 784 447 814 423 814 371 c 256
 814 326 768 290 698 274 c 257
1053 0 m 257
 1139 0 l 257
 1139 636 l 257
 1053 636 l 257
 1053 0 l 257
EndSplineSet
Validated: 5
LCarets2: 2 0 0 
Ligature2: "PreBaseSubstitutionslookup1 subtable" ddadeva_viramadeva yadeva
Ligature2: "LocalizedMrHalfFormslookup1 subtable" ddadeva viramadeva yadeva
EndChar

StartChar: dddadeva
Encoding: 2430 2430 84
Width: 631
VWidth: 0
GlyphClass: 2
Flags: W
PickledData: "(dp1
S'com.typemytype.robofont.layerData'
p2
(dp3
S'original'
p4
(dp5
S'name'
p6
S'dddadeva'
p7
sS'lib'
p8
(dp9
sS'unicodes'
p10
(tsS'width'
p11
I631
sS'contours'
p12
(tsS'components'
p13
(tsS'anchors'
p14
(tsssS'com.typemytype.robofont.mark'
p15
(F1
F0
F0
F1
tp16
s."
AnchorPoint: "DVAnchor3" 495 666 basechar 0
LayerCount: 2
Fore
SplineSet
0 -45 m 257
 0 0 l 257
 632 0 l 257
 632 -45 l 257
 0 -45 l 257
EndSplineSet
Refer: 79 2337 N 1 0 0 1 0 0 2
Validated: 9
EndChar

StartChar: ddhadeva
Encoding: 2338 2338 86
Width: 592
VWidth: 0
GlyphClass: 2
Flags: HW
PickledData: "(dp1
S'com.typemytype.robofont.layerData'
p2
(dp3
S'original'
p4
(dp5
S'name'
p6
S'ddhadeva'
p7
sS'lib'
p8
(dp9
sS'unicodes'
p10
(tsS'width'
p11
I579
sS'contours'
p12
(tsS'components'
p13
(tsS'anchors'
p14
(tsssS'com.typemytype.robofont.mark'
p15
(I1
I1
I1
I0
tp16
s."
HStem: 20 46<325.463 411.734> 281 47<347.464 444.528>
VStem: 53 86<144.286 325.565> 237 77<90.3286 246.216> 467 81<116.17 259.664>
AnchorPoint: "DVAnchor0" 315 40 basechar 0
AnchorPoint: "DVAnchor3" 356 664 basechar 0
LayerCount: 2
Back
SplineSet
315 20 m 256
 458 20 548 89 548 188 c 256
 548 261 499 328 394 328 c 256
 289 328 237 257 237 182 c 256
 237 139 249 102 273 67 c 257
 202 79 139 134 139 233 c 256
 139 330 194 431 400 439 c 257
 400 621 l 257
 605 621 l 257
 605 666 l 257
 -13 666 l 257
 -13 621 l 257
 313 621 l 257
 313 479 l 257
 182 467 53 389 53 234 c 256
 53 91 184 20 315 20 c 256
333 66 m 257
 320 99 314 129 314 167 c 256
 314 237 351 281 400 281 c 256
 439 281 467 246 467 189 c 256
 467 116 415 68 333 66 c 257
EndSplineSet
Fore
SplineSet
310 205 m 256
 310 147 334 128 334 116 c 256
 334 108 325 106 317 106 c 256
 285 106 233 130 233 202 c 256
 233 286 304 328 383 328 c 256
 488 328 548 261 548 188 c 256
 548 89 458 20 315 20 c 260
 184 20 53 91 53 234 c 260
 53 389 182 467 313 479 c 261
 313 621 l 257
 -13 621 l 257
 -13 666 l 257
 605 666 l 257
 605 621 l 257
 400 621 l 257
 400 439 l 261
 194 431 139 330 139 233 c 260
 139 134 202 63 318 63 c 260
 412 63 467 116 467 189 c 256
 467 246 437 281 386 281 c 256
 331 281 310 241 310 205 c 256
EndSplineSet
Colour: ff00
EndChar

StartChar: ddhadeva_viramadeva_ddhadeva
Encoding: 65572 -1 88
Width: 592
VWidth: 0
GlyphClass: 2
Flags: HW
PickledData: "(dp1
S'com.typemytype.robofont.layerData'
p2
(dp3
S'original'
p4
(dp5
S'name'
p6
S'ddhadeva_viramadeva_ddhadeva'
p7
sS'lib'
p8
(dp9
sS'unicodes'
p10
(tsS'width'
p11
I596
sS'contours'
p12
(tsS'components'
p13
(tsS'anchors'
p14
(tsssS'com.typemytype.robofont.mark'
p15
(I1
I1
I1
I0
tp16
s."
AnchorPoint: "DVAnchor0" 315 -120 basechar 0
LayerCount: 2
Fore
SplineSet
52 7 m 260
 52 117 181 179 313 190 c 261
 313 250 l 261
 399 250 l 261
 399 150 l 261
 193 145 139 76 139 11 c 260
 139 -57 224 -102 312 -102 c 260
 397 -102 466 -71 466 -8 c 260
 466 40 433 71 386 71 c 260
 347 71 313 51 313 12.369140625 c 260
 313 -41.3505859375 348 -51.6201171875 348 -61.1005859375 c 260
 348 -67.4208984375 339 -69 331 -69 c 260
 299 -69 236 -46.880859375 236 10 c 260
 236 79.51953125 314 107.959960938 387 107.959960938 c 260
 510 107.959960938 547 48 547 -6 c 260
 547 -81 457 -146 315 -146 c 260
 184 -146 52 -95 52 7 c 260
386 442 m 256
 347 442 313 422 313 383.369140625 c 256
 313 329.649414062 348 319.379882812 348 309.899414062 c 256
 348 303.579101562 339 302 331 302 c 256
 299 302 236 324.119140625 236 381 c 256
 236 450.51953125 314 478.959960938 387 478.959960938 c 256
 510 478.959960938 547 419 547 365 c 256
 547 290 457 225 315 225 c 256
 184 225 52 276 52 378 c 256
 52 488 181 550 313 561 c 257
 313 621 l 257
 -13 621 l 257
 -13 666 l 257
 605 666 l 257
 605 621 l 257
 399 621 l 257
 399 521 l 257
 193 516 139 447 139 382 c 256
 139 314 224 269 312 269 c 256
 397 269 466 300 466 363 c 256
 466 411 433 442 386 442 c 256
EndSplineSet
LCarets2: 2 0 0 
Ligature2: "PreBaseSubstitutionslookup1 subtable" ddhadeva_viramadeva ddhadeva
Ligature2: "LocalizedMrHalfFormslookup1 subtable" ddhadeva viramadeva ddhadeva
Colour: ff00
EndChar

StartChar: ddhadeva_viramadeva_yadeva
Encoding: 65573 -1 89
Width: 1174
VWidth: 0
GlyphClass: 2
Flags: HW
PickledData: "(dp1
S'com.typemytype.robofont.layerData'
p2
(dp3
S'original'
p4
(dp5
S'name'
p6
S'ddhadeva_viramadeva_yadeva'
p7
sS'lib'
p8
(dp9
sS'unicodes'
p10
(tsS'width'
p11
I1202
sS'contours'
p12
(tsS'components'
p13
(tsS'anchors'
p14
(tsssS'com.typemytype.robofont.mark'
p15
(I1
I1
I1
I0
tp16
s."
LayerCount: 2
Back
SplineSet
636 255 m 257
 636 130 732 52 850 52 c 256
 930 52 988 81 1022 104 c 256
 1051 124 1055 131 1055 136 c 256
 1055 147 1043 163 1032 163 c 256
 1022 163 963 99 860 99 c 256
 789 99 730 139 720 233 c 257
 791 255 834 306 834 366 c 256
 834 450 778 518 662 518 c 258
 395 518 l 257
 395 467 l 257
 634 467 l 258
 721 467 751 419 751 360 c 256
 751 311 706 272 636 255 c 257
990 0 m 257
 1076 0 l 257
 1076 636 l 257
 990 636 l 257
 990 0 l 257
315 20 m 256
 457 20 547 89 547 188 c 256
 547 261 499 328 394 328 c 256
 289 328 237 257 237 182 c 256
 237 139 248 102 272 67 c 257
 193 81 123 145 123 261 c 256
 123 358 163 467 313 467 c 258
 399 467 l 257
 399 621 l 257
 1187 621 l 257
 1187 666 l 257
 -13 666 l 257
 -13 621 l 257
 313 621 l 257
 313 518 l 257
 295 518 l 258
 145 518 37 410 37 261 c 256
 37 100 176 20 315 20 c 256
333 66 m 257
 320 99 314 129 314 167 c 256
 314 237 350 281 399 281 c 256
 439 281 466 246 466 189 c 256
 466 116 415 68 333 66 c 257
EndSplineSet
Fore
SplineSet
37 261 m 260
 37 118 168 47 299 47 c 260
 442 47 532 116 532 215 c 260
 532 288 472 355 367 355 c 260
 288 355 217 313 217 229 c 260
 217 157 269 133 301 133 c 260
 309 133 318 135 318 143 c 260
 318 155 294 174 294 232 c 260
 294 268 315 308 370 308 c 260
 421 308 451 273 451 216 c 260
 451 143 396 90 302 90 c 260
 186 90 123 161 123 260 c 260
 123 358 163 467 313 467 c 262
 399 467 l 261
 399 621 l 261
 1187 621 l 261
 1187 666 l 261
 -13 666 l 261
 -13 621 l 261
 313 621 l 261
 313 518 l 261
 295 518 l 262
 145 518 37 410 37 261 c 260
636 255 m 257
 636 130 732 52 850 52 c 256
 930 52 988 81 1022 104 c 256
 1051 124 1055 131 1055 136 c 256
 1055 147 1043 163 1032 163 c 256
 1022 163 963 99 860 99 c 256
 789 99 730 139 720 233 c 257
 791 255 834 306 834 366 c 256
 834 450 778 518 662 518 c 258
 395 518 l 257
 395 467 l 257
 634 467 l 258
 721 467 751 419 751 360 c 256
 751 311 706 272 636 255 c 257
990 0 m 257
 1076 0 l 257
 1076 636 l 257
 990 636 l 257
 990 0 l 257
EndSplineSet
LCarets2: 2 0 0 
Ligature2: "PreBaseSubstitutionslookup1 subtable" ddhadeva_viramadeva yadeva
Ligature2: "LocalizedMrHalfFormslookup1 subtable" ddhadeva viramadeva yadeva
Colour: ff00
EndChar

StartChar: dhadeva
Encoding: 2343 2343 90
Width: 648
VWidth: 0
GlyphClass: 2
Flags: W
PickledData: "(dp1
S'com.typemytype.robofont.layerData'
p2
(dp3
S'original'
p4
(dp5
S'name'
p6
S'dhadeva'
p7
sS'lib'
p8
(dp9
sS'unicodes'
p10
(tsS'width'
p11
I648
sS'contours'
p12
((dp13
S'points'
p14
((dp15
S'segmentType'
p16
S'curve'
p17
sS'x'
I276
sS'smooth'
p18
I01
sS'y'
I113
s(dp19
S'y'
F113
sS'x'
F175.5
sg18
I00
s(dp20
S'y'
F176.62
sS'x'
F96
sg18
I00
s(dp21
g16
S'curve'
p22
sS'x'
I96
sg18
I01
sS'y'
I253
s(dp23
S'y'
F301.24000000000001
sS'x'
F96
sg18
I00
s(dp24
S'y'
F343.22000000000003
sS'x'
F115.5
sg18
I00
s(dp25
g16
S'curve'
p26
sS'x'
I149
sg18
I00
sS'y'
I366
s(dp27
S'y'
F415.57999999999998
sS'x'
F77.980000000000004
sg18
I00
s(dp28
S'y'
F483.01999999999998
sS'x'
F36
sg18
I00
s(dp29
g16
S'curve'
p30
sS'x'
I36
sg18
I01
sS'y'
I546
s(dp31
S'y'
F622.38
sS'x'
F36
sg18
I00
s(dp32
S'y'
F686
sS'x'
F96.640000000000001
sg18
I00
s(dp33
g16
S'curve'
p34
sS'x'
I169
sg18
I01
sS'y'
I686
s(dp35
S'y'
F686
sS'x'
F245.38
sg18
I00
s(dp36
S'y'
F642.67999999999995
sS'x'
F296
sg18
I00
s(dp37
g16
S'curve'
p38
sS'x'
I296
sg18
I01
sS'y'
I573
s(dp39
S'y'
F514.03999999999996
sS'x'
F296
sg18
I00
s(dp40
S'y'
F466
sS'x'
F241.66
sg18
I00
s(dp41
g16
S'curve'
p42
sS'x'
I176
sg18
I00
sS'y'
I466
s(dp43
g16
S'line'
p44
sS'x'
I176
sg18
I00
sS'y'
I533
s(dp45
S'y'
F533
sS'x'
F205.47999999999999
sg18
I00
s(dp46
S'y'
F551.55999999999995
sS'x'
F229
sg18
I00
s(dp47
g16
S'curve'
p48
sS'x'
I229
sg18
I01
sS'y'
I573
s(dp49
S'y'
F597.12
sS'x'
F229
sg18
I00
s(dp50
S'y'
F619
sS'x'
F202.5
sg18
I00
s(dp51
g16
S'curve'
p52
sS'x'
I169
sg18
I01
sS'y'
I619
s(dp53
S'y'
F619
sS'x'
F131.47999999999999
sg18
I00
s(dp54
S'y'
F587.53999999999996
sS'x'
F103
sg18
I00
s(dp55
g16
S'curve'
p56
sS'x'
I103
sg18
I01
sS'y'
I546
s(dp57
S'y'
F493.74000000000001
sS'x'
F103
sg18
I00
s(dp58
S'y'
F442.18000000000001
sS'x'
F140.36000000000001
sg18
I00
s(dp59
g16
S'curve'
p60
sS'x'
I202
sg18
I00
sS'y'
I406
s(dp61
S'y'
F418.06
sS'x'
F231.47999999999999
sg18
I00
s(dp62
S'y'
F426
sS'x'
F264.48000000000002
sg18
I00
s(dp63
g16
S'curve'
p64
sS'x'
I302
sg18
I01
sS'y'
I426
s(dp65
g16
S'line'
p66
sS'x'
I342
sg18
I00
sS'y'
I426
s(dp67
g16
S'line'
p68
sS'x'
I382
sg18
I00
sS'y'
I360
s(dp69
g16
S'line'
p70
sS'x'
I309
sg18
I01
sS'y'
I360
s(dp71
S'y'
F360
sS'x'
F227.25999999999999
sg18
I00
s(dp72
S'y'
F311.95999999999998
sS'x'
F162
sg18
I00
s(dp73
g16
S'curve'
p74
sS'x'
I162
sg18
I01
sS'y'
I253
s(dp75
S'y'
F211.46000000000001
sS'x'
F162
sg18
I00
s(dp76
S'y'
F180
sS'x'
F213.02000000000001
sg18
I00
s(dp77
g16
S'curve'
p78
sS'x'
I276
sg18
I01
sS'y'
I180
s(dp79
S'y'
F180
sS'x'
F347.01999999999998
sg18
I00
s(dp80
S'y'
F228.58000000000001
sS'x'
F423.04000000000002
sg18
I00
s(dp81
g16
S'curve'
p82
sS'x'
I482
sg18
I00
sS'y'
I313
s(dp83
g16
S'line'
p84
sS'x'
I482
sg18
I00
sS'y'
I606
s(dp85
g16
S'line'
p86
sS'x'
I336
sg18
I00
sS'y'
I606
s(dp87
g16
S'line'
p88
sS'x'
I336
sg18
I00
sS'y'
I666
s(dp89
g16
S'line'
p90
sS'x'
I662
sg18
I00
sS'y'
I666
s(dp91
g16
S'line'
p92
sS'x'
I662
sg18
I00
sS'y'
I606
s(dp93
g16
S'line'
p94
sS'x'
I549
sg18
I00
sS'y'
I606
s(dp95
g16
S'line'
p96
sS'x'
I549
sg18
I00
sS'y'
I0
s(dp97
g16
S'line'
p98
sS'x'
I482
sg18
I00
sS'y'
I0
s(dp99
g16
S'line'
p100
sS'x'
I482
sg18
I00
sS'y'
I220
s(dp101
S'y'
F151.66
sS'x'
F424.38
sg18
I00
s(dp102
S'y'
F113
sS'x'
F351.04000000000002
sg18
I00
stp103
stp104
sS'components'
p105
(tsS'anchors'
p106
((dp107
S'y'
I664
sS'x'
I520
sg6
S'DVAnchor3'
p108
stp109
sssS'com.typemytype.robofont.mark'
p110
(F0.75
F1
F1
F1
tp111
s."
AnchorPoint: "DVAnchor3" 520 664 basechar 0
LayerCount: 2
Fore
SplineSet
342 412 m 256
 323 415 305 417 288 417 c 256
 266 417 246 414 225 408 c 257
 168 415 111 441 111 524 c 256
 111 587 145 636 186 636 c 256
 227 636 247 602 247 560 c 256
 247 526 239 520 239 513 c 256
 239 507 244 506 252 506 c 256
 289 506 319 531 319 575 c 256
 319 634 275 677 194 677 c 256
 99 677 32 610 32 528 c 256
 32 453 75 399 160 371 c 257
 108 341 85 300 85 259 c 256
 85 170 160 110 270 110 c 256
 338 110 420 149 473 209 c 257
 473 0 l 257
 560 0 l 257
 560 621 l 257
 661 621 l 257
 661 666 l 257
 367 666 l 257
 367 621 l 257
 473 621 l 257
 473 267 l 257
 426 210 369 163 280 163 c 256
 208 163 171 215 171 267 c 256
 171 319 216 371 305 371 c 256
 316 371 328 370 336 370 c 256
 345 370 351 382 351 395 c 256
 351 405 348 411 342 412 c 256
EndSplineSet
Validated: 9
EndChar

StartChar: dhadeva_viramadeva
Encoding: 65574 -1 91
Width: 490
VWidth: 0
GlyphClass: 2
Flags: W
PickledData: "(dp1
S'com.typemytype.robofont.layerData'
p2
(dp3
S'original'
p4
(dp5
S'name'
p6
S'dhadeva_viramadeva'
p7
sS'lib'
p8
(dp9
sS'unicodes'
p10
(tsS'width'
p11
I490
sS'contours'
p12
((dp13
S'points'
p14
((dp15
S'segmentType'
p16
S'line'
p17
sS'x'
I350
sS'smooth'
p18
I00
sS'y'
I606
s(dp19
g16
S'line'
p20
sS'x'
I350
sg18
I00
sS'y'
I666
s(dp21
g16
S'line'
p22
sS'x'
I503
sg18
I00
sS'y'
I666
s(dp23
g16
S'line'
p24
sS'x'
I503
sg18
I00
sS'y'
I606
stp25
s(dp26
g14
((dp27
g16
S'curve'
p28
sS'x'
I277
sg18
I01
sS'y'
I107
s(dp29
S'y'
F107
sS'x'
F176.5
sg18
I00
s(dp30
S'y'
F171.25999999999999
sS'x'
F97
sg18
I00
s(dp31
g16
S'curve'
p32
sS'x'
I97
sg18
I01
sS'y'
I253
s(dp33
S'y'
F301.24000000000001
sS'x'
F97
sg18
I00
s(dp34
S'y'
F344.56
sS'x'
F119.48
sg18
I00
s(dp35
g16
S'curve'
p36
sS'x'
I157
sg18
I00
sS'y'
I366
s(dp37
S'y'
F399.5
sS'x'
F84.640000000000001
sg18
I00
s(dp38
S'y'
F469.62
sS'x'
F37
sg18
I00
s(dp39
g16
S'curve'
p40
sS'x'
I37
sg18
I01
sS'y'
I546
s(dp41
S'y'
F619.70000000000005
sS'x'
F37
sg18
I00
s(dp42
S'y'
F679
sS'x'
F97.640000000000001
sg18
I00
s(dp43
g16
S'curve'
p44
sS'x'
I170
sg18
I01
sS'y'
I679
s(dp45
S'y'
F679
sS'x'
F239.68000000000001
sg18
I00
s(dp46
S'y'
F631.96000000000004
sS'x'
F297
sg18
I00
s(dp47
g16
S'curve'
p48
sS'x'
I297
sg18
I01
sS'y'
I573
s(dp49
S'y'
F516.72000000000003
sS'x'
F297
sg18
I00
s(dp50
S'y'
F473
sS'x'
F242.66
sg18
I00
s(dp51
g16
S'curve'
p52
sS'x'
I177
sg18
I00
sS'y'
I473
s(dp53
g16
S'line'
p54
sS'x'
I177
sg18
I00
sS'y'
I533
s(dp55
S'y'
F533
sS'x'
F207.81999999999999
sg18
I00
s(dp56
S'y'
F551.55999999999995
sS'x'
F230
sg18
I00
s(dp57
g16
S'curve'
p58
sS'x'
F230
sg18
I01
sg6
S'inserted'
p59
sS'y'
F573
s(dp60
S'y'
F594.44000000000005
sS'x'
F230
sg18
I00
s(dp61
S'y'
F613
sS'x'
F204.84
sg18
I00
s(dp62
g16
S'curve'
p63
sS'x'
I170
sg18
I01
sS'y'
I613
s(dp64
S'y'
F613
sS'x'
F132.47999999999999
sg18
I00
s(dp65
S'y'
F583.51999999999998
sS'x'
F104
sg18
I00
s(dp66
g16
S'curve'
p67
sS'x'
I104
sg18
I01
sS'y'
I546
s(dp68
S'y'
F481.68000000000001
sS'x'
F104
sg18
I00
s(dp69
S'y'
F423.12
sS'x'
F145.68000000000001
sg18
I00
s(dp70
g16
S'curve'
p71
sS'x'
I210
sg18
I00
sS'y'
I399
s(dp72
S'y'
F412.39999999999998
sS'x'
F246.18000000000001
sg18
I00
s(dp73
S'y'
F419
sS'x'
F273.92000000000002
sg18
I00
s(dp74
g16
S'curve'
p75
sS'x'
I290
sg18
I01
sS'y'
I419
s(dp76
g16
S'line'
p77
sS'x'
I357
sg18
I00
sS'y'
I419
s(dp78
g16
S'line'
p79
sS'x'
I390
sg18
I00
sS'y'
I366
s(dp80
g16
S'line'
p81
sS'x'
I310
sg18
I01
sS'y'
I366
s(dp82
S'y'
F366
sS'x'
F224.24000000000001
sg18
I00
s(dp83
S'y'
F315.98000000000002
sS'x'
F157
sg18
I00
s(dp84
g16
S'curve'
p85
sS'x'
I157
sg18
I01
sS'y'
I253
s(dp86
S'y'
F204.75999999999999
sS'x'
F157
sg18
I00
s(dp87
S'y'
F166
sS'x'
F211.34
sg18
I00
s(dp88
g16
S'curve'
p89
sS'x'
I277
sg18
I01
sS'y'
I166
s(dp90
S'y'
F166
sS'x'
F345.33999999999997
sg18
I00
s(dp91
S'y'
F224.16
sS'x'
F431.24000000000001
sg18
I00
s(dp92
g16
S'curve'
p93
sS'x'
I517
sg18
I00
sS'y'
I326
s(dp94
g16
S'line'
p95
sS'x'
I517
sg18
I00
sS'y'
I240
s(dp96
S'y'
F154.24000000000001
sS'x'
F431.24000000000001
sg18
I00
s(dp97
S'y'
F107
sS'x'
F345.33999999999997
sg18
I00
stp98
stp99
sS'components'
p100
(tsS'anchors'
p101
(tsssS'com.typemytype.robofont.mark'
p102
(F0.75
F1
F1
F1
tp103
s."
LayerCount: 2
Fore
SplineSet
503 621 m 257
 503 666 l 257
 367 666 l 257
 367 621 l 257
 503 621 l 257
280 163 m 256
 208 163 171 215 171 267 c 256
 171 319 216 371 305 371 c 256
 316 371 328 370 336 370 c 256
 345 370 351 382 351 395 c 256
 351 405 348 411 342 412 c 256
 323 415 305 417 288 417 c 256
 266 417 246 414 225 408 c 257
 168 415 111 441 111 524 c 256
 111 587 145 636 186 636 c 256
 227 636 247 602 247 560 c 256
 247 526 239 520 239 513 c 256
 239 507 244 506 252 506 c 256
 289 506 319 531 319 575 c 256
 319 634 275 677 194 677 c 256
 99 677 32 610 32 528 c 256
 32 453 75 399 160 371 c 257
 108 341 85 300 85 259 c 256
 85 170 160 110 270 110 c 256
 416 110 520 250 520 261 c 256
 520 271 507 284 493 284 c 256
 480 284 404 163 280 163 c 256
EndSplineSet
Validated: 9
Ligature2: "HalfFormslookup10 subtable" dhadeva viramadeva
EndChar

StartChar: dhadeva_viramadeva_radeva
Encoding: 65575 -1 92
Width: 648
VWidth: 0
GlyphClass: 2
Flags: W
PickledData: "(dp1
S'com.typemytype.robofont.layerData'
p2
(dp3
S'original'
p4
(dp5
S'name'
p6
S'dhadeva_viramadeva_radeva'
p7
sS'lib'
p8
(dp9
sS'unicodes'
p10
(tsS'width'
p11
I648
sS'contours'
p12
((dp13
S'points'
p14
((dp15
S'segmentType'
p16
S'line'
p17
sS'x'
I238
sS'smooth'
p18
I00
sS'y'
I117
s(dp19
S'y'
F133.08000000000001
sS'x'
F157.59999999999999
sg18
I00
s(dp20
S'y'
F188.68000000000001
sS'x'
F101
sg18
I00
s(dp21
g16
S'curve'
p22
sS'x'
I101
sg18
I01
sS'y'
I253
s(dp23
S'y'
F301.24000000000001
sS'x'
F101
sg18
I00
s(dp24
S'y'
F343.22000000000003
sS'x'
F120.5
sg18
I00
s(dp25
g16
S'curve'
p26
sS'x'
I154
sg18
I00
sS'y'
I366
s(dp27
S'y'
F415.57999999999998
sS'x'
F82.980000000000004
sg18
I00
s(dp28
S'y'
F483.01999999999998
sS'x'
F41
sg18
I00
s(dp29
g16
S'curve'
p30
sS'x'
I41
sg18
I01
sS'y'
I546
s(dp31
S'y'
F622.38
sS'x'
F41
sg18
I00
s(dp32
S'y'
F686
sS'x'
F101.64
sg18
I00
s(dp33
g16
S'curve'
p34
sS'x'
I174
sg18
I01
sS'y'
I686
s(dp35
S'y'
F686
sS'x'
F251.72
sg18
I00
s(dp36
S'y'
F642.67999999999995
sS'x'
F301
sg18
I00
s(dp37
g16
S'curve'
p38
sS'x'
I301
sg18
I01
sS'y'
I573
s(dp39
S'y'
F514.03999999999996
sS'x'
F301
sg18
I00
s(dp40
S'y'
F466
sS'x'
F246.66
sg18
I00
s(dp41
g16
S'curve'
p42
sS'x'
I181
sg18
I00
sS'y'
I466
s(dp43
g16
S'line'
p44
sS'x'
I181
sg18
I00
sS'y'
I533
s(dp45
S'y'
F533
sS'x'
F211.81999999999999
sg18
I00
s(dp46
S'y'
F551.55999999999995
sS'x'
F234
sg18
I00
s(dp47
g16
S'curve'
p48
sS'x'
I234
sg18
I01
sS'y'
I573
s(dp49
S'y'
F597.12
sS'x'
F234
sg18
I00
s(dp50
S'y'
F619
sS'x'
F208.84
sg18
I00
s(dp51
g16
S'curve'
p52
sS'x'
I174
sg18
I01
sS'y'
I619
s(dp53
S'y'
F619
sS'x'
F136.47999999999999
sg18
I00
s(dp54
S'y'
F587.53999999999996
sS'x'
F108
sg18
I00
s(dp55
g16
S'curve'
p56
sS'x'
I108
sg18
I01
sS'y'
I546
s(dp57
S'y'
F493.74000000000001
sS'x'
F108
sg18
I00
s(dp58
S'y'
F442.18000000000001
sS'x'
F145.02000000000001
sg18
I00
s(dp59
g16
S'curve'
p60
sS'x'
I208
sg18
I00
sS'y'
I406
s(dp61
S'y'
F418.06
sS'x'
F236.13999999999999
sg18
I00
s(dp62
S'y'
F426
sS'x'
F270.48000000000002
sg18
I00
s(dp63
g16
S'curve'
p64
sS'x'
I308
sg18
I01
sS'y'
I426
s(dp65
g16
S'line'
p66
sS'x'
I348
sg18
I00
sS'y'
I426
s(dp67
g16
S'line'
p68
sS'x'
I387
sg18
I00
sS'y'
I360
s(dp69
g16
S'line'
p70
sS'x'
I314
sg18
I01
sS'y'
I360
s(dp71
S'y'
F360
sS'x'
F232.25999999999999
sg18
I00
s(dp72
S'y'
F311.95999999999998
sS'x'
F168
sg18
I00
s(dp73
g16
S'curve'
p74
sS'x'
I168
sg18
I01
sS'y'
I253
s(dp75
S'y'
F211.46000000000001
sS'x'
F168
sg18
I00
s(dp76
S'y'
F180
sS'x'
F218.02000000000001
sg18
I00
s(dp77
g16
S'curve'
p78
sS'x'
F281
sg18
I01
sg6
S'inserted'
p79
sS'y'
F180
s(dp80
S'y'
F180
sS'x'
F343.98000000000002
sg18
I00
s(dp81
S'y'
F212.69999999999999
sS'x'
F415.98000000000002
sg18
I00
s(dp82
g16
S'curve'
p83
sS'x'
I487
sg18
I00
sS'y'
I273
s(dp84
g16
S'line'
p85
sS'x'
I487
sg18
I00
sS'y'
I606
s(dp86
g16
S'line'
p87
sS'x'
I341
sg18
I00
sS'y'
I606
s(dp88
g16
S'line'
p89
sS'x'
I341
sg18
I00
sS'y'
I666
s(dp90
g16
S'line'
p91
sS'x'
I667
sg18
I00
sS'y'
I666
s(dp92
g16
S'line'
p93
sS'x'
I667
sg18
I00
sS'y'
I606
s(dp94
g16
S'line'
p95
sS'x'
I554
sg18
I00
sS'y'
I606
s(dp96
g16
S'line'
p97
sS'x'
I554
sg18
I00
sS'y'
I0
s(dp98
g16
S'line'
p99
sS'x'
I487
sg18
I00
sS'y'
I0
s(dp100
g16
S'line'
p101
sS'x'
I487
sg18
I00
sS'y'
I194
s(dp102
g16
S'line'
p103
sS'x'
I88
sg18
I00
sS'y'
I-33
s(dp104
g16
S'line'
p105
sS'x'
I61
sg18
I00
sS'y'
I20
stp106
stp107
sS'components'
p108
(tsS'anchors'
p109
(tsssS'com.typemytype.robofont.mark'
p110
(F0.75
F1
F1
F1
tp111
s."
LayerCount: 2
Fore
SplineSet
473 193 m 257
 473 223 l 257
 66 54 l 258
 60 51 58 45 58 38 c 256
 58 13 80 -32 95 -32 c 256
 98 -32 101 -32 106 -28 c 258
 473 193 l 257
EndSplineSet
Refer: 90 2343 N 1 0 0 1 0 0 2
Validated: 5
Ligature2: "VattuVariantslookup30 subtable" dhadeva viramadeva_radeva
EndChar

StartChar: divide
Encoding: 247 247 93
Width: 636
VWidth: 0
GlyphClass: 2
Flags: W
PickledData: "(dp1
S'com.typemytype.robofont.layerData'
p2
(dp3
S'original'
p4
(dp5
S'name'
p6
S'divide'
p7
sS'lib'
p8
(dp9
sS'unicodes'
p10
(tsS'width'
p11
I832
sS'contours'
p12
(tsS'components'
p13
(tsS'anchors'
p14
(tsssS'com.typemytype.robofont.mark'
p15
(I1
I1
I1
I0
tp16
s."
LayerCount: 2
Fore
SplineSet
101 327 m 257
 535 327 l 257
 535 404 l 257
 101 404 l 257
 101 327 l 257
254 536 m 256
 254 509 293 469 316 469 c 256
 342 469 381 509 381 536 c 256
 381 562 342 603 316 603 c 256
 292 603 254 562 254 536 c 256
254 195 m 256
 254 168 293 128 316 128 c 256
 342 128 381 168 381 195 c 256
 381 221 342 262 316 262 c 256
 292 262 254 221 254 195 c 256
EndSplineSet
Validated: 9
EndChar

StartChar: dollar
Encoding: 36 36 94
Width: 595
VWidth: 0
GlyphClass: 2
Flags: W
PickledData: "(dp1
S'com.typemytype.robofont.layerData'
p2
(dp3
S'original'
p4
(dp5
S'name'
p6
S'dollar'
p7
sS'lib'
p8
(dp9
sS'unicodes'
p10
(tsS'width'
p11
I712
sS'contours'
p12
(tsS'components'
p13
(tsS'anchors'
p14
(tsssS'com.typemytype.robofont.mark'
p15
(I1
I1
I1
I0
tp16
s."
LayerCount: 2
Fore
SplineSet
293 57 m 256
 222 57 156 98 156 174 c 256
 156 228 186 253 186 262 c 256
 186 274 180 274 165 274 c 256
 102 274 55 230 55 166 c 256
 55 66 151 10 259 1 c 257
 259 -157 l 257
 282 -157 310 -151 324 -132 c 257
 324 1 l 257
 443 12 521 89 521 190 c 256
 521 430 165 360 165 568 c 256
 165 621 202 678 284 678 c 256
 336 678 389 647 389 587 c 256
 389 532 358 508 358 499 c 256
 358 486 366 486 380 486 c 256
 441 486 489 531 489 595 c 256
 489 676 414 722 324 732 c 257
 324 893 l 257
 302 893 273 887 259 868 c 257
 259 734 l 257
 127 725 68 629 68 542 c 256
 68 292 418 342 418 173 c 256
 418 99 357 57 293 57 c 256
EndSplineSet
Validated: 9
EndChar

StartChar: dottedcircle
Encoding: 9676 9676 95
Width: 918
VWidth: 0
GlyphClass: 2
Flags: W
PickledData: "(dp1
S'com.typemytype.robofont.layerData'
p2
(dp3
S'original'
p4
(dp5
S'name'
p6
S'dottedcircle'
p7
sS'lib'
p8
(dp9
sS'unicodes'
p10
(tsS'width'
p11
I918
sS'contours'
p12
(tsS'components'
p13
(tsS'anchors'
p14
(tsssS'com.typemytype.robofont.mark'
p15
(I1
I1
I1
I0
tp16
s."
LayerCount: 2
Fore
SplineSet
615 112 m 256
 642 112 663 91 663 64 c 256
 663 37 642 15 615 15 c 256
 588 15 567 37 567 64 c 256
 567 91 588 112 615 112 c 256
304 651 m 256
 331 651 352 630 352 603 c 256
 352 576 331 555 304 555 c 256
 277 555 256 576 256 603 c 256
 256 630 277 651 304 651 c 256
730 225 m 256
 757 225 778 204 778 177 c 256
 778 150 757 129 730 129 c 256
 703 129 682 150 682 177 c 256
 682 204 703 225 730 225 c 256
190 537 m 256
 217 537 238 516 238 489 c 256
 238 462 217 441 190 441 c 256
 163 441 142 462 142 489 c 256
 142 516 163 537 190 537 c 256
304 112 m 256
 331 112 352 91 352 64 c 256
 352 37 331 15 304 15 c 256
 277 15 256 37 256 64 c 256
 256 91 277 112 304 112 c 256
615 651 m 256
 642 651 663 630 663 603 c 256
 663 576 642 555 615 555 c 256
 588 555 567 576 567 603 c 256
 567 630 588 651 615 651 c 256
730 537 m 256
 757 537 778 516 778 489 c 256
 778 462 757 441 730 441 c 256
 703 441 682 462 682 489 c 256
 682 516 703 537 730 537 c 256
190 225 m 256
 217 225 238 204 238 177 c 256
 238 150 217 129 190 129 c 256
 163 129 142 150 142 177 c 256
 142 204 163 225 190 225 c 256
771 381 m 256
 798 381 819 360 819 333 c 256
 819 306 798 285 771 285 c 256
 744 285 723 306 723 333 c 256
 723 360 744 381 771 381 c 256
148 381 m 256
 175 381 196 360 196 333 c 256
 196 306 175 285 148 285 c 256
 121 285 100 306 100 333 c 256
 100 360 121 381 148 381 c 256
459 69 m 256
 486 69 507 48 507 21 c 256
 507 -6 486 -27 459 -27 c 256
 432 -27 411 -6 411 21 c 256
 411 48 432 69 459 69 c 256
411 644 m 256
 411 671 432 692 459 692 c 256
 486 692 507 671 507 644 c 256
 507 619 486 597 459 597 c 256
 432 597 411 619 411 644 c 256
EndSplineSet
Validated: 1
EndChar

StartChar: doublecandrabinduviramadeva
Encoding: 43252 43252 96
Width: 571
VWidth: 0
GlyphClass: 2
Flags: W
PickledData: "(dp1
S'com.typemytype.robofont.layerData'
p2
(dp3
S'original'
p4
(dp5
S'name'
p6
S'doublecandrabinduviramadeva'
p7
sS'lib'
p8
(dp9
sS'unicodes'
p10
(tsS'width'
p11
I632
sS'contours'
p12
((dp13
S'points'
p14
((dp15
S'segmentType'
p16
S'line'
p17
sS'x'
I267
sS'smooth'
p18
I00
sS'y'
I281
s(dp19
g16
S'line'
p20
sS'x'
I267
sg18
I00
sS'y'
I368
s(dp21
g16
S'line'
p22
sS'x'
I353
sg18
I00
sS'y'
I368
s(dp23
g16
S'line'
p24
sS'x'
I353
sg18
I00
sS'y'
I281
stp25
s(dp26
g14
((dp27
g16
S'curve'
p28
sS'x'
I313
sg18
I01
sS'y'
I135
s(dp29
S'y'
F135
sS'x'
F208.47999999999999
sg18
I00
s(dp30
S'y'
F212.46000000000001
sS'x'
F120.09999999999999
sg18
I00
s(dp31
g16
S'curve'
p32
sS'x'
I100
sg18
I00
sS'y'
I321
s(dp33
g16
S'line'
p34
sS'x'
I173
sg18
I00
sS'y'
I321
s(dp35
S'y'
F248.63999999999999
sS'x'
F186.40000000000001
sg18
I00
s(dp36
S'y'
F195
sS'x'
F246
sg18
I00
s(dp37
g16
S'curve'
p38
sS'x'
I313
sg18
I01
sS'y'
I195
s(dp39
S'y'
F195
sS'x'
F381.33999999999997
sg18
I00
s(dp40
S'y'
F248.63999999999999
sS'x'
F440.94
sg18
I00
s(dp41
g16
S'curve'
p42
sS'x'
I453
sg18
I00
sS'y'
I321
s(dp43
g16
S'line'
p44
sS'x'
I526
sg18
I00
sS'y'
I321
s(dp45
S'y'
F212.46000000000001
sS'x'
F507.24000000000001
sg18
I00
s(dp46
S'y'
F135
sS'x'
F418.86000000000001
sg18
I00
stp47
s(dp48
g14
((dp49
g16
S'line'
p50
sS'x'
I266
sg18
I00
sS'y'
I-60
s(dp51
g16
S'line'
p52
sS'x'
I232
sg18
I00
sS'y'
I-13
s(dp53
g16
S'line'
p54
sS'x'
I312
sg18
I00
sS'y'
I47
s(dp55
g16
S'line'
p56
sS'x'
I552
sg18
I00
sS'y'
I-140
s(dp57
g16
S'line'
p58
sS'x'
I512
sg18
I00
sS'y'
I-180
s(dp59
g16
S'line'
p60
sS'x'
I312
sg18
I00
sS'y'
I-20
stp61
s(dp62
g14
((dp63
g16
S'line'
p64
sS'x'
I267
sg18
I00
sS'y'
I578
s(dp65
g16
S'line'
p66
sS'x'
I267
sg18
I00
sS'y'
I665
s(dp67
g16
S'line'
p68
sS'x'
I353
sg18
I00
sS'y'
I665
s(dp69
g16
S'line'
p70
sS'x'
I353
sg18
I00
sS'y'
I578
stp71
s(dp72
g14
((dp73
g16
S'curve'
p74
sS'x'
I313
sg18
I01
sS'y'
I432
s(dp75
S'y'
F432
sS'x'
F208.47999999999999
sg18
I00
s(dp76
S'y'
F509.45999999999998
sS'x'
F120.09999999999999
sg18
I00
s(dp77
g16
S'curve'
p78
sS'x'
I100
sg18
I00
sS'y'
I618
s(dp79
g16
S'line'
p80
sS'x'
I173
sg18
I00
sS'y'
I618
s(dp81
S'y'
F545.63999999999999
sS'x'
F186.40000000000001
sg18
I00
s(dp82
S'y'
F492
sS'x'
F246
sg18
I00
s(dp83
g16
S'curve'
p84
sS'x'
I313
sg18
I01
sS'y'
I492
s(dp85
S'y'
F492
sS'x'
F381.33999999999997
sg18
I00
s(dp86
S'y'
F545.63999999999999
sS'x'
F440.94
sg18
I00
s(dp87
g16
S'curve'
p88
sS'x'
I453
sg18
I00
sS'y'
I618
s(dp89
g16
S'line'
p90
sS'x'
I526
sg18
I00
sS'y'
I618
s(dp91
S'y'
F509.45999999999998
sS'x'
F507.24000000000001
sg18
I00
s(dp92
S'y'
F432
sS'x'
F418.86000000000001
sg18
I00
stp93
stp94
sS'components'
p95
(tsS'anchors'
p96
(tsssS'com.typemytype.robofont.mark'
p97
(F0.1508399248
F0.30573034290000001
F0.19466084240000001
F1
tp98
s."
LayerCount: 2
Fore
SplineSet
286 506 m 256
 228 506 186 546 181 609 c 256
 177 655 168 661 156 661 c 256
 133 661 105 636 105 592 c 256
 105 517 183 465 286 465 c 256
 388 465 466 517 466 592 c 256
 466 636 438 661 415 661 c 256
 403 661 394 655 390 609 c 256
 385 546 342 506 286 506 c 256
236 644 m 256
 236 622 267 590 286 590 c 256
 307 590 338 622 338 644 c 256
 338 665 307 698 286 698 c 256
 266 698 236 665 236 644 c 256
477 -149 m 256
 494 -149 525 -119 525 -100 c 256
 525 -94 522 -90 514 -84 c 258
 285 78 l 257
 217 37 l 258
 208 31 202 26 202 19 c 256
 202 4 227 -29 241 -29 c 256
 248 -29 254 -27 264 -13 c 258
 286 17 l 257
 457 -139 l 258
 465 -146 471 -149 477 -149 c 256
236 346 m 256
 236 324 267 292 286 292 c 256
 307 292 338 324 338 346 c 256
 338 367 307 400 286 400 c 256
 266 400 236 367 236 346 c 256
286 208 m 256
 228 208 186 248 181 311 c 256
 177 357 168 363 156 363 c 256
 133 363 105 338 105 294 c 256
 105 219 183 167 286 167 c 256
 388 167 466 219 466 294 c 256
 466 338 438 363 415 363 c 256
 403 363 394 357 390 311 c 256
 385 248 342 208 286 208 c 256
EndSplineSet
Validated: 9
EndChar

StartChar: ecandralongsigndeva
Encoding: 2389 2389 98
Width: 0
VWidth: 0
GlyphClass: 4
Flags: W
PickledData: "(dp1
S'com.typemytype.robofont.layerData'
p2
(dp3
S'original'
p4
(dp5
S'name'
p6
S'ecandralongsigndeva'
p7
sS'lib'
p8
(dp9
sS'unicodes'
p10
(tsS'width'
p11
I0
sS'contours'
p12
(tsS'components'
p13
(tsS'anchors'
p14
(tsssS'com.typemytype.robofont.mark'
p15
(I1
I1
I1
I0
tp16
s."
AnchorPoint: "DVAnchor3" -143 666 mark 0
LayerCount: 2
Fore
SplineSet
26 726 m 257
 -313 726 l 257
 -313 776 l 257
 26 776 l 257
 26 726 l 257
-143 860 m 256
 -201 860 -243 900 -248 963 c 256
 -252 1009 -261 1015 -273 1015 c 256
 -296 1015 -324 990 -324 946 c 256
 -324 871 -246 819 -143 819 c 256
 -41 819 37 871 37 946 c 256
 37 990 9 1015 -14 1015 c 256
 -26 1015 -35 1009 -39 963 c 256
 -44 900 -87 860 -143 860 c 256
EndSplineSet
Validated: 9
EndChar

StartChar: ecandrasigndeva
Encoding: 2373 2373 99
Width: 0
VWidth: 0
GlyphClass: 4
Flags: W
PickledData: "(dp1
S'com.typemytype.robofont.layerData'
p2
(dp3
S'original'
p4
(dp5
S'name'
p6
S'ecandrasigndeva'
p7
sS'lib'
p8
(dp9
sS'unicodes'
p10
(tsS'width'
p11
I0
sS'contours'
p12
((dp13
S'points'
p14
((dp15
S'segmentType'
p16
S'qcurve'
p17
sS'x'
I-127
sS'smooth'
p18
I01
sS'y'
I759
s(dp19
S'y'
I759
sS'x'
I-200
sg18
I00
s(dp20
S'y'
I861
sS'x'
I-313
sg18
I00
s(dp21
g16
S'qcurve'
p22
sS'x'
I-326
sg18
I00
sS'y'
I939
s(dp23
g16
S'line'
p24
sS'x'
I-260
sg18
I00
sS'y'
I939
s(dp25
S'y'
I885
sS'x'
I-250
sg18
I00
s(dp26
S'y'
I813
sS'x'
I-174
sg18
I00
s(dp27
g16
S'qcurve'
p28
sS'x'
I-127
sg18
I01
sS'y'
I813
s(dp29
S'y'
I813
sS'x'
I-79
sg18
I00
s(dp30
S'y'
I885
sS'x'
I-3
sg18
I00
s(dp31
g16
S'qcurve'
p32
sS'x'
I7
sg18
I00
sS'y'
I939
s(dp33
g16
S'line'
p34
sS'x'
I73
sg18
I00
sS'y'
I939
s(dp35
S'y'
I861
sS'x'
I60
sg18
I00
s(dp36
S'y'
I759
sS'x'
I-53
sg18
I00
stp37
stp38
sS'components'
p39
(tsS'anchors'
p40
(tsssS'com.typemytype.robofont.mark'
p41
(F0.75
F1
F1
F1
tp42
s."
AnchorPoint: "DVAnchor3" -143 666 mark 0
LayerCount: 2
Fore
SplineSet
-143 801 m 256
 -201 801 -243 841 -248 904 c 256
 -252 950 -261 956 -273 956 c 256
 -296 956 -324 931 -324 887 c 256
 -324 812 -246 760 -143 760 c 256
 -41 760 37 812 37 887 c 256
 37 931 9 956 -14 956 c 256
 -26 956 -35 950 -39 904 c 256
 -44 841 -87 801 -143 801 c 256
EndSplineSet
Validated: 9
EndChar

StartChar: edeva
Encoding: 2319 2319 100
Width: 532
VWidth: 0
GlyphClass: 2
Flags: HW
PickledData: "(dp1
S'com.typemytype.robofont.layerData'
p2
(dp3
S'original'
p4
(dp5
S'name'
p6
S'edeva'
p7
sS'lib'
p8
(dp9
sS'unicodes'
p10
(tsS'width'
p11
I486
sS'contours'
p12
((dp13
S'points'
p14
((dp15
S'segmentType'
p16
S'line'
p17
sS'x'
I-13
sS'smooth'
p18
I00
sS'y'
I606
s(dp19
g16
S'line'
p20
sS'x'
I-13
sg18
I00
sS'y'
I666
s(dp21
g16
S'line'
p22
sS'x'
I499
sg18
I00
sS'y'
I666
s(dp23
g16
S'line'
p24
sS'x'
I499
sg18
I00
sS'y'
I606
s(dp25
g16
S'line'
p26
sS'x'
I419
sg18
I00
sS'y'
I606
s(dp27
g16
S'line'
p28
sS'x'
I419
sg18
I01
sS'y'
I411
s(dp29
S'y'
I357
sS'x'
I419
sg18
I00
s(dp30
S'y'
I276
sS'x'
I376
sg18
I00
s(dp31
g16
S'qcurve'
p32
sS'x'
I340
sg18
I00
sS'y'
I266
s(dp33
g16
S'line'
p34
sS'x'
I300
sg18
I00
sS'y'
I313
s(dp35
S'y'
I320
sS'x'
I324
sg18
I00
s(dp36
S'y'
I376
sS'x'
I353
sg18
I00
s(dp37
g16
S'qcurve'
p38
sS'x'
I353
sg18
I01
sS'y'
I413
s(dp39
g16
S'line'
p40
sS'x'
I353
sg18
I00
sS'y'
I606
s(dp41
g16
S'line'
p42
sS'x'
I127
sg18
I00
sS'y'
I606
s(dp43
g16
S'line'
p44
sS'x'
I127
sg18
I01
sS'y'
I353
s(dp45
S'y'
I328
sS'x'
I127
sg18
I00
s(dp46
S'y'
I282
sS'x'
I144
sg18
I00
s(dp47
g16
S'qcurve'
p48
sS'x'
I160
sg18
I01
sS'y'
I266
s(dp49
g16
S'line'
p50
sS'x'
I393
sg18
I00
sS'y'
I47
s(dp51
S'y'
I25
sS'x'
I418
sg18
I00
s(dp52
S'y'
I-16
sS'x'
I446
sg18
I00
s(dp53
g16
S'qcurve'
p54
sS'x'
I446
sg18
I01
sS'y'
I-33
s(dp55
S'y'
I-63
sS'x'
I446
sg18
I00
s(dp56
S'y'
I-113
sS'x'
I402
sg18
I00
s(dp57
g16
S'qcurve'
p58
sS'x'
I366
sg18
I00
sS'y'
I-127
s(dp59
g16
S'line'
p60
sS'x'
I313
sg18
I00
sS'y'
I-80
s(dp61
S'y'
I-76
sS'x'
I340
sg18
I00
s(dp62
S'y'
I-49
sS'x'
I373
sg18
I00
s(dp63
g16
S'qcurve'
p64
sS'x'
I373
sg18
I01
sS'y'
I-33
s(dp65
S'y'
I-24
sS'x'
I373
sg18
I00
s(dp66
S'y'
I0
sS'x'
I360
sg18
I00
s(dp67
g16
S'qcurve'
p68
sS'x'
I346
sg18
I01
sS'y'
I13
s(dp69
g16
S'line'
p70
sS'x'
I100
sg18
I01
sS'y'
I240
s(dp71
S'y'
I258
sS'x'
I81
sg18
I00
s(dp72
S'y'
I317
sS'x'
I60
sg18
I00
s(dp73
g16
S'qcurve'
p74
sS'x'
I60
sg18
I01
sS'y'
I350
s(dp75
g16
S'line'
p76
sS'x'
I60
sg18
I00
sS'y'
I606
stp77
stp78
sS'components'
p79
(tsS'anchors'
p80
(tsssS'com.typemytype.robofont.mark'
p81
(F0.75
F1
F1
F1
tp82
s."
AnchorPoint: "DVAnchor3" 250 665 basechar 0
LayerCount: 2
Back
SplineSet
354 447 m 258
 354 338 298 289 298 280 c 256
 298 271 315 257 326 257 c 256
 348 257 439 365 439 469 c 258
 439 621 l 257
 519 621 l 257
 519 666 l 257
 -13 666 l 257
 -13 621 l 257
 61 621 l 257
 61 343 l 258
 61 225 89 160 183 113 c 257
 327 36 l 257
 413 -7 427 -44 427 -96 c 256
 427 -162 395 -197 360 -197 c 256
 328 -197 308 -176 308 -141 c 256
 308 -113 328 -77 328 -70 c 256
 328 -62 323 -59 310 -59 c 256
 258 -59 220 -95 220 -146 c 256
 220 -201 265 -239 337 -239 c 256
 438 -239 489 -165 489 -73 c 256
 489 2 452 67 345 119 c 257
 240 174 l 257
 158 214 146 247 146 382 c 258
 146 621 l 257
 354 621 l 257
 354 447 l 258
EndSplineSet
Fore
SplineSet
226.586914062 -120.40234375 m 0
 226.586914062 -166.74218998 268.768752687 -201.943359375 314.162109375 -201.943359375 c 0
 408 -201.943359375 454 -127 454 -49 c 0
 454 45.0849609375 407 91 300 143 c 257
 240 174 l 257
 158 214 146 247 146 382 c 258
 146 621 l 257
 354 621 l 257
 354 447 l 258
 354 338 298 289 298 280 c 256
 298 271 315 257 326 257 c 256
 348 257 439 365 439 469 c 258
 439 621 l 257
 519 621 l 257
 519 666 l 257
 -13 666 l 257
 -13 621 l 257
 61 621 l 257
 61 343 l 258
 61 225 89 160 183 113 c 257
 282 60 l 257
 368 17 397 -12 397 -64 c 0
 397 -102 368 -130.76171875 326 -130.76171875 c 256
 269 -130.76171875 259.801757812 -97.32421875 244 -97.32421875 c 0
 237.306640625 -97.32421875 226.586914062 -103.323086397 226.586914062 -120.40234375 c 0
EndSplineSet
Colour: ff00
EndChar

StartChar: eight
Encoding: 56 56 101
Width: 631
VWidth: 0
GlyphClass: 2
Flags: W
PickledData: "(dp1
S'com.typemytype.robofont.layerData'
p2
(dp3
S'original'
p4
(dp5
S'name'
p6
S'eight'
p7
sS'lib'
p8
(dp9
sS'unicodes'
p10
(tsS'width'
p11
I635
sS'contours'
p12
(tsS'components'
p13
(tsS'anchors'
p14
(tsssS'com.typemytype.robofont.mark'
p15
(I1
I1
I1
I0
tp16
s."
LayerCount: 2
Fore
SplineSet
557 564 m 256
 557 699 445 753 308 753 c 256
 146 753 74 649 74 545 c 256
 74 457 115 404 191 362 c 257
 125 323 55 260 55 170 c 256
 55 35 169 -17 307 -17 c 256
 475 -17 575 63 575 183 c 256
 575 268 529 332 431 382 c 257
 495 421 557 481 557 564 c 256
350 291 m 258
 427 257 463 226 463 157 c 256
 463 82 397 40 308 40 c 256
 216 40 164 96 164 173 c 256
 164 224 188 284 241 339 c 257
 350 291 l 258
308 695 m 256
 396 695 446 640 446 565 c 256
 446 516 424 461 378 408 c 257
 314 436 l 258
 213 481 179 520 179 575 c 256
 179 637 230 695 308 695 c 256
EndSplineSet
Validated: 9
EndChar

StartChar: eightcombiningdigitdeva
Encoding: 43240 43240 102
Width: 0
VWidth: 0
GlyphClass: 4
Flags: W
PickledData: "(dp1
S'com.typemytype.robofont.layerData'
p2
(dp3
S'original'
p4
(dp5
S'name'
p6
S'eightcombiningdigitdeva'
p7
sS'lib'
p8
(dp9
sS'unicodes'
p10
(tsS'width'
p11
I0
sS'contours'
p12
(tsS'components'
p13
(tsS'anchors'
p14
(tsssS'com.typemytype.robofont.mark'
p15
(I1
I1
I1
I0
tp16
s."
AnchorPoint: "DVAnchor3" -137 681 mark 0
LayerCount: 2
Fore
SplineSet
-125 723 m 256
 -164 723 -197 733 -224 752 c 256
 -252 771 -266 795 -266 822 c 256
 -266 845 -254 868 -231 887 c 258
 -55 1033 l 257
 -23 1008 l 257
 -197 863 l 258
 -210 852 -218 837 -218 822 c 256
 -218 804 -209 789 -191 776 c 256
 -173 763 -151 757 -125 757 c 256
 -111 757 -96 761 -79 769 c 257
 -63 778 -47 789 -32 803 c 258
 -29 806 l 257
 3 781 l 257
 0 778 l 257
 -38 743 -82 723 -125 723 c 256
EndSplineSet
Validated: 1
EndChar

StartChar: eightdeva
Encoding: 2414 2414 103
Width: 592
VWidth: 0
GlyphClass: 2
Flags: W
PickledData: "(dp1
S'com.typemytype.robofont.layerData'
p2
(dp3
S'original'
p4
(dp5
S'name'
p6
S'eightdeva'
p7
sS'lib'
p8
(dp9
sS'unicodes'
p10
(tsS'width'
p11
I665
sS'contours'
p12
(tsS'components'
p13
(tsS'anchors'
p14
(tsssS'com.typemytype.robofont.mark'
p15
(I1
I1
I1
I0
tp16
s."
LayerCount: 2
Fore
SplineSet
165 184 m 256
 165 314 294 487 454 617 c 256
 458 621 458 624 458 626 c 256
 458 638 443 655 436 655 c 256
 433 655 432 654 429 652 c 256
 354 598 78 391 78 184 c 256
 78 71 171 0 285 0 c 256
 374 0 444 40 484 67 c 256
 513 90 521 97 521 102 c 256
 521 114 507 132 496 132 c 256
 478 132 416 52 295 52 c 256
 224 52 165 90 165 184 c 256
EndSplineSet
Validated: 9
Substitution2: "LocalizedNpFormslookup2 subtable" eightdeva.np
EndChar

StartChar: eightdeva.np
Encoding: 65576 -1 104
Width: 664
VWidth: 0
GlyphClass: 3
Flags: W
PickledData: "(dp1
S'com.typemytype.robofont.layerData'
p2
(dp3
S'original'
p4
(dp5
S'name'
p6
S'eightdeva.np'
p7
sS'lib'
p8
(dp9
sS'unicodes'
p10
(tsS'width'
p11
I664
sS'contours'
p12
(tsS'components'
p13
(tsS'anchors'
p14
(tsssS'com.typemytype.robofont.mark'
p15
(I1
I1
I1
I0
tp16
s."
LayerCount: 2
Fore
SplineSet
425 516 m 257
 193 292 l 258
 184 283 176 266 171 242 c 256
 169 233 168 223 168 213 c 256
 168 204 169 196 170 187 c 256
 183 102 228 60 307 60 c 256
 361 60 424 99 480 166 c 257
 527 120 l 257
 463 44 383 0 307 0 c 256
 239 0 190 15 159 44 c 256
 129 73 109 116 99 174 c 256
 97 185 96 197 96 208 c 256
 96 222 98 236 101 250 c 256
 110 288 121 313 136 326 c 258
 342 518 l 257
 66 519 l 257
 66 578 l 257
 547 578 l 257
 549 517 l 257
 425 516 l 257
EndSplineSet
Validated: 1
EndChar

StartChar: ellipsis
Encoding: 8230 8230 105
Width: 587
VWidth: 0
GlyphClass: 2
Flags: W
PickledData: "(dp1
S'com.typemytype.robofont.layerData'
p2
(dp3
S'original'
p4
(dp5
S'name'
p6
S'ellipsis'
p7
sS'lib'
p8
(dp9
sS'unicodes'
p10
(tsS'width'
p11
I1038
sS'contours'
p12
(tsS'components'
p13
(tsS'anchors'
p14
(tsssS'com.typemytype.robofont.mark'
p15
(I1
I1
I1
I0
tp16
s."
LayerCount: 2
Fore
SplineSet
34 52 m 256
 34 26 73 -14 96 -14 c 256
 122 -14 161 26 161 52 c 256
 161 79 122 120 96 120 c 256
 72 120 34 79 34 52 c 256
229 52 m 256
 229 26 268 -14 292 -14 c 256
 317 -14 356 26 356 52 c 256
 356 79 317 120 292 120 c 256
 267 120 229 79 229 52 c 256
425 52 m 256
 425 26 464 -14 487 -14 c 256
 513 -14 552 26 552 52 c 256
 552 79 513 120 487 120 c 256
 463 120 425 79 425 52 c 256
EndSplineSet
Validated: 9
EndChar

StartChar: emdash
Encoding: 8212 8212 106
Width: 932
VWidth: 0
GlyphClass: 2
Flags: W
PickledData: "(dp1
S'com.typemytype.robofont.layerData'
p2
(dp3
S'original'
p4
(dp5
S'name'
p6
S'emdash'
p7
sS'lib'
p8
(dp9
sS'unicodes'
p10
(tsS'width'
p11
I1331
sS'contours'
p12
(tsS'components'
p13
(tsS'anchors'
p14
(tsssS'com.typemytype.robofont.mark'
p15
(I1
I1
I1
I0
tp16
s."
LayerCount: 2
Fore
SplineSet
853 268 m 257
 873 284 880 315 880 340 c 257
 78 330 l 257
 58 314 51 283 51 258 c 257
 853 268 l 257
EndSplineSet
Validated: 9
EndChar

StartChar: endash
Encoding: 8211 8211 107
Width: 798
VWidth: 0
GlyphClass: 2
Flags: W
PickledData: "(dp1
S'com.typemytype.robofont.layerData'
p2
(dp3
S'original'
p4
(dp5
S'name'
p6
S'endash'
p7
sS'lib'
p8
(dp9
sS'unicodes'
p10
(tsS'width'
p11
I665
sS'contours'
p12
(tsS'components'
p13
(tsS'anchors'
p14
(tsssS'com.typemytype.robofont.mark'
p15
(I1
I1
I1
I0
tp16
s."
LayerCount: 2
Fore
SplineSet
721 268 m 257
 741 284 748 315 748 340 c 257
 78 330 l 257
 58 314 51 283 51 258 c 257
 721 268 l 257
EndSplineSet
Validated: 9
EndChar

StartChar: eprishthamatrasigndeva
Encoding: 2382 2382 108
Width: 267
VWidth: 0
GlyphClass: 2
Flags: W
PickledData: "(dp1
S'com.typemytype.robofont.layerData'
p2
(dp3
S'original'
p4
(dp5
S'name'
p6
S'eprishthamatrasigndeva'
p7
sS'lib'
p8
(dp9
sS'unicodes'
p10
(tsS'width'
p11
I266
sS'contours'
p12
((dp13
S'points'
p14
((dp15
S'segmentType'
p16
S'line'
p17
sS'x'
I100
sS'smooth'
p18
I00
sS'y'
I666
s(dp19
g16
S'line'
p20
sS'x'
I280
sg18
I00
sS'y'
I666
s(dp21
g16
S'line'
p22
sS'x'
I280
sg18
I00
sS'y'
I606
s(dp23
g16
S'line'
p24
sS'x'
I166
sg18
I00
sS'y'
I606
s(dp25
g16
S'line'
p26
sS'x'
I166
sg18
I00
sS'y'
I0
s(dp27
g16
S'line'
p28
sS'x'
I100
sg18
I00
sS'y'
I0
stp29
stp30
sS'components'
p31
(tsS'anchors'
p32
(tsssS'com.typemytype.robofont.mark'
p33
(F0.75
F1
F1
F1
tp34
s."
LayerCount: 2
Fore
SplineSet
90 666 m 257
 90 0 l 257
 177 0 l 257
 177 621 l 257
 280 621 l 257
 280 666 l 257
 90 666 l 257
EndSplineSet
Validated: 9
EndChar

StartChar: equal
Encoding: 61 61 109
Width: 636
VWidth: 0
GlyphClass: 2
Flags: W
PickledData: "(dp1
S'com.typemytype.robofont.layerData'
p2
(dp3
S'original'
p4
(dp5
S'name'
p6
S'equal'
p7
sS'lib'
p8
(dp9
sS'unicodes'
p10
(tsS'width'
p11
I798
sS'contours'
p12
(tsS'components'
p13
(tsS'anchors'
p14
(tsssS'com.typemytype.robofont.mark'
p15
(I1
I1
I1
I0
tp16
s."
LayerCount: 2
Fore
SplineSet
101 216 m 257
 535 216 l 257
 535 294 l 257
 101 294 l 257
 101 216 l 257
101 437 m 257
 535 437 l 257
 535 515 l 257
 101 515 l 257
 101 437 l 257
EndSplineSet
Validated: 9
EndChar

StartChar: eshortsigndeva
Encoding: 2374 2374 111
Width: 0
VWidth: 0
GlyphClass: 4
Flags: W
PickledData: "(dp1
S'com.typemytype.robofont.layerData'
p2
(dp3
S'original'
p4
(dp5
S'name'
p6
S'eshortsigndeva'
p7
sS'lib'
p8
(dp9
sS'unicodes'
p10
(tsS'width'
p11
I0
sS'contours'
p12
((dp13
S'points'
p14
((dp15
S'segmentType'
p16
S'qcurve'
p17
sS'x'
I-296
sS'smooth'
p18
I01
sS'y'
I807
s(dp19
S'y'
I807
sS'x'
I-369
sg18
I00
s(dp20
S'y'
I908
sS'x'
I-482
sg18
I00
s(dp21
g16
S'qcurve'
p22
sS'x'
I-495
sg18
I00
sS'y'
I987
s(dp23
g16
S'line'
p24
sS'x'
I-429
sg18
I00
sS'y'
I987
s(dp25
S'y'
I932
sS'x'
I-419
sg18
I00
s(dp26
S'y'
I860
sS'x'
I-344
sg18
I00
s(dp27
g16
S'qcurve'
p28
sS'x'
I-296
sg18
I01
sS'y'
I860
s(dp29
S'y'
I860
sS'x'
I-213
sg18
I00
s(dp30
S'y'
I747
sS'x'
I-96
sg18
I00
s(dp31
g16
S'qcurve'
p32
sS'x'
I-96
sg18
I00
sS'y'
I667
s(dp33
g16
S'line'
p34
sS'x'
I-162
sg18
I00
sS'y'
I667
s(dp35
S'y'
I724
sS'x'
I-162
sg18
I00
s(dp36
S'y'
I807
sS'x'
I-241
sg18
I00
stp37
s(dp38
g14
((dp39
g16
S'qcurve'
p40
sS'x'
I-296
sg18
I01
sS'y'
I807
s(dp41
S'y'
I807
sS'x'
I-369
sg18
I00
s(dp42
S'y'
I908
sS'x'
I-482
sg18
I00
s(dp43
g16
S'qcurve'
p44
sS'x'
I-495
sg18
I00
sS'y'
I987
s(dp45
g16
S'line'
p46
sS'x'
I-429
sg18
I00
sS'y'
I987
s(dp47
S'y'
I932
sS'x'
I-419
sg18
I00
s(dp48
S'y'
I860
sS'x'
I-344
sg18
I00
s(dp49
g16
S'qcurve'
p50
sS'x'
I-296
sg18
I01
sS'y'
I860
s(dp51
S'y'
I860
sS'x'
I-213
sg18
I00
s(dp52
S'y'
I747
sS'x'
I-96
sg18
I00
s(dp53
g16
S'qcurve'
p54
sS'x'
I-96
sg18
I00
sS'y'
I667
s(dp55
g16
S'line'
p56
sS'x'
I-162
sg18
I00
sS'y'
I667
s(dp57
S'y'
I724
sS'x'
I-162
sg18
I00
s(dp58
S'y'
I807
sS'x'
I-241
sg18
I00
stp59
stp60
sS'components'
p61
(tsS'anchors'
p62
(tsssS'com.typemytype.robofont.mark'
p63
(F0.75
F1
F1
F1
tp64
s."
AnchorPoint: "DVAnchor3" -143 665 mark 0
LayerCount: 2
Fore
SplineSet
-371 915 m 256
 -371 949 -350 968 -350 976 c 256
 -350 984 -356 987 -368 987 c 256
 -409 987 -451 955 -451 903 c 256
 -451 732 -206 845 -176 666 c 257
 -110 666 l 257
 -140 885 -371 789 -371 915 c 256
EndSplineSet
Validated: 9
EndChar

StartChar: esign_ra_virama.alt1
Encoding: 65577 -1 112
Width: 0
VWidth: 0
GlyphClass: 4
Flags: W
PickledData: "(dp1
S'com.typemytype.robofont.layerData'
p2
(dp3
S'original'
p4
(dp5
S'name'
p6
S'esign_ra_virama.alt1'
p7
sS'lib'
p8
(dp9
sS'unicodes'
p10
(tsS'width'
p11
I0
sS'contours'
p12
((dp13
S'points'
p14
((dp15
S'segmentType'
p16
S'line'
p17
sS'x'
I-156
sS'smooth'
p18
I00
sS'y'
I666
s(dp19
g16
S'line'
p20
sS'x'
I-415
sg18
I00
sS'y'
I952
s(dp21
g16
S'line'
p22
sS'x'
I-369
sg18
I00
sS'y'
I999
s(dp23
g16
S'line'
p24
sS'x'
I-222
sg18
I00
sS'y'
I826
s(dp25
S'y'
I896
sS'x'
I-211
sg18
I00
s(dp26
S'y'
I945
sS'x'
I-148
sg18
I00
s(dp27
g16
S'curve'
p28
sS'x'
I-69
sg18
I01
sS'y'
I945
s(dp29
S'y'
I945
sS'x'
I-40
sg18
I00
s(dp30
S'y'
I936
sS'x'
I-7
sg18
I00
s(dp31
g16
S'curve'
p32
sS'x'
I24
sg18
I00
sS'y'
I919
s(dp33
g16
S'line'
p34
sS'x'
I4
sg18
I00
sS'y'
I872
s(dp35
S'y'
I885
sS'x'
I-19
sg18
I00
s(dp36
S'y'
I892
sS'x'
I-45
sg18
I00
s(dp37
g16
S'curve'
p38
sS'x'
I-69
sg18
I01
sS'y'
I892
s(dp39
S'y'
I892
sS'x'
I-121
sg18
I00
s(dp40
S'y'
I851
sS'x'
I-162
sg18
I00
s(dp41
g16
S'curve'
p42
sS'x'
I-162
sg18
I01
sS'y'
I799
s(dp43
S'y'
I767
sS'x'
I-162
sg18
I00
s(dp44
S'y'
I743
sS'x'
I-158
sg18
I00
s(dp45
g16
S'curve'
p46
sS'x'
I-149
sg18
I01
sS'y'
I732
s(dp47
g16
S'line'
p48
sS'x'
I-89
sg18
I00
sS'y'
I666
stp49
stp50
sS'components'
p51
(tsS'anchors'
p52
((dp53
S'y'
F664
sS'x'
F-115
sg6
S'_DVAnchor3'
p54
stp55
sssS'com.typemytype.robofont.mark'
p56
(F0.1508399248
F0.30573034290000001
F0.19466084240000001
F1
tp57
s."
AnchorPoint: "DVAnchor3" -143 665 mark 0
LayerCount: 2
Fore
SplineSet
-179 666 m 257
 -107 666 l 257
 -165 727 -174 773 -174 799 c 256
 -174 861 -128 886 -91 886 c 256
 -34 886 -25 861 -6 861 c 256
 3 861 7 870 7 886 c 256
 7 922 -27 945 -81 945 c 256
 -134 945 -210 915 -224 828 c 257
 -340 990 l 258
 -344 995 -348 997 -355 997 c 256
 -379 997 -422 964 -422 943 c 256
 -422 938 -420 933 -416 929 c 258
 -179 666 l 257
EndSplineSet
Validated: 9
Ligature2: "AboveBaseSubstitutionslookup subtable" esigndeva radeva_viramadeva
EndChar

StartChar: esign_ra_virama_anusvara
Encoding: 65578 -1 113
Width: 0
VWidth: 0
GlyphClass: 4
Flags: W
PickledData: "(dp1
S'com.typemytype.robofont.layerData'
p2
(dp3
S'original'
p4
(dp5
S'name'
p6
S'esign_ra_virama_anusvara'
p7
sS'lib'
p8
(dp9
sS'unicodes'
p10
(tsS'width'
p11
I0
sS'contours'
p12
((dp13
S'points'
p14
((dp15
S'segmentType'
p16
S'line'
p17
sS'x'
I-156
sS'smooth'
p18
I00
sS'y'
I666
s(dp19
g16
S'line'
p20
sS'x'
I-402
sg18
I00
sS'y'
I959
s(dp21
g16
S'line'
p22
sS'x'
I-356
sg18
I00
sS'y'
I999
s(dp23
g16
S'line'
p24
sS'x'
I-222
sg18
I00
sS'y'
I819
s(dp25
S'y'
F892.70000000000005
sS'x'
F-211.28
sg18
I00
s(dp26
S'y'
F945
sS'x'
F-146.72
sg18
I00
s(dp27
g16
S'curve'
p28
sS'x'
I-69
sg18
I01
sS'y'
I945
s(dp29
S'y'
F945
sS'x'
F-35.5
sg18
I00
s(dp30
S'y'
F938.39999999999998
sS'x'
F-4.1399999999999997
sg18
I00
s(dp31
g16
S'curve'
p32
sS'x'
I24
sg18
I00
sS'y'
I925
s(dp33
g16
S'line'
p34
sS'x'
I4
sg18
I00
sS'y'
I872
s(dp35
S'y'
F885.39999999999998
sS'x'
F-18.780000000000001
sg18
I00
s(dp36
S'y'
F892
sS'x'
F-44.880000000000003
sg18
I00
s(dp37
g16
S'curve'
p38
sS'x'
I-69
sg18
I01
sS'y'
I892
s(dp39
S'y'
F892
sS'x'
F-121.26000000000001
sg18
I00
s(dp40
S'y'
F851.25999999999999
sS'x'
F-162
sg18
I00
s(dp41
g16
S'curve'
p42
sS'x'
I-162
sg18
I01
sS'y'
I799
s(dp43
S'y'
F766.84000000000003
sS'x'
F-162
sg18
I00
s(dp44
S'y'
F742.72000000000003
sS'x'
F-158.38
sg18
I00
s(dp45
g16
S'curve'
p46
sS'x'
I-149
sg18
I01
sS'y'
I732
s(dp47
g16
S'line'
p48
sS'x'
I-96
sg18
I00
sS'y'
I666
stp49
s(dp50
g14
((dp51
g16
S'line'
p52
sS'x'
I-96
sg18
I00
sS'y'
I746
s(dp53
g16
S'line'
p54
sS'x'
I-96
sg18
I00
sS'y'
I819
s(dp55
g16
S'line'
p56
sS'x'
I-29
sg18
I00
sS'y'
I819
s(dp57
g16
S'line'
p58
sS'x'
I-29
sg18
I00
sS'y'
I746
stp59
stp60
sS'components'
p61
(tsS'anchors'
p62
((dp63
S'y'
F673
sS'x'
F-117
sg6
S'_DVAnchor3'
p64
stp65
sssS'com.typemytype.robofont.mark'
p66
(F0.1508399248
F0.30573034290000001
F0.19466084240000001
F1
tp67
s."
AnchorPoint: "DVAnchor3" -143 665 mark 0
LayerCount: 2
Fore
SplineSet
-179 666 m 257
 -107 666 l 257
 -165 727 -174 773 -174 799 c 256
 -174 861 -128 886 -91 886 c 256
 -34 886 -25 861 -6 861 c 256
 3 861 7 870 7 886 c 256
 7 922 -27 945 -81 945 c 256
 -134 945 -210 915 -224 828 c 257
 -340 990 l 258
 -344 995 -348 997 -355 997 c 256
 -379 997 -422 964 -422 943 c 256
 -422 938 -420 933 -416 929 c 258
 -179 666 l 257
-119 786 m 256
 -119 766 -91 737 -74 737 c 256
 -55 737 -27 766 -27 786 c 256
 -27 805 -55 835 -74 835 c 256
 -92 835 -119 805 -119 786 c 256
EndSplineSet
Validated: 9
Ligature2: "AboveBaseSubstitutionslookup subtable" esigndeva radeva_viramadeva anusvaradeva
EndChar

StartChar: esigndeva
Encoding: 2375 2375 114
Width: 0
VWidth: 0
GlyphClass: 4
Flags: HW
PickledData: "(dp1
S'com.typemytype.robofont.layerData'
p2
(dp3
S'original'
p4
(dp5
S'name'
p6
S'esigndeva'
p7
sS'lib'
p8
(dp9
sS'unicodes'
p10
(tsS'width'
p11
I0
sS'contours'
p12
((dp13
S'points'
p14
((dp15
S'segmentType'
p16
S'line'
p17
sS'x'
I-169
sS'smooth'
p18
I00
sS'y'
I666
s(dp19
g16
S'line'
p20
sS'x'
I-415
sg18
I00
sS'y'
I959
s(dp21
g16
S'line'
p22
sS'x'
I-369
sg18
I00
sS'y'
I999
s(dp23
g16
S'line'
p24
sS'x'
I-103
sg18
I00
sS'y'
I666
stp25
stp26
sS'components'
p27
(tsS'anchors'
p28
(tsssS'com.typemytype.robofont.mark'
p29
(F0.75
F1
F1
F1
tp30
s."
AnchorPoint: "DVAnchor3" -143 665 mark 0
LayerCount: 2
Back
SplineSet
-154 827 m 2
 -185.041015625 930.479492188 -236 975 -326 975 c 256
 -397 975 -440 938 -440 886 c 256
 -440 837 -404 803 -354 803 c 256
 -346 803 -338 805 -338 813 c 256
 -338 827 -357 834 -357 881 c 256
 -357 914 -341 935 -309 935 c 256
 -268 935 -246.551509273 898.923703307 -227.946289062 830.733398438 c 2
 -183 666 l 257
 -183 666 l 257
 -106 666 l 257
 -154 827 l 2
EndSplineSet
Fore
SplineSet
-316 935 m 260
 -243 935 -200 800 -183 666 c 261
 -183 666 l 261
 -106 666 l 261
 -146 914 -220 975 -326 975 c 260
 -397 975 -440 940 -440 896 c 260
 -440 847 -399 822 -361 822 c 260
 -353 822 -345 824 -345 831 c 260
 -345 839 -362 854 -362 891 c 260
 -362 914 -348 935 -316 935 c 260
EndSplineSet
Colour: ff00
EndChar

StartChar: esigndeva_anusvaradeva
Encoding: 65579 -1 115
Width: 0
VWidth: 0
GlyphClass: 4
Flags: HW
PickledData: "(dp1
S'com.typemytype.robofont.layerData'
p2
(dp3
S'original'
p4
(dp5
S'name'
p6
S'esigndeva_anusvaradeva'
p7
sS'lib'
p8
(dp9
sS'unicodes'
p10
(tsS'width'
p11
I0
sS'contours'
p12
((dp13
S'points'
p14
((dp15
S'segmentType'
p16
S'line'
p17
sS'x'
I-136
sS'smooth'
p18
I00
sS'y'
I866
s(dp19
g16
S'line'
p20
sS'x'
I-136
sg18
I00
sS'y'
I959
s(dp21
g16
S'line'
p22
sS'x'
I-36
sg18
I00
sS'y'
I959
s(dp23
g16
S'line'
p24
sS'x'
I-36
sg18
I00
sS'y'
I866
stp25
s(dp26
g14
((dp27
g16
S'line'
p28
sS'x'
I-169
sg18
I00
sS'y'
I666
s(dp29
g16
S'line'
p30
sS'x'
I-415
sg18
I00
sS'y'
I952
s(dp31
g16
S'line'
p32
sS'x'
I-369
sg18
I00
sS'y'
I999
s(dp33
g16
S'line'
p34
sS'x'
I-103
sg18
I00
sS'y'
I666
stp35
stp36
sS'components'
p37
(tsS'anchors'
p38
(tsssS'com.typemytype.robofont.mark'
p39
(F0.75
F1
F1
F1
tp40
s."
AnchorPoint: "DVAnchor3" -143 665 mark 0
LayerCount: 2
Back
SplineSet
-316 935 m 256
 -243 935 -200 800 -183 666 c 257
 -183 666 l 257
 -106 666 l 257
 -146 914 -220 975 -326 975 c 256
 -397 975 -440 940 -440 896 c 256
 -440 847 -399 822 -361 822 c 256
 -353 822 -345 824 -345 831 c 256
 -345 839 -362 854 -362 891 c 256
 -362 914 -348 935 -316 935 c 256
-144 912 m 260
 -144 890 -113 858 -94 858 c 260
 -73 858 -42 890 -42 912 c 260
 -42 933 -73 966 -94 966 c 260
 -114 966 -144 933 -144 912 c 260
-423 929 m 262
 -176 666 l 261
 -110 666 l 261
 -347 990 l 262
 -351 995 -355 997 -362 997 c 260
 -386 997 -429 964 -429 943 c 260
 -429 938 -427 933 -423 929 c 262
EndSplineSet
Fore
SplineSet
-316 935 m 256
 -243 935 -200 800 -183 666 c 257
 -183 666 l 257
 -106 666 l 257
 -146 914 -220 975 -326 975 c 256
 -397 975 -440 940 -440 896 c 256
 -440 847 -399 822 -361 822 c 256
 -353 822 -345 824 -345 831 c 256
 -345 839 -362 854 -362 891 c 256
 -362 914 -348 935 -316 935 c 256
-114 912 m 260
 -114 890 -83 858 -64 858 c 260
 -43 858 -12 890 -12 912 c 260
 -12 933 -43 966 -64 966 c 260
 -84 966 -114 933 -114 912 c 260
EndSplineSet
LCarets2: 1 0 
Ligature2: "AboveBaseSubstitutionslookup subtable" esigndeva anusvaradeva
Colour: ff0000
EndChar

